<?xml version="1.0" encoding="utf-8"?>
<svg viewBox="311.199951171875 149.70001220703125 209.2000732421875 180.89999389648438" width="209.2000732421875" height="180.89999389648438" xmlns="http://www.w3.org/2000/svg"><path class="st0" d="M499,165.5L499,165.5c-10.2-10.2-25-15.8-41.7-15.8h-0.1c-13.2,0.1-24.9,3.2-34.8,9.3l-6.6,4.1l-6.6-4.1&#10;&#9;&#9;c-9.9-6.1-21.6-9.3-34.7-9.3h-0.2c-16.7,0-31.5,5.6-41.7,15.8l0,0c-20.7,22.7-21.4,58.7-1.7,83.7v0c23.6,28.2,56.7,60.1,84.4,81.3&#10;&#9;&#9;c0,0,0.1,0,0.2,0.1c0.1,0,0.2,0,0.3,0c0.2,0,0.4-0.1,0.5-0.1c27.6-21.1,60.6-52.9,84.1-81l0.3-0.3&#10;&#9;&#9;C520.4,224.2,519.7,188.2,499,165.5z M492,179.3c1.2-0.7,2.7-0.4,3.5,0.8c3,4.7,5.1,9.8,6.4,15.3c0.3,1.3-0.5,2.7-1.8,3&#10;&#9;&#9;c-0.2,0-0.4,0.1-0.6,0.1c-1.1,0-2.2-0.8-2.4-1.9c-1.2-5-3.1-9.6-5.8-13.8C490.5,181.6,490.8,180,492,179.3z M465,164.3&#10;&#9;&#9;c0.3-1.4,1.6-2.2,2.9-2c5.8,1.1,11,3,15.6,5.8c1.2,0.7,1.6,2.3,0.8,3.4c-0.5,0.8-1.3,1.2-2.1,1.2c-0.4,0-0.9-0.1-1.3-0.4&#10;&#9;&#9;c-4.1-2.5-8.7-4.2-13.9-5.2C465.7,167,464.8,165.7,465,164.3z M348.1,168.2c4.6-2.8,9.8-4.8,15.6-5.9c1.4-0.3,2.7,0.6,2.9,2&#10;&#9;&#9;c0.3,1.4-0.6,2.7-2,2.9c-5.2,1-9.9,2.7-13.9,5.2c-0.4,0.2-0.9,0.4-1.3,0.4c-0.8,0-1.7-0.4-2.1-1.2&#10;&#9;&#9;C346.5,170.4,346.9,168.9,348.1,168.2z M329.7,195.4c1.3-5.5,3.5-10.6,6.4-15.3c0.7-1.2,2.3-1.5,3.5-0.8c1.2,0.7,1.5,2.3,0.8,3.5&#10;&#9;&#9;c-2.7,4.2-4.6,8.8-5.8,13.8c-0.3,1.1-1.3,1.9-2.4,1.9c-0.2,0-0.4,0-0.6-0.1C330.2,198.1,329.4,196.7,329.7,195.4z M335.3,229.4&#10;&#9;&#9;c-0.3,0.1-0.6,0.2-0.9,0.2c-1,0-1.9-0.6-2.3-1.6c-2-5.2-3.3-10.6-3.7-16.1c-0.1-1.4,0.9-2.6,2.3-2.7c1.4-0.1,2.6,0.9,2.7,2.3&#10;&#9;&#9;c0.4,5,1.5,10,3.3,14.7C337.3,227.5,336.6,228.9,335.3,229.4z M354.4,254.6c-0.5,0.4-1.1,0.6-1.7,0.6c-0.7,0-1.4-0.3-1.9-0.8&#10;&#9;&#9;c-3.7-4.1-7.2-8.1-10.5-12c-0.9-1.1-0.7-2.6,0.3-3.5c1.1-0.9,2.6-0.7,3.5,0.3c3.2,3.9,6.7,7.9,10.3,11.9&#10;&#9;&#9;C355.5,252.1,355.4,253.6,354.4,254.6z M376.4,277.4c-0.5,0.5-1.1,0.7-1.8,0.7c-0.6,0-1.3-0.2-1.8-0.7c-3.8-3.8-7.5-7.6-11.1-11.4&#10;&#9;&#9;c-1-1-0.9-2.6,0.1-3.5c1-1,2.6-0.9,3.5,0.1c3.6,3.7,7.3,7.5,11,11.3C377.4,274.8,377.4,276.4,376.4,277.4z M377.4,163.9&#10;&#9;&#9;c0.1-1.4,1.3-2.4,2.7-2.3c5.8,0.5,11.2,1.8,16.1,3.8c1.3,0.5,1.9,2,1.4,3.3c-0.4,1-1.3,1.5-2.3,1.5c-0.3,0-0.6-0.1-1-0.2&#10;&#9;&#9;c-4.4-1.8-9.3-3-14.6-3.5C378.3,166.5,377.3,165.3,377.4,163.9z M399.5,299.1c-0.5,0.6-1.2,0.8-1.9,0.8c-0.6,0-1.2-0.2-1.7-0.6&#10;&#9;&#9;c-3.9-3.5-7.8-7.1-11.7-10.8c-1-0.9-1.1-2.5-0.1-3.5c0.9-1,2.5-1.1,3.5-0.1c3.9,3.6,7.8,7.2,11.6,10.7&#10;&#9;&#9;C400.4,296.4,400.5,298,399.5,299.1z M423.6,309.7c-2.1,1.8-4.2,3.5-6.2,5.1c-0.5,0.4-1,0.6-1.6,0.6c-0.6,0-1.1-0.2-1.6-0.6&#10;&#9;&#9;c-2.1-1.7-4.2-3.4-6.2-5.1c-1.1-0.9-1.2-2.5-0.3-3.5c0.9-1.1,2.5-1.2,3.5-0.3c1.5,1.3,3,2.5,4.6,3.8c1.5-1.2,3-2.5,4.6-3.8&#10;&#9;&#9;c1.1-0.9,2.6-0.8,3.5,0.3C424.8,307.2,424.7,308.8,423.6,309.7z M423.9,177.7l-6.8,4.2c-0.4,0.3-0.9,0.4-1.3,0.4&#10;&#9;&#9;c-0.5,0-0.9-0.1-1.3-0.4l-6.8-4.2c-1.2-0.7-1.5-2.3-0.8-3.4c0.7-1.2,2.3-1.5,3.4-0.8l5.5,3.4l5.5-3.4c1.2-0.7,2.7-0.4,3.4,0.8&#10;&#9;&#9;C425.5,175.4,425.1,177,423.9,177.7z M447.4,288.5c-3.9,3.7-7.8,7.3-11.7,10.8c-0.5,0.4-1.1,0.6-1.7,0.6c-0.7,0-1.4-0.3-1.9-0.8&#10;&#9;&#9;c-0.9-1-0.8-2.6,0.2-3.5c3.9-3.4,7.8-7,11.6-10.7c1-0.9,2.6-0.9,3.5,0.1C448.4,285.9,448.4,287.5,447.4,288.5z M451.9,166.6&#10;&#9;&#9;c-5.3,0.5-10.2,1.6-14.6,3.5c-0.3,0.1-0.6,0.2-1,0.2c-1,0-1.9-0.6-2.3-1.5c-0.5-1.3,0.1-2.7,1.4-3.3c4.9-2,10.3-3.3,16.1-3.8&#10;&#9;&#9;c1.4-0.1,2.6,0.9,2.7,2.3C454.3,165.3,453.3,166.5,451.9,166.6z M470,266c-3.6,3.8-7.4,7.6-11.1,11.4c-0.5,0.5-1.1,0.7-1.8,0.7&#10;&#9;&#9;c-0.6,0-1.3-0.2-1.8-0.7c-1-1-1-2.6,0-3.5c3.7-3.7,7.5-7.5,11-11.3c1-1,2.5-1,3.5-0.1C470.9,263.4,470.9,265,470,266z M491.2,242.3&#10;&#9;&#9;c-3.3,3.9-6.8,7.9-10.5,12c-0.5,0.5-1.2,0.8-1.9,0.8c-0.6,0-1.2-0.2-1.7-0.6c-1-0.9-1.1-2.5-0.2-3.5c3.6-4.1,7.1-8.1,10.3-11.9&#10;&#9;&#9;c0.9-1.1,2.5-1.2,3.5-0.3C492,239.7,492.1,241.3,491.2,242.3z M499.6,228c-0.4,1-1.3,1.6-2.3,1.6c-0.3,0-0.6-0.1-0.9-0.2&#10;&#9;&#9;c-1.3-0.5-1.9-2-1.4-3.2c1.8-4.7,3-9.6,3.3-14.7c0.1-1.4,1.3-2.4,2.7-2.3c1.4,0.1,2.4,1.3,2.3,2.7&#10;&#9;&#9;C502.8,217.4,501.6,222.8,499.6,228z" style="fill: rgb(204, 204, 204); opacity: 1;" transform="matrix(1, 0, 0, 1, 0, 0)"/></svg>