<?xml version="1.0" encoding="utf-8"?>
<svg viewBox="459.1605529785156 537.4525146484375 164.00003051757812 242.5999755859375" width="164.00003051757812" height="242.5999755859375" xmlns="http://www.w3.org/2000/svg"><g transform="matrix(1, 0, 0, 1, 7.460544586181754, -47.74748611450195)">
		<path fill="#FFCE6D" d="M613.6,686.5c-1.4-6.6-5.4-6.6-10.1-4.1c1.9-3.2,2.5-6.6,1.3-8.8c-2.7-4.8-33.3-21.8-42.2-22.4&#10;&#9;&#9;&#9;c-8.8-0.7-21.1,16.3-24.5,22.4c-3.4,6.1-14.3,21.1-14.3,6.8s18.4-58.5,22.4-63.9c4.1-5.4,13.6-29.9,6.1-30.6&#10;&#9;&#9;&#9;c-7.5-0.7-12.9,13.6-12.9,13.6s-3.4-8.2-9.5-7.5c-6.1,0.7-11.6,15.6-11.6,15.6s-1.4-4.8-10.9-4.8c-9.5,0-27.2,33.3-36.7,46.2&#10;&#9;&#9;&#9;c-9.5,12.9-6.8,40.1-12.9,67.3c-6.1,27.2,9.5,87.1,15.8,99.3c6.3,12.2,52.2,5.4,67.8,0c15.6-5.4,27.2-29.2,29.9-50.3&#10;&#9;&#9;&#9;c2.7-21.1,12.9-28.6,17.7-40.8C593.9,712.4,615.7,696.5,613.6,686.5z M511.6,772.2c-23.1,0.7-25.2-24.8-22.4-24.5&#10;&#9;&#9;&#9;c6.8,0.7,1.8,11.8,18.4,12.2C524,760.5,534.7,771.6,511.6,772.2z M583,696.1c-8.2,2-25.8,25.8-27.9,23.7c-2-2.2-2-17.5-2.7-25.7&#10;&#9;&#9;&#9;c-0.7-8.2,7.5-15,13.6-17c6.1-2,17.7,13.6,26.5,12.9c0.1,0,0.1,0,0.2,0C589,692.8,585.5,695.4,583,696.1z" style="fill: rgb(204, 204, 204); opacity: 1;"/>
	</g></svg>