<?xml version="1.0" encoding="UTF-8"?>
<svg xmlns="http://www.w3.org/2000/svg" xmlns:xlink="http://www.w3.org/1999/xlink" width="2000" height="2000" viewBox="0 0 2000 2000">

<path fill-rule="evenodd" fill="rgb(99.609375%, 99.609375%, 99.609375%)" fill-opacity="1" d="M 1908.238281 1915.15625 L 1889.179688 1915.15625 C 1888.300781 1915.15625 1887.589844 1915.871094 1887.589844 1916.746094 L 1887.589844 1935.800781 C 1887.589844 1936.679688 1888.300781 1937.394531 1889.179688 1937.394531 L 1908.238281 1937.394531 C 1909.109375 1937.394531 1909.828125 1936.679688 1909.828125 1935.800781 L 1909.828125 1916.746094 C 1909.828125 1915.871094 1909.109375 1915.15625 1908.238281 1915.15625 "/>
<path fill-rule="evenodd" fill="rgb(99.609375%, 99.609375%, 99.609375%)" fill-opacity="1" d="M 1865.28125 1916.171875 L 1847.089844 1916.171875 C 1846.261719 1916.171875 1845.578125 1916.855469 1845.578125 1917.691406 L 1845.578125 1935.875 C 1845.578125 1936.710938 1846.261719 1937.394531 1847.089844 1937.394531 L 1865.28125 1937.394531 C 1866.109375 1937.394531 1866.800781 1936.710938 1866.800781 1935.875 L 1866.800781 1917.691406 C 1866.800781 1916.855469 1866.109375 1916.171875 1865.28125 1916.171875 "/>
<path fill-rule="evenodd" fill="rgb(99.609375%, 99.609375%, 99.609375%)" fill-opacity="1" d="M 1822.320312 1917.1875 L 1805.011719 1917.1875 C 1804.210938 1917.1875 1803.558594 1917.839844 1803.558594 1918.636719 L 1803.558594 1935.949219 C 1803.558594 1936.742188 1804.210938 1937.394531 1805.011719 1937.394531 L 1822.320312 1937.394531 C 1823.121094 1937.394531 1823.769531 1936.742188 1823.769531 1935.949219 L 1823.769531 1918.636719 C 1823.769531 1917.839844 1823.121094 1917.1875 1822.320312 1917.1875 "/>
<path fill-rule="evenodd" fill="rgb(99.609375%, 99.609375%, 99.609375%)" fill-opacity="1" d="M 1779.371094 1918.207031 L 1762.929688 1918.207031 C 1762.171875 1918.207031 1761.550781 1918.824219 1761.550781 1919.582031 L 1761.550781 1936.019531 C 1761.550781 1936.777344 1762.171875 1937.394531 1762.929688 1937.394531 L 1779.371094 1937.394531 C 1780.121094 1937.394531 1780.738281 1936.777344 1780.738281 1936.019531 L 1780.738281 1919.582031 C 1780.738281 1918.824219 1780.121094 1918.207031 1779.371094 1918.207031 "/>
<path fill-rule="evenodd" fill="rgb(99.609375%, 99.609375%, 99.609375%)" fill-opacity="1" d="M 1736.410156 1919.222656 L 1720.839844 1919.222656 C 1720.128906 1919.222656 1719.539062 1919.808594 1719.539062 1920.523438 L 1719.539062 1936.09375 C 1719.539062 1936.808594 1720.128906 1937.394531 1720.839844 1937.394531 L 1736.410156 1937.394531 C 1737.128906 1937.394531 1737.710938 1936.808594 1737.710938 1936.09375 L 1737.710938 1920.523438 C 1737.710938 1919.808594 1737.128906 1919.222656 1736.410156 1919.222656 "/>
<path fill-rule="evenodd" fill="rgb(99.609375%, 99.609375%, 99.609375%)" fill-opacity="1" d="M 1693.460938 1920.238281 L 1678.761719 1920.238281 C 1678.078125 1920.238281 1677.53125 1920.792969 1677.53125 1921.46875 L 1677.53125 1936.167969 C 1677.53125 1936.84375 1678.078125 1937.394531 1678.761719 1937.394531 L 1693.460938 1937.394531 C 1694.128906 1937.394531 1694.679688 1936.84375 1694.679688 1936.167969 L 1694.679688 1921.46875 C 1694.679688 1920.792969 1694.128906 1920.238281 1693.460938 1920.238281 "/>
<path fill-rule="evenodd" fill="rgb(99.609375%, 99.609375%, 99.609375%)" fill-opacity="1" d="M 1650.5 1921.257812 L 1636.671875 1921.257812 C 1636.039062 1921.257812 1635.519531 1921.777344 1635.519531 1922.414062 L 1635.519531 1936.238281 C 1635.519531 1936.875 1636.039062 1937.394531 1636.671875 1937.394531 L 1650.5 1937.394531 C 1651.140625 1937.394531 1651.648438 1936.875 1651.648438 1936.238281 L 1651.648438 1922.414062 C 1651.648438 1921.777344 1651.140625 1921.257812 1650.5 1921.257812 "/>
<path fill-rule="evenodd" fill="rgb(99.609375%, 99.609375%, 99.609375%)" fill-opacity="1" d="M 1607.539062 1922.273438 L 1594.589844 1922.273438 C 1593.988281 1922.273438 1593.511719 1922.761719 1593.511719 1923.355469 L 1593.511719 1936.3125 C 1593.511719 1936.90625 1593.988281 1937.394531 1594.589844 1937.394531 L 1607.539062 1937.394531 C 1608.140625 1937.394531 1608.628906 1936.90625 1608.628906 1936.3125 L 1608.628906 1923.355469 C 1608.628906 1922.761719 1608.140625 1922.273438 1607.539062 1922.273438 "/>
<path fill-rule="evenodd" fill="rgb(99.609375%, 99.609375%, 99.609375%)" fill-opacity="1" d="M 1564.589844 1923.292969 L 1552.5 1923.292969 C 1551.949219 1923.292969 1551.488281 1923.746094 1551.488281 1924.300781 L 1551.488281 1936.386719 C 1551.488281 1936.941406 1551.949219 1937.394531 1552.5 1937.394531 L 1564.589844 1937.394531 C 1565.140625 1937.394531 1565.601562 1936.941406 1565.601562 1936.386719 L 1565.601562 1924.300781 C 1565.601562 1923.746094 1565.140625 1923.292969 1564.589844 1923.292969 "/>
<path fill-rule="evenodd" fill="rgb(93.359375%, 93.75%, 93.359375%)" fill-opacity="1" d="M 164.949219 684.898438 L 505.808594 343.769531 C 561.097656 288.441406 651.609375 288.421875 706.933594 343.710938 C 748.1875 384.941406 758.6875 445.738281 738.445312 496.941406 L 997.105469 238.191406 C 1052.398438 182.871094 1142.898438 182.828125 1198.230469 238.128906 C 1247.140625 287.011719 1252.828125 363.410156 1215.289062 418.699219 L 1414.058594 219.871094 C 1469.359375 164.558594 1559.859375 164.519531 1615.191406 219.808594 C 1670.511719 275.101562 1670.550781 365.621094 1615.25 420.941406 L 1583.839844 452.351562 C 1637.859375 422.660156 1707.441406 430.609375 1753.089844 476.230469 C 1808.421875 531.53125 1808.460938 622.039062 1753.160156 677.359375 L 1628.449219 802.089844 C 1678.089844 785.421875 1735.269531 796.738281 1774.640625 836.089844 C 1829.96875 891.378906 1830 981.890625 1774.699219 1037.210938 L 1647.789062 1164.164062 C 1698.171875 1145.855469 1757.03125 1156.800781 1797.269531 1197.015625 C 1852.589844 1252.308594 1852.621094 1342.8125 1797.328125 1398.140625 L 1456.46875 1739.265625 C 1401.179688 1794.59375 1310.671875 1794.617188 1255.339844 1739.328125 C 1215.03125 1699.039062 1204.089844 1640.058594 1222.5 1589.609375 L 1031.96875 1780.203125 C 976.671875 1835.523438 886.171875 1835.558594 830.847656 1780.269531 C 791.4375 1740.882812 780.089844 1683.628906 796.804688 1633.953125 L 721.679688 1709.097656 C 666.378906 1764.414062 575.882812 1764.453125 520.554688 1709.160156 C 465.226562 1653.867188 465.1875 1563.351562 520.492188 1508.03125 L 526.050781 1502.472656 C 472.039062 1532.164062 402.441406 1524.21875 356.789062 1478.59375 C 301.460938 1423.300781 301.421875 1332.785156 356.726562 1277.46875 L 414.296875 1219.882812 C 359.050781 1257.273438 282.804688 1251.589844 233.964844 1202.777344 C 178.636719 1147.488281 178.601562 1056.972656 233.902344 1001.652344 L 317.972656 917.550781 C 266.847656 937.671875 206.1875 927.171875 165.011719 886.019531 C 109.683594 830.730469 109.660156 740.230469 164.949219 684.898438 "/>
<path fill-rule="evenodd" fill="rgb(93.359375%, 83.201599%, 56.054688%)" fill-opacity="1" d="M 822.863281 407.941406 C 779.363281 407.941406 743.769531 443.53125 743.769531 487.03125 C 743.769531 443.53125 708.179688 407.941406 664.679688 407.941406 C 708.179688 407.941406 743.769531 372.339844 743.769531 328.839844 C 743.769531 372.339844 779.363281 407.941406 822.863281 407.941406 "/>
<path fill="none" stroke-width="98.7619" stroke-linecap="butt" stroke-linejoin="round" stroke="rgb(22.75238%, 33.738708%, 55.271912%)" stroke-opacity="1" stroke-miterlimit="2.61313" d="M 8228.632812 15920.585938 C 7793.632812 15920.585938 7437.695312 15564.6875 7437.695312 15129.6875 C 7437.695312 15564.6875 7081.796875 15920.585938 6646.796875 15920.585938 C 7081.796875 15920.585938 7437.695312 16276.601562 7437.695312 16711.601562 C 7437.695312 16276.601562 7793.632812 15920.585938 8228.632812 15920.585938 Z M 8228.632812 15920.585938 " transform="matrix(0.1, 0, 0, -0.1, 0, 2000)"/>
<path fill-rule="evenodd" fill="rgb(71.679688%, 85.15625%, 95.701599%)" fill-opacity="1" d="M 1876.421875 1398.140625 C 1832.921875 1398.140625 1797.328125 1433.730469 1797.328125 1477.230469 C 1797.328125 1433.730469 1761.738281 1398.140625 1718.238281 1398.140625 C 1761.738281 1398.140625 1797.328125 1362.550781 1797.328125 1319.050781 C 1797.328125 1362.550781 1832.921875 1398.140625 1876.421875 1398.140625 "/>
<path fill="none" stroke-width="98.7619" stroke-linecap="butt" stroke-linejoin="round" stroke="rgb(22.75238%, 33.738708%, 55.271912%)" stroke-opacity="1" stroke-miterlimit="2.61313" d="M 18764.21875 6018.59375 C 18329.21875 6018.59375 17973.28125 5662.695312 17973.28125 5227.695312 C 17973.28125 5662.695312 17617.382812 6018.59375 17182.382812 6018.59375 C 17617.382812 6018.59375 17973.28125 6374.492188 17973.28125 6809.492188 C 17973.28125 6374.492188 18329.21875 6018.59375 18764.21875 6018.59375 Z M 18764.21875 6018.59375 " transform="matrix(0.1, 0, 0, -0.1, 0, 2000)"/>
<path fill-rule="evenodd" fill="rgb(84.764099%, 56.054688%, 58.789062%)" fill-opacity="1" d="M 1174.738281 1600.566406 C 1200.929688 1600.566406 1222.148438 1621.792969 1222.148438 1647.972656 C 1222.148438 1674.15625 1200.929688 1695.378906 1174.738281 1695.378906 C 1148.558594 1695.378906 1127.339844 1674.15625 1127.339844 1647.972656 C 1127.339844 1621.792969 1148.558594 1600.566406 1174.738281 1600.566406 "/>
<path fill="none" stroke-width="98.7619" stroke-linecap="butt" stroke-linejoin="round" stroke="rgb(22.75238%, 33.738708%, 55.271912%)" stroke-opacity="1" stroke-miterlimit="2.61313" d="M 11747.382812 3994.335938 C 12009.296875 3994.335938 12221.484375 3782.070312 12221.484375 3520.273438 C 12221.484375 3258.4375 12009.296875 3046.210938 11747.382812 3046.210938 C 11485.585938 3046.210938 11273.398438 3258.4375 11273.398438 3520.273438 C 11273.398438 3782.070312 11485.585938 3994.335938 11747.382812 3994.335938 Z M 11747.382812 3994.335938 " transform="matrix(0.1, 0, 0, -0.1, 0, 2000)"/>
<path fill-rule="evenodd" fill="rgb(84.764099%, 56.054688%, 58.789062%)" fill-opacity="1" d="M 311.078125 491.25 C 337.261719 491.25 358.484375 512.46875 358.484375 538.648438 C 358.484375 564.828125 337.261719 586.058594 311.078125 586.058594 C 284.898438 586.058594 263.675781 564.828125 263.675781 538.648438 C 263.675781 512.46875 284.898438 491.25 311.078125 491.25 "/>
<path fill="none" stroke-width="98.7619" stroke-linecap="butt" stroke-linejoin="round" stroke="rgb(22.75238%, 33.738708%, 55.271912%)" stroke-opacity="1" stroke-miterlimit="2.61313" d="M 3110.78125 15087.5 C 3372.617188 15087.5 3584.84375 14875.3125 3584.84375 14613.515625 C 3584.84375 14351.71875 3372.617188 14139.414062 3110.78125 14139.414062 C 2848.984375 14139.414062 2636.757812 14351.71875 2636.757812 14613.515625 C 2636.757812 14875.3125 2848.984375 15087.5 3110.78125 15087.5 Z M 3110.78125 15087.5 " transform="matrix(0.1, 0, 0, -0.1, 0, 2000)"/>
<path fill-rule="evenodd" fill="rgb(85.15625%, 58.396912%, 57.226562%)" fill-opacity="1" d="M 1608.78125 302.421875 C 1617.078125 302.421875 1623.871094 309.210938 1623.871094 317.511719 L 1623.871094 339.050781 L 1645.421875 339.050781 C 1653.710938 339.050781 1660.5 345.839844 1660.5 354.140625 C 1660.5 362.429688 1653.710938 369.21875 1645.421875 369.21875 L 1623.871094 369.21875 L 1623.871094 390.769531 C 1623.871094 399.070312 1617.078125 405.851562 1608.78125 405.851562 C 1600.488281 405.851562 1593.699219 399.070312 1593.699219 390.769531 L 1593.699219 369.21875 L 1572.148438 369.21875 C 1563.859375 369.21875 1557.070312 362.429688 1557.070312 354.140625 C 1557.070312 345.839844 1563.859375 339.050781 1572.148438 339.050781 L 1593.699219 339.050781 L 1593.699219 317.511719 C 1593.699219 309.210938 1600.488281 302.421875 1608.78125 302.421875 "/>
<path fill-rule="evenodd" fill="rgb(71.679688%, 85.15625%, 95.701599%)" fill-opacity="1" d="M 309.089844 1190.25 C 317.386719 1190.25 324.175781 1197.039062 324.175781 1205.335938 L 324.175781 1226.882812 L 345.722656 1226.882812 C 354.019531 1226.882812 360.808594 1233.671875 360.808594 1241.964844 C 360.808594 1250.261719 354.019531 1257.050781 345.722656 1257.050781 L 324.175781 1257.050781 L 324.175781 1278.597656 C 324.175781 1286.894531 317.386719 1293.683594 309.089844 1293.683594 C 300.796875 1293.683594 294.007812 1286.894531 294.007812 1278.597656 L 294.007812 1257.050781 L 272.460938 1257.050781 C 264.164062 1257.050781 257.375 1250.261719 257.375 1241.964844 C 257.375 1233.671875 264.164062 1226.882812 272.460938 1226.882812 L 294.007812 1226.882812 L 294.007812 1205.335938 C 294.007812 1197.039062 300.796875 1190.25 309.089844 1190.25 "/>
<path fill-rule="evenodd" fill="rgb(84.764099%, 56.054688%, 58.789062%)" fill-opacity="1" d="M 1746.421875 819.5 C 1767.699219 854.230469 1623.601562 854.230469 1644.878906 819.5 C 1703.910156 723.148438 1686.960938 722.449219 1746.421875 819.5 "/>
<path fill="none" stroke-width="98.7619" stroke-linecap="butt" stroke-linejoin="round" stroke="rgb(22.75238%, 33.738708%, 55.271912%)" stroke-opacity="1" stroke-miterlimit="2.61313" d="M 17464.21875 11805 C 17676.992188 11457.695312 16236.015625 11457.695312 16448.789062 11805 C 17039.101562 12768.515625 16869.609375 12775.507812 17464.21875 11805 Z M 17464.21875 11805 " transform="matrix(0.1, 0, 0, -0.1, 0, 2000)"/>
<path fill-rule="evenodd" fill="rgb(93.75%, 85.15625%, 54.101562%)" fill-opacity="1" d="M 500.003906 1577.886719 C 521.277344 1612.613281 377.179688 1612.613281 398.457031 1577.886719 C 457.488281 1481.53125 440.546875 1480.835938 500.003906 1577.886719 "/>
<path fill="none" stroke-width="98.7619" stroke-linecap="butt" stroke-linejoin="round" stroke="rgb(22.75238%, 33.738708%, 55.271912%)" stroke-opacity="1" stroke-miterlimit="2.61313" d="M 5000.039062 4221.132812 C 5212.773438 3873.867188 3771.796875 3873.867188 3984.570312 4221.132812 C 4574.882812 5184.6875 4405.46875 5191.640625 5000.039062 4221.132812 Z M 5000.039062 4221.132812 " transform="matrix(0.1, 0, 0, -0.1, 0, 2000)"/>
<path fill-rule="evenodd" fill="rgb(77.34375%, 77.34375%, 77.34375%)" fill-opacity="1" d="M 820.675781 705.148438 L 760.242188 705.148438 L 538.738281 1535.5 L 644.863281 1655.644531 L 1403.058594 1655.644531 L 1509.179688 1535.5 L 1287.679688 705.148438 L 1227.238281 705.148438 L 1227.238281 1317.75 C 1227.238281 1373.652344 1181.511719 1419.394531 1125.601562 1419.394531 L 922.320312 1419.394531 C 866.414062 1419.394531 820.675781 1373.652344 820.675781 1317.75 L 820.675781 705.148438 "/>
<path fill="none" stroke-width="379.999" stroke-linecap="round" stroke-linejoin="round" stroke="rgb(77.34375%, 77.34375%, 77.34375%)" stroke-opacity="1" stroke-miterlimit="22.9256" d="M 8206.757812 12948.515625 L 7602.421875 12948.515625 L 5387.382812 4645 L 6448.632812 3443.554688 L 14030.585938 3443.554688 L 15091.796875 4645 L 12876.796875 12948.515625 L 12272.382812 12948.515625 L 12272.382812 6822.5 C 12272.382812 6263.476562 11815.117188 5806.054688 11256.015625 5806.054688 L 9223.203125 5806.054688 C 8664.140625 5806.054688 8206.757812 6263.476562 8206.757812 6822.5 Z M 8206.757812 12948.515625 " transform="matrix(0.1, 0, 0, -0.1, 0, 2000)"/>
<path fill-rule="evenodd" fill="rgb(77.34375%, 77.34375%, 77.34375%)" fill-opacity="1" d="M 1227.238281 705.148438 L 820.675781 705.148438 L 820.675781 1317.75 C 820.675781 1373.652344 866.414062 1419.394531 922.320312 1419.394531 L 1125.601562 1419.394531 C 1181.511719 1419.394531 1227.238281 1373.652344 1227.238281 1317.75 L 1227.238281 705.148438 "/>
<path fill="none" stroke-width="379.999" stroke-linecap="round" stroke-linejoin="round" stroke="rgb(77.34375%, 77.34375%, 77.34375%)" stroke-opacity="1" stroke-miterlimit="22.9256" d="M 12272.382812 12948.515625 L 8206.757812 12948.515625 L 8206.757812 6822.5 C 8206.757812 6263.476562 8664.140625 5806.054688 9223.203125 5806.054688 L 11256.015625 5806.054688 C 11815.117188 5806.054688 12272.382812 6263.476562 12272.382812 6822.5 Z M 12272.382812 12948.515625 " transform="matrix(0.1, 0, 0, -0.1, 0, 2000)"/>
<path fill-rule="evenodd" fill="rgb(77.34375%, 77.34375%, 77.34375%)" fill-opacity="1" d="M 1023.960938 705.148438 L 859.136719 705.148438 L 859.136719 666.691406 C 859.136719 645.539062 876.441406 628.230469 897.59375 628.230469 L 1150.328125 628.230469 C 1171.480469 628.230469 1188.789062 645.539062 1188.789062 666.691406 L 1188.789062 705.148438 L 1023.960938 705.148438 "/>
<path fill="none" stroke-width="379.999" stroke-linecap="round" stroke-linejoin="round" stroke="rgb(77.34375%, 77.34375%, 77.34375%)" stroke-opacity="1" stroke-miterlimit="22.9256" d="M 10239.609375 12948.515625 L 8591.367188 12948.515625 L 8591.367188 13333.085938 C 8591.367188 13544.609375 8764.414062 13717.695312 8975.9375 13717.695312 L 11503.28125 13717.695312 C 11714.804688 13717.695312 11887.890625 13544.609375 11887.890625 13333.085938 L 11887.890625 12948.515625 Z M 10239.609375 12948.515625 " transform="matrix(0.1, 0, 0, -0.1, 0, 2000)"/>
<path fill-rule="evenodd" fill="rgb(77.34375%, 77.34375%, 77.34375%)" fill-opacity="1" d="M 1023.960938 628.230469 L 927.8125 628.230469 L 726.433594 368.121094 L 831.664062 224.410156 L 1216.261719 224.410156 L 1321.488281 368.121094 L 1120.109375 628.230469 L 1023.960938 628.230469 "/>
<path fill="none" stroke-width="379.999" stroke-linecap="round" stroke-linejoin="round" stroke="rgb(77.34375%, 77.34375%, 77.34375%)" stroke-opacity="1" stroke-miterlimit="22.9256" d="M 10239.609375 13717.695312 L 9278.125 13717.695312 L 7264.335938 16318.789062 L 8316.640625 17755.898438 L 12162.617188 17755.898438 L 13214.882812 16318.789062 L 11201.09375 13717.695312 Z M 10239.609375 13717.695312 " transform="matrix(0.1, 0, 0, -0.1, 0, 2000)"/>
<path fill-rule="evenodd" fill="rgb(94.53125%, 94.53125%, 94.53125%)" fill-opacity="1" d="M 796.675781 738.75 L 736.238281 738.75 L 514.738281 1569.101562 L 620.863281 1689.242188 L 999.960938 1689.242188 L 999.960938 1452.996094 L 898.316406 1452.996094 C 842.414062 1452.996094 796.675781 1407.257812 796.675781 1351.351562 L 796.675781 738.75 "/>
<path fill-rule="evenodd" fill="rgb(47.851562%, 46.679688%, 46.679688%)" fill-opacity="1" d="M 999.960938 738.75 L 796.675781 738.75 L 796.675781 1351.351562 C 796.675781 1407.257812 842.414062 1452.996094 898.316406 1452.996094 L 999.960938 1452.996094 L 999.960938 738.75 "/>
<path fill-rule="evenodd" fill="rgb(94.53125%, 94.53125%, 94.53125%)" fill-opacity="1" d="M 999.960938 738.75 L 835.136719 738.75 L 835.136719 700.289062 C 835.136719 679.140625 852.441406 661.839844 873.59375 661.839844 L 999.960938 661.839844 L 999.960938 738.75 "/>
<path fill-rule="evenodd" fill="rgb(47.851562%, 46.679688%, 46.679688%)" fill-opacity="1" d="M 999.960938 661.839844 L 903.8125 661.839844 L 702.433594 401.71875 L 807.664062 258.011719 L 999.960938 258.011719 L 999.960938 661.839844 "/>
<path fill-rule="evenodd" fill="rgb(85.546875%, 85.546875%, 85.15625%)" fill-opacity="1" d="M 999.960938 1689.242188 L 1379.058594 1689.242188 L 1485.179688 1569.101562 L 1263.679688 738.75 L 1203.238281 738.75 L 1203.238281 1351.351562 C 1203.238281 1407.257812 1157.511719 1452.996094 1101.601562 1452.996094 L 999.960938 1452.996094 L 999.960938 1689.242188 "/>
<path fill-rule="evenodd" fill="rgb(32.93457%, 32.93457%, 32.93457%)" fill-opacity="1" d="M 1203.238281 738.75 L 999.960938 738.75 L 999.960938 1452.996094 L 1101.601562 1452.996094 C 1157.511719 1452.996094 1203.238281 1407.257812 1203.238281 1351.351562 L 1203.238281 738.75 "/>
<path fill-rule="evenodd" fill="rgb(85.546875%, 85.546875%, 85.15625%)" fill-opacity="1" d="M 999.960938 661.839844 L 1126.328125 661.839844 C 1147.480469 661.839844 1164.78125 679.140625 1164.78125 700.289062 L 1164.78125 738.75 L 999.960938 738.75 L 999.960938 661.839844 "/>
<path fill-rule="evenodd" fill="rgb(32.93457%, 32.93457%, 32.93457%)" fill-opacity="1" d="M 999.960938 258.011719 L 1192.261719 258.011719 L 1297.488281 401.71875 L 1096.109375 661.839844 L 999.960938 661.839844 L 999.960938 258.011719 "/>
<path fill="none" stroke-width="229.999" stroke-linecap="round" stroke-linejoin="round" stroke="rgb(24.31488%, 27.050781%, 30.589294%)" stroke-opacity="1" stroke-miterlimit="22.9256" d="M 7966.757812 12612.5 L 7362.382812 12612.5 L 5147.382812 4308.984375 L 6208.632812 3107.578125 L 13790.585938 3107.578125 L 14851.796875 4308.984375 L 12636.796875 12612.5 L 12032.382812 12612.5 L 12032.382812 6486.484375 C 12032.382812 5927.421875 11575.117188 5470.039062 11016.015625 5470.039062 L 8983.164062 5470.039062 C 8424.140625 5470.039062 7966.757812 5927.421875 7966.757812 6486.484375 Z M 7966.757812 12612.5 " transform="matrix(0.1, 0, 0, -0.1, 0, 2000)"/>
<path fill="none" stroke-width="229.999" stroke-linecap="round" stroke-linejoin="round" stroke="rgb(24.31488%, 27.050781%, 30.589294%)" stroke-opacity="1" stroke-miterlimit="22.9256" d="M 12032.382812 12612.5 L 7966.757812 12612.5 L 7966.757812 6486.484375 C 7966.757812 5927.421875 8424.140625 5470.039062 8983.164062 5470.039062 L 11016.015625 5470.039062 C 11575.117188 5470.039062 12032.382812 5927.421875 12032.382812 6486.484375 Z M 12032.382812 12612.5 " transform="matrix(0.1, 0, 0, -0.1, 0, 2000)"/>
<path fill="none" stroke-width="229.999" stroke-linecap="round" stroke-linejoin="round" stroke="rgb(24.31488%, 27.050781%, 30.589294%)" stroke-opacity="1" stroke-miterlimit="22.9256" d="M 9999.609375 12612.5 L 8351.367188 12612.5 L 8351.367188 12997.109375 C 8351.367188 13208.59375 8524.414062 13381.601562 8735.9375 13381.601562 L 11263.28125 13381.601562 C 11474.804688 13381.601562 11647.8125 13208.59375 11647.8125 12997.109375 L 11647.8125 12612.5 Z M 9999.609375 12612.5 " transform="matrix(0.1, 0, 0, -0.1, 0, 2000)"/>
<path fill="none" stroke-width="229.999" stroke-linecap="round" stroke-linejoin="round" stroke="rgb(24.31488%, 27.050781%, 30.589294%)" stroke-opacity="1" stroke-miterlimit="22.9256" d="M 9999.609375 13381.601562 L 9038.125 13381.601562 L 7024.335938 15982.8125 L 8076.640625 17419.882812 L 11922.617188 17419.882812 L 12974.882812 15982.8125 L 10961.09375 13381.601562 Z M 9999.609375 13381.601562 " transform="matrix(0.1, 0, 0, -0.1, 0, 2000)"/>
</svg>
