<?xml version="1.0" encoding="utf-8"?>
<svg viewBox="175.29168701171875 404.1976623535156 79.20622253417969 78.99679565429688" width="79.20622253417969" height="78.99679565429688" xmlns="http://www.w3.org/2000/svg"><g transform="matrix(0.5235042572021484, 0, 0, 0.5235042572021484, 105.29914855957031, 0)">
		<path fill="#CCCCCC" d="M166.4,855.1c0.2,0.5,0.4,1,0.6,1.5v-0.2c0,0,0,0-0.1,0c0-0.2,0-0.3,0.1-0.4V854&#10;&#9;&#9;&#9;C166.5,854.2,166.4,854.6,166.4,855.1z"/>
		<path d="M 167 849.2000122070312 L 167 849.0999755859375 L 167 849.2000122070312 Z" fill="#CCCCCC"/>
		<path fill="#CCCCCC" d="M170.1,859.5c0,0.4,0.2,0.8,0.4,1.2h0.1v-1.4c-0.5,0-0.9-0.1-1.4-0.2c-0.5-0.1-0.8-0.2-1.1-0.3&#10;&#9;&#9;&#9;c-0.2-0.1-0.3-0.2-0.4-0.2c0.1,0.2,0.3,0.3,0.5,0.4c-0.3,0.1,0,0.5-0.5,0.5c0-0.4-0.3-0.7-0.5-1c0-0.1,0.1-0.2,0.2-0.3&#10;&#9;&#9;&#9;c0,0-0.1-0.1-0.1-0.1c0-0.1,0-0.2,0-0.2c-0.4-0.5-0.6-1.1-0.8-1.7c0,0.3-0.1,0.5-0.2,0.7c-0.4-0.6-0.4-1.3-0.3-2&#10;&#9;&#9;&#9;c-0.5-0.9-1.3-1.9-0.9-2.7c0.3,0.7,0.6,1.4,1,2.1c0-0.4,0-0.8-0.2-1.2c-0.1-0.2,0.6,0.1,0.5-0.2c-0.4-0.3,0.3-1.3-0.3-1.9&#10;&#9;&#9;&#9;c0.3,0,0.7,0,0.9,0v-0.5c0,0,0-0.1-0.1-0.1c0.1,0.3-0.2,0.3-0.4,0.3c0-0.3,0.1-0.7,0.1-1.1c-0.1,0-0.1,0-0.2,0&#10;&#9;&#9;&#9;c0-0.1,0-0.3,0.1-0.3c0,0,0.1,0,0.1,0c0.1-1.1,0.2-2.3,0.4-3.6v-9.3h2.2c0-0.1-0.2-0.2-0.1-0.4c0.3,0,0.4,0.1,0.5,0.2&#10;&#9;&#9;&#9;c-0.2,0-0.3,0-0.3,0.1h0.7c0.2-0.6,0.5-1.1,0.8-1.7h-2.9c0.2,0.1,0.3,0.3,0.3,0.6c-0.5,0-0.5-0.3-0.6-0.6H163c0,0.1,0,0.2-0.1,0.2&#10;&#9;&#9;&#9;c0-0.1,0-0.2-0.1-0.2h-1.7c0,0.1,0,0.2,0,0.3c0,0.1-0.1,0.1-0.3,0.1c0-0.1-0.1-0.2-0.1-0.3h-4.2v1.4c0.3,0,0.7,0.1,1.3,0.2&#10;&#9;&#9;&#9;c0.6,0.1,1,0.3,1.4,0.4c0.5,0.2,0.8,0.5,0.9,0.8c0.2,0.3,0.2,0.7,0.2,1.1v18.3c0,0.5-0.1,0.9-0.3,1.2c-0.2,0.3-0.5,0.5-0.9,0.7&#10;&#9;&#9;&#9;c-0.2,0.1-0.6,0.2-1.2,0.2c-0.5,0.1-0.9,0.1-1.2,0.1c0.1,0,0.1,0.1,0.1,0.1c-0.1,0-0.2,0.1-0.3,0.1v1.2h11.5c0,0,0.1-0.1,0.2-0.1&#10;&#9;&#9;&#9;c0,0,0.1,0.1,0.1,0.1h1.5c-0.1-0.4-0.2-0.8-0.3-1.1C169.9,859.6,169.9,859.4,170.1,859.5z M159.3,859.8c-0.2,0-0.4,0-0.5-0.1&#10;&#9;&#9;&#9;c0-0.2,0.2-0.3,0.5-0.2C159.3,859.6,159.3,859.7,159.3,859.8z M164.8,849.4c-0.1-0.3,0.3-0.4,0.4-0.7c0,0.2,0.4,0.6-0.1,0.7&#10;&#9;&#9;&#9;C165.1,849.4,165,849.4,164.8,849.4z M164.7,848.4c0.2-0.6-0.3-1.5,0.1-2c0.3,0.6,0.2,1.1,0.4,1.9&#10;&#9;&#9;&#9;C164.8,848.2,164.9,848.4,164.7,848.4z M164.7,851.9c-0.1-0.8-0.9-1.1-0.8-2C164.8,850,165,851.5,164.7,851.9z M165.8,851.6&#10;&#9;&#9;&#9;c-0.1,0.2,0.2,0.7-0.1,0.8C165.6,852.2,165.3,851.8,165.8,851.6z M165.4,850c0-0.1-0.1-0.1-0.3-0.1c0-0.2,0.2-0.3,0.4-0.3&#10;&#9;&#9;&#9;C165.5,849.7,165.7,850,165.4,850z M165.1,841.3c-0.6,0.6,0.1,1.3,0.1,2c-0.4-0.1-1,0.2-0.7,0.2c0.2-0.1,0.9,0.2,1,0.5&#10;&#9;&#9;&#9;c-0.2,0-1-0.2-1.4,0.1c-0.1-1.1-0.7-2.4-0.5-3.7c-0.4-0.1-0.3-0.4,0.1-0.4C164.2,840.5,164.4,841.1,165.1,841.3z M163.6,839.9&#10;&#9;&#9;&#9;c-0.1-0.2-0.4-0.4-0.3-0.7c0.1,0,0.3,0,0.4,0C163.7,839.3,163.9,839.8,163.6,839.9z M163.4,835.9c-0.3,1.1,0.6,2.1,0,2.9&#10;&#9;&#9;&#9;C163.5,837.9,162.5,836.8,163.4,835.9z M162.5,838.7c-0.1,0.2-0.8,0.1-0.8,0.4c0.2,0.3,0,0.7,0.5,0.9c-0.8,0.1,0.1,0.8-0.5,1&#10;&#9;&#9;&#9;c-0.5-0.3,0.1-0.8-0.7-1c0.9-0.5-0.6-1.9,0.3-2.5c0.3,0.2,0.5,0.6,0.4,1.1C162,838.6,162.7,838.4,162.5,838.7z M161.5,835.3&#10;&#9;&#9;&#9;c-0.2,0.4,0.4,1.8-0.3,2c-0.5-0.4,0-1.5-0.7-1.8C160.6,835.3,161,835.3,161.5,835.3z M160.4,836.7c-0.1,0-0.2,0-0.3,0&#10;&#9;&#9;&#9;c0,0,0-0.1-0.1-0.1c0-0.1,0-0.1,0-0.2c0.1,0,0.2,0,0.1-0.1c0.1,0,0.2,0,0.3,0c0,0,0,0.1,0.1,0.1c0,0.1,0,0.1,0,0.2&#10;&#9;&#9;&#9;C160.4,836.6,160.3,836.6,160.4,836.7z M159.7,860.4C159.4,859,161.8,860.5,159.7,860.4L159.7,860.4z M160.6,858.7&#10;&#9;&#9;&#9;c0.3,0,0.4-0.1,0.8-0.1C161.6,859,160.6,859,160.6,858.7z M161.9,841.2c0.6,0.3,0.2,0.6,0.3,1.2c0.8,2.3,1.3,4.9,2,7.3&#10;&#9;&#9;&#9;c0,0.1-0.1,0.1-0.3,0.1c-0.4-1.1-1.3-2.6-1-3.6c-0.2-0.1-0.4-0.3-0.5-0.6C162.6,844,161.3,842.6,161.9,841.2z M162.1,858.7&#10;&#9;&#9;&#9;c0-0.2,0.2-0.3,0.5-0.2C162.8,858.8,162.4,858.9,162.1,858.7z M162.9,860c-0.2-0.3-0.5-0.8,0.1-0.9c0.1,0.2,0.3,0.4,0.3,0.7&#10;&#9;&#9;&#9;C163.2,859.9,163.1,860,162.9,860z M165.3,854.3c-0.7,0.3-1-0.1-1.5-0.1c0-0.2,0-0.3,0.1-0.4c0.4,0.2,1-0.2,1.4,0.1&#10;&#9;&#9;&#9;C164.9,853.9,165.2,854.3,165.3,854.3z M165.7,858.7c0.2-0.7,0.2-1.5,1-2C166.4,857.5,166.4,858.3,165.7,858.7z M167,857.9&#10;&#9;&#9;&#9;c-0.4,0.4,0.2,1.2-0.3,1.3C166.6,859,166.3,857.9,167,857.9z M166.9,860.6c0-0.2-0.2-0.3-0.3-0.6c0.6-0.1-0.2-0.6,0.4-0.7&#10;&#9;&#9;&#9;C167.1,859.7,167.4,860.3,166.9,860.6z M168,860.2c0.1-0.3-0.2-0.4-0.1-0.7C168.4,859.4,168.3,860.1,168,860.2z"/>
		<path fill="#CCCCCC" d="M166.9,849.6C166.9,849.6,166.9,849.6,166.9,849.6L166.9,849.6C166.9,849.5,166.9,849.5,166.9,849.6&#10;&#9;&#9;&#9;C166.9,849.5,166.9,849.6,166.9,849.6z"/>
		<path fill="#CCCCCC" d="M166.7,853.6c0.1,0,0.1,0,0.2,0v-2C166.6,852.2,166.5,852.8,166.7,853.6z"/>
		<path fill="#CCCCCC" d="M170.4,836.4h0.6c0.5,0,1.1,0,1.7,0.1c0.6,0,1.1,0.1,1.5,0.1c0.8,0.1,1.6,0.7,2.5,1.9&#10;&#9;&#9;&#9;c0.3,0.4,0.6,0.8,0.8,1.2c0.1,0,0.2,0,0.2,0c0,0.1-0.1,0.1-0.2,0.1c0.4,0.6,0.7,1.3,0.9,1.9h1.4v-3.5c-0.1,0-0.2,0.1-0.3,0.1&#10;&#9;&#9;&#9;c0-0.1,0-0.2,0-0.3c0.1,0,0.2,0,0.3,0v-3.2H171c-0.1,0.1-0.2,0.3-0.2,0.4C170.7,835.5,170.5,836,170.4,836.4z M172,835.3&#10;&#9;&#9;&#9;c-0.4,0.2-1.2,0.1-1.1-0.4C171.5,834.9,171.6,835.2,172,835.3z"/>
		<path fill="#CCCCCC" d="M169.5,848.2c0.4,0,0.8,0,1.2,0.1c0.2-0.2,0.5-0.3,0.9-0.3c0,0.3-0.5,0.2-0.8,0.3c0.2,0,0.5,0.1,0.7,0.2&#10;&#9;&#9;&#9;c0.5,0.2,1,0.5,1.4,0.9c0.2,0.3,0.5,0.8,0.8,1.6c0.3,0.8,0.5,1.5,0.6,2h1.4V842h-1.4c-0.1,0.5-0.2,1.1-0.5,1.8&#10;&#9;&#9;&#9;c-0.3,0.7-0.6,1.2-0.9,1.5c-0.4,0.4-0.9,0.7-1.4,0.9c-0.5,0.2-1.2,0.2-1.9,0.2h-2.2c-0.1,0.6-0.2,1.1-0.3,1.7H169.5z"/>
		<path fill="#CCCCCC" d="M196.2,835c-0.1-0.1-0.2-0.2-0.2-0.2h-3.8c0.3,0.3-0.3,0.9,0.2,1.3c-0.5-0.2-0.9-0.8-1-1.3h-0.6&#10;&#9;&#9;&#9;c0,0.1-0.1,0.1-0.3,0.1c0,0,0-0.1,0-0.1h-8.7v1.4c0.3,0,0.7,0.1,1.2,0.2c0.5,0.1,1,0.2,1.4,0.4c0.5,0.2,0.8,0.5,1,0.8&#10;&#9;&#9;&#9;c0.1,0.3,0.2,0.7,0.2,1.1v18.3c0,0.5-0.1,0.8-0.2,1.1c-0.2,0.3-0.5,0.5-0.9,0.7l0,0c0,0.1,0,0.3,0,0.4c-0.2,0-0.4,0-0.4-0.1&#10;&#9;&#9;&#9;c0.2,0,0.2-0.2,0.2-0.3c-0.2,0.1-0.6,0.1-1,0.2c-0.5,0.1-1,0.1-1.3,0.1c0,0.1,0.1,0.4-0.1,0.6v0.8h3.9c0.1-0.1,0.2-0.1,0.2-0.3&#10;&#9;&#9;&#9;c0.2,0,0.5,0,0.5,0.1c-0.1,0.1-0.2,0.1-0.4,0.2h1.9c0-0.2,0.1-0.3,0.1-0.5c-0.1-0.1-0.5,0-0.5-0.2c0.7-0.1,1-0.5,1.1-1&#10;&#9;&#9;&#9;c0.5-0.1,0.2,0.3,0.5,0.3c-0.1-0.2,0.1-0.3,0.1-0.5c-0.4,0-0.6-0.1-0.7-0.3c0.5-0.3,0.3-1.2,1.1-1.4c0.3,1-0.8,1.5,0.8,1.8&#10;&#9;&#9;&#9;c0.1,0.5-0.8,0.5-0.7,1c0.3,0.1,0.2,0,0.5,0c0,0.2-0.1,0.5-0.1,0.7h0.8c0.2-0.7-0.4-1.4,0.5-2.1c0.4,0.1-0.2,0.4,0.1,0.5&#10;&#9;&#9;&#9;c0.4-0.1,0.4-0.4,0.5-0.7c0.1,0,0.2,0,0.3,0c-0.1-0.1-0.2-0.2-0.3-0.4c-0.2-0.3-0.2-0.7-0.2-1.1v-2.1c-0.1,0.1-0.1,0.2-0.2,0.3&#10;&#9;&#9;&#9;c-0.8-0.2,0-0.4,0-0.7c-0.1-0.6,0-1.2,0.2-1.8v-2.6c-0.2,0.7-0.3,1.4-0.6,2c-0.5,0.1-0.8,0-1.2,0.1c0-0.4,0.3-0.5,0.4-0.8&#10;&#9;&#9;&#9;c0.5-0.1,0.1,0.3,0.4,0.2c0.1-0.5,0.5-1.1,0.1-1.4c0,0.1,0,0.3-0.3,0.2c-0.7-1,1.1-1.6,0.8-2.7c0.3-0.1,0.4,0,0.5-0.1&#10;&#9;&#9;&#9;c-0.1-0.1,0-0.2,0.1-0.3h-0.2c0,0.1,0,0.2-0.2,0.2c-0.1-0.2,0-0.5,0-0.7v-10.3h1.4c0.8,0,1.5,0.1,2.2,0.3c0.2-0.5,0.5-1,0.8-1.4&#10;&#9;&#9;&#9;c0.1,0,0.3,0,0.4,0c-0.1,0.6-0.2,1.2-0.4,1.7c0.4,0.2,0.8,0.4,1.1,0.7c1,0.8,1.5,2.1,1.5,3.8c0,2-0.5,3.5-1.5,4.5&#10;&#9;&#9;&#9;c-0.9,0.8-2,1.2-3.5,1.4c-0.2,0.7-0.5,1.4-0.8,2.1c0.1,0.1,0.2,0.3,0.3,0.4c0-0.1,0.1-0.1,0.2-0.2c0.5,0,1,0,1.4-0.1&#10;&#9;&#9;&#9;c0.4,0.5-0.3,1-0.7,1.3c-0.3-0.3,0.2-0.5-0.1-0.7c-0.1,0.1-0.2,0.1-0.2,0.2c0.2,0.2,0.3,0.4,0.5,0.6c0,0,0,0,0,0c0,0,0,0,0,0&#10;&#9;&#9;&#9;c1,1.3,1.9,2.5,2.7,3.5c0.6,0.8,1.2,1.7,2,2.8c0.3-0.2,0.5-0.4,0.8-0.6c1.3-1.2,2.6-2.4,4-3.5c-0.4-0.5-0.8-1-1.2-1.5&#10;&#9;&#9;&#9;c-1.1-1.4-2.1-2.7-2.9-3.7c2.1-0.6,3.7-1.5,4.8-2.6c1-1.1,1.6-2.6,1.6-4.4c0-1.5-0.5-2.7-1.3-3.6c-0.6,1.7-1.4,3.3-2.4,4.8&#10;&#9;&#9;&#9;c0.5-1.8,1.3-3.5,2-5.2c-0.2-0.2-0.5-0.4-0.8-0.6c-1.6-1-4-1.5-7.2-1.5C196.5,834.8,196.4,834.9,196.2,835z M182.6,836&#10;&#9;&#9;&#9;c0.2-0.1,0.9-0.3,1-0.2C183.3,835.8,182.7,836.4,182.6,836z M186.8,834.8c-0.1,0.3-0.3,0.5-0.9,0.4&#10;&#9;&#9;&#9;C186,834.9,186.2,834.8,186.8,834.8z M185.8,855.5c0.1-0.2,0.1-0.3,0.4-0.4C186.2,855.3,186.2,855.5,185.8,855.5z M186.3,855&#10;&#9;&#9;&#9;c0-0.3,0.1-0.6,0.7-0.6C187,854.7,186.7,854.9,186.3,855z M186.7,860.4c0-0.2,0.1-0.5,0.5-0.4&#10;&#9;&#9;&#9;C187.2,860.1,187.1,860.3,186.7,860.4z M186.6,836c0.2-0.1,0-0.5,0.3-0.6c0.1,0.1,0.3,0.1,0.5,0.2&#10;&#9;&#9;&#9;C187.5,835.9,186.9,836.2,186.6,836z M187.5,853.7c0-0.5,0.6-0.8,1-1.1C188.4,853.2,188.1,853.5,187.5,853.7z M187.8,844.4&#10;&#9;&#9;&#9;c0.1-0.2,0.1-0.4,0.3-0.6C188,844,188.3,844.5,187.8,844.4z M188.5,848.3c0-0.1,0-0.2,0-0.3C189,847.9,189,848.3,188.5,848.3z&#10;&#9;&#9;&#9; M188.9,836.6c-0.6,0-0.7,0.3-1.4,0.3c0.2-0.5,0.8-0.7,1-1.1c-0.7,0-0.9-0.2-1-0.6c0.8,0,1.1-0.1,1.8,0.1&#10;&#9;&#9;&#9;C189.3,835.8,189,836.1,188.9,836.6z M189.4,838.6c0.1-0.3,0.3-0.4,0.4-0.7C190.1,838.2,189.8,838.6,189.4,838.6z M191.9,855.5&#10;&#9;&#9;&#9;c0.3,0.4,0.1,1-0.1,1.4C191.6,856.3,191.6,855.9,191.9,855.5z M191.7,857.4c0,0.3,0,0.6-0.3,0.7&#10;&#9;&#9;&#9;C191.6,857.9,191.2,857.4,191.7,857.4z M190.9,852.3c0,0,0-0.1,0.1-0.1c0,0.2,0.2,0.3,0.4,0.3c-0.1,0.3-0.7,0.7-0.1,0.9&#10;&#9;&#9;&#9;c-1.4,0.6-0.4,2-1.4,2.8c-0.1-0.2-0.2-0.4-0.3-0.6c1-1.1-0.5-2,0.4-3.2C190.2,852.3,190.9,852.5,190.9,852.3z M190.8,836.4&#10;&#9;&#9;&#9;c-0.7,0.1-0.6,0-1.1-0.1c-0.2-0.4,0.8-0.6,1.2-0.4C190.6,835.9,190.9,836.2,190.8,836.4z M196.5,848.8c-0.1-0.4,0.4-0.4,0.7-0.6&#10;&#9;&#9;&#9;C197.1,848.6,197,848.8,196.5,848.8z M197.4,850.6c-0.1-0.4,0.2-0.5,0.4-0.7C198,850.1,197.8,850.5,197.4,850.6z M198.9,849&#10;&#9;&#9;&#9;c-0.5,0-0.4,0.2-0.7,0.3c-0.2-0.5-0.1-1,0.7-1.1C199.2,848.6,198.6,848.6,198.9,849z M201.4,854.1c0.1,0.2-0.1,0.7-0.5,0.8&#10;&#9;&#9;&#9;C200.5,854.6,200.8,854.1,201.4,854.1z M202.5,842.1c-0.2,0.7-0.5,1.2-1.1,1.6C201.6,843.2,201.6,842.4,202.5,842.1z M200.4,839.9&#10;&#9;&#9;&#9;c0.4-0.1,0.2,0.2,0.3,0.3c-0.4-0.2-0.2,0.5-0.4,0.2C200.3,840.2,200.5,840.2,200.4,839.9z M201.1,844.4c0,0.3-0.2,1.2-0.9,1.3&#10;&#9;&#9;&#9;C200.4,845.3,200.5,844.7,201.1,844.4z M199.9,846.6c0,0.2,0,0.4-0.4,0.4C199.5,846.8,199.6,846.6,199.9,846.6z"/>
		<path fill="#CCCCCC" d="M193.4,847.2H193c-0.1,0.5-0.1,1-0.1,1.5c-0.1,0.1-0.2,0.2-0.2,0.3h0.3c0.3-0.6,0.6-1.2,0.8-1.7&#10;&#9;&#9;&#9;C193.6,847.2,193.5,847.2,193.4,847.2z"/>
		<path fill="#CCCCCC" d="M189.3,860.2c0,0.1-0.2,0.1-0.3,0.2c0,0,0,0,0,0c0,0,0,0,0,0c-0.2,0.1-0.4,0.1-0.5,0.2c0,0,0,0.1,0,0.1&#10;&#9;&#9;&#9;h0.9C189.3,860.5,189.3,860.3,189.3,860.2z"/>
		<path fill="#CCCCCC" d="M191.5,860.6h4.1v-1.4c-0.4,0-0.8-0.1-1.3-0.2c-0.5-0.1-0.9-0.2-1.1-0.3c0,0,0,0-0.1,0&#10;&#9;&#9;&#9;c-0.1,0-0.1,0.1-0.2,0.1C192.7,859.4,191.9,860,191.5,860.6z"/>
		<path fill="#CCCCCC" d="M181.8,859.2L181.8,859.2C181.8,859.2,181.8,859.2,181.8,859.2C181.8,859.2,181.8,859.2,181.8,859.2z"/>
		<path fill="#CCCCCC" d="M199.5,857.4C199.5,857.4,199.5,857.4,199.5,857.4c0.6,1,1.3,2,2.1,3.2h8.7c0.2-0.4,0.4-0.9,1.3-1v-0.5&#10;&#9;&#9;&#9;c-0.2,0-0.5,0-0.9-0.1c-0.4-0.1-0.8-0.1-1.1-0.2c-0.5-0.2-1.1-0.6-1.7-1.3c-0.7-0.7-1.2-1.3-1.5-1.7c-0.7-0.9-1.4-1.7-2-2.6&#10;&#9;&#9;&#9;c-0.2,0.3-0.5,0.5-0.7,0.8C202.1,855.1,200.8,856.2,199.5,857.4z"/>
		<path fill="#CCCCCC" d="M210.7,860.6h0.8v-0.9C211.4,860.1,211.1,860.4,210.7,860.6z"/>
		<path fill="#CCCCCC" d="M233.6,859.3c0,0.2,0.5,0.1,0.4,0.3c-0.1,0.3-0.3,0.6-0.3,1h2.2l0.1-0.8c-0.6,0-1.2,0-1.7-0.1&#10;&#9;&#9;&#9;c0.3-0.4,1.1-0.3,1.7-0.2l0.2-4.1c-0.7-0.1-1.3-0.2-1.9-0.3C234,856.5,233.8,857.9,233.6,859.3z"/>
		<path fill="#CCCCCC" d="M221.7,856.6c0.1,0,0.1-0.1,0.2-0.1c0-0.2,0-0.4,0-0.6C221.9,856.2,221.3,856.4,221.7,856.6z"/>
		<path fill="#CCCCCC" d="M218.8,860.6L218.8,860.6C218.8,860.6,218.8,860.6,218.8,860.6C218.8,860.6,218.8,860.6,218.8,860.6z"/>
		<path fill="#CCCCCC" d="M215.2,860.6h2.7c0.4-0.5,0.7-0.9,0.7-1.4C217.1,859.4,216.3,860.1,215.2,860.6z"/>
		<path fill="#CCCCCC" d="M236.2,855.3l0.2-2.7H235c0,0.1-0.1,0.2-0.1,0.3c-0.2,0.6-0.4,1.3-0.5,2&#10;&#9;&#9;&#9;C235,854.9,235.6,855.1,236.2,855.3z"/>
		<path fill="#CCCCCC" d="M233.6,855.3c-0.4,0.6-0.7,1.1-1,1.6c0,0,0,0,0,0c0,0.1-0.2,0.3-0.3,0.4c-0.2,0.3-0.4,0.6-0.6,0.8&#10;&#9;&#9;&#9;c-0.2,0.2-0.6,0.4-1,0.5c0,0,0,0,0,0c0,0.1,0,0.2,0.1,0.3c-0.2,0-0.3-0.1-0.4-0.3c-0.4,0.1-0.7,0.2-1.1,0.2&#10;&#9;&#9;&#9;c-0.5,0.1-1,0.1-1.6,0.1c-0.6,0-1.1,0-1.5,0c-0.5,0-0.9,0-1.2,0c0,0,0,0,0,0c0,0,0,0,0,0c-0.4,0-0.7,0-0.9-0.1&#10;&#9;&#9;&#9;c-0.4-0.1-0.8-0.2-1-0.3c-0.4,0.3-0.9,0.6-1.3,0.9c0.3-0.4,0.6-0.7,1-1.1c-0.3-0.2-0.5-0.6-0.6-1c0-0.1,0-0.1,0-0.2&#10;&#9;&#9;&#9;c-0.3,0.1-0.5,0.2-0.8,0.4c-0.7,1-1.5,2-2.3,3c0,0,0,0.1,0,0.1H229c0-0.1,0-0.1,0-0.2c0.1,0,0.3,0,0.4,0c0,0.1,0,0.1-0.1,0.2h3.6&#10;&#9;&#9;&#9;c0.2-1.8,0.4-3.7,0.6-5.5C233.7,855.1,233.6,855.2,233.6,855.3z M222.8,860.2c0-0.3-0.2-0.4,0.1-0.7&#10;&#9;&#9;&#9;C223.1,859.8,223.1,860,222.8,860.2z M226.6,859.9c-0.1-0.1-0.2-0.2-0.4-0.2c-0.1-0.5,0.9-0.4,1.1-0.1&#10;&#9;&#9;&#9;C227.2,859.8,226.7,859.8,226.6,859.9z M231.2,859.8c-0.4,0-1.5,0-1-0.2c0.1,0.4,0.7-0.1,1-0.1&#10;&#9;&#9;&#9;C231.2,859.6,231.2,859.7,231.2,859.8z"/>
		<path fill="#CCCCCC" d="M214.8,859.9c0.3-0.1,0.6,0,0.7-0.1c0.8-0.6,2.1-0.8,2.7-1.4c-0.1-0.3-0.1-0.7,0.3-0.7&#10;&#9;&#9;&#9;c-0.1,0.1,0,0.3,0,0.4c1.9-0.2,2-1.9,3.4-2.1c0-0.2,0-0.3,0-0.5V848h2.7c0.7,0,1.4,0.1,1.9,0.2c0.5,0.2,1,0.5,1.4,0.9&#10;&#9;&#9;&#9;c0.3,0.3,0.5,0.8,0.8,1.6c0.2,0.6,0.4,1.1,0.5,1.5c0-0.1,0.1-0.2,0.2-0.3c0.1,0.2,0.1,0.4,0.2,0.7h0.1c0.3-0.2,0.7-0.3,1.1-0.4&#10;&#9;&#9;&#9;v-5.6c-0.1,0.1-0.4,0.4-0.6,0.1c0.1,0,0.2-0.1,0.1-0.2c0.2,0.1,0.4-0.1,0.5-0.1v-3.2c-0.4,0.2-0.9,0.4-1.3,0.2&#10;&#9;&#9;&#9;c0.3,0,0.9-0.2,1.3-0.3v-1.4h-1.4c-0.1,0.5-0.3,1.1-0.6,1.8c0,0,0,0,0,0.1c0.1,0,0.3,0,0.4,0.1c-0.2,0-0.3,0.1-0.5,0.1&#10;&#9;&#9;&#9;c-0.1,0.3-0.3,0.6-0.4,0.8c0.1-0.1,0.3-0.2,0.8-0.1c-0.4,0.1,0.2,0.2,0,0.4c-0.3,0-0.6,0.1-0.7,0.2c0.3,0.1,0.8,0.1,0.8,0.3&#10;&#9;&#9;&#9;c-0.6,0-0.7,0.4-1.2,0.2c0.2-0.3,0.1-0.7,0.2-1c-0.1,0.1-0.1,0.2-0.2,0.3c-0.3,0.3-0.6,0.5-0.9,0.7c0.1,0,0.3,0,0.4,0&#10;&#9;&#9;&#9;c0,0.2-0.2,0.2-0.1,0.3c-0.2,0-0.5,0-0.7,0c0-0.1,0-0.1,0-0.2c-0.1,0-0.1,0.1-0.2,0.1c-0.5,0.2-1.2,0.2-1.8,0.2h-2.7v0&#10;&#9;&#9;&#9;c-0.7,0.4-1.2,0.8-1.6,1.4c0.3-0.9,1-1.5,1.6-2.1v-8.3c-0.1,0.1-0.2,0.1-0.4,0.2c0-0.1,0.1-0.1,0.1-0.2c-1,0.6-1.4,1.7-2.7,2.1&#10;&#9;&#9;&#9;c0-0.6,0.9-0.9,1.4-1.4c0.5-0.5,1-1.3,1.6-1.5v-0.2h0.2c0.5-0.6,1-1.1,1.6-1.7h-3.1c0.1,0.1,0.1,0.3-0.1,0.3&#10;&#9;&#9;&#9;c0-0.2-0.3-0.2-0.4-0.3h-8.4v1.4c0.3,0,0.7,0.1,1.3,0.2c0.6,0.1,1,0.3,1.3,0.4c0.5,0.2,0.8,0.5,1,0.8c0.1,0.3,0.2,0.6,0.2,1.1v4&#10;&#9;&#9;&#9;c0.8-0.7,1.5-1.5,2.2-2.3c0-0.3-0.7-0.1-0.7-0.4c0.2-0.3,0-0.9,0.7-0.9c0.4,0.2-0.3,0.7,0.3,0.9c0.2-0.3,0.7-0.3,1.1-0.4&#10;&#9;&#9;&#9;c0.1,1.2-1.5,1.5-2.3,2.2c0.2,0.1,0.2,0.3,0.1,0.5c-0.2,0.1-0.4,0.2-0.6,0.3c0,0.3,0.1,0.8-0.1,0.6c0-0.1,0-0.4,0-0.6&#10;&#9;&#9;&#9;c-0.3,0.2-0.5,0.4-0.4,0.7c0,0.1-0.1,0.1-0.3,0.1v13.5c0,0.5-0.1,0.8-0.2,1.1c-0.2,0.3-0.5,0.5-0.9,0.7c-0.2,0.1-0.7,0.2-1.2,0.3&#10;&#9;&#9;&#9;c-0.6,0.1-1,0.1-1.4,0.1v1.4h2.5C214.3,860.4,214.6,860.1,214.8,859.9z M230.3,847.4c0,0,0-0.1,0.1-0.1c0,0.3-0.8,0.7-1,0.3&#10;&#9;&#9;&#9;C229.6,847.5,230.1,847.5,230.3,847.4z M227.3,847.9c0,0.2-0.7,0.5-1,0.3C226.8,848.1,226.9,847.9,227.3,847.9z M223.1,846.5&#10;&#9;&#9;&#9;c0,0.3-0.2,0.4-0.5,0.4C222.6,846.7,222.7,846.5,223.1,846.5z M220.7,835.6c0,0.4,0.3,0.5,0.4,0.8c-0.7,0-0.4-0.6-1.2-0.3&#10;&#9;&#9;&#9;C219.8,835.7,220,835.5,220.7,835.6z M215.2,837.5c0.2-0.3-0.3-0.7,0.3-0.9C215.4,836.9,215.8,837.5,215.2,837.5z M215.8,841&#10;&#9;&#9;&#9;c0.2-0.5-0.5-1,0.1-1.2C215.8,840.3,216.2,840.7,215.8,841z M218.6,856.4c-0.1-0.4,0.7-1,1.2-1.3&#10;&#9;&#9;&#9;C219.8,855.7,219.1,856,218.6,856.4z M219.4,852c-0.1-0.5,0-0.9,0.8-0.9C220.2,851.6,219.8,851.8,219.4,852z M220.2,847.9&#10;&#9;&#9;&#9;c0,0.1-0.4,0.5,0,0.6c0.5-0.2,1-0.4,1.5-0.6c-0.3,0.7-1.6,0.7-2.3,1.1c-0.1,0.4,0,0.5-0.1,0.7c-0.4-0.1-0.7-0.2-0.8-0.4&#10;&#9;&#9;&#9;C219.5,849.1,219.4,848.1,220.2,847.9z M219.3,852.3c-0.4,0.1-0.3,0.5-0.8,0.6C218,852.5,219,852.2,219.3,852.3z M218.5,856.3&#10;&#9;&#9;&#9;c-0.1,0.2-0.3,0.3-0.4,0.4c0-0.2-0.2-0.2-0.1-0.3C218.1,856.3,218.2,856.2,218.5,856.3z M218.2,853.4c-0.4,0.6-0.9,1.1-1.6,1.6&#10;&#9;&#9;&#9;c-0.1,0-0.2,0-0.3,0C216.6,854.3,217.2,853.7,218.2,853.4z M218.3,856.5c0,0.1,0,0.2-0.1,0.3c0,0,0.1,0.1,0.2,0.1&#10;&#9;&#9;&#9;c-0.1,0.2-0.4,0.5-0.8,0.5c-0.1,0.1-0.2,0.3,0,0.4c-0.9-0.1-0.6,0.9-1.4,0.6C217.1,857.7,217.2,857.1,218.3,856.5z"/>
		<path fill="#CCCCCC" d="M222.5,836.4h3.1c0.4,0,1,0,1.6,0c0.7,0,1.2,0.1,1.5,0.2c0.9,0.2,1.7,0.8,2.6,1.8c0.1,0.2,0.2,0.3,0.3,0.5&#10;&#9;&#9;&#9;c0.1-0.1,0.3-0.2,0.5-0.3c0,0.2-0.1,0.5-0.2,0.7c0.5,0.7,0.9,1.4,1.2,2.1h1.4v-6.6h-10.4c-0.6,0.5-1.1,0.9-1.6,1.4&#10;&#9;&#9;&#9;C222.5,836.3,222.5,836.3,222.5,836.4z M233.7,836c0.2,0.5-0.1,1.3-0.8,1.5C232.8,837.1,233.2,836.3,233.7,836z"/>
		<path fill="#CCCCCC" d="M262.9,859.5l0.4-6.9H262c-0.2,0.6-0.7,1.5-1.4,2.7c-0.7,1.2-1.4,2.1-2,2.7c-0.1,0.1-0.3,0.2-0.5,0.3&#10;&#9;&#9;&#9;c0.2,0.4,0.5,0.7,0.7,1.1C260.1,859.5,261.7,859.4,262.9,859.5z"/>
		<path fill="#CCCCCC" d="M242.5,859.5c0,0.1-0.1,0.2-0.1,0.2c-1.3,0-2.6,0-3.8,0v0.8h2.4c3.7-0.3,7.6-0.4,11.3-0.8&#10;&#9;&#9;&#9;c-2.1,0-5.1,0-7.5,0c-0.6,0-1.7,0.2-1.9-0.2c3.2,0,7.3-0.3,10.5,0c0.2,0.4-0.8,0.1-1,0.3c0.8-0.1,1.6,0.3,1.9-0.1&#10;&#9;&#9;&#9;c-0.2,0-0.7,0.1-0.5-0.2c1.3-0.4,3.1,0.1,4.3-0.2c0-0.3-0.1-0.6-0.3-0.9c0,0-0.1,0-0.1,0c-0.4,0.1-0.9,0.2-1.4,0.3&#10;&#9;&#9;&#9;c-0.5,0.1-1,0.1-1.6,0.1c-0.6,0-1.1,0-1.5,0c-0.9,0-1.6,0-2.2-0.1c-0.5-0.1-0.9-0.2-1.3-0.5c-0.3-0.2-0.5-0.6-0.6-1&#10;&#9;&#9;&#9;s-0.2-1.1-0.2-1.9V848h2.7c0.5,0,0.9,0.1,1.3,0.2c-0.1-0.5-0.2-0.9-0.2-1.3c0.2,0.4,0.5,0.9,0.7,1.4c0,0,0.1,0,0.1,0&#10;&#9;&#9;&#9;c0.5,0.2,1,0.5,1.4,0.9c0.3,0.3,0.5,0.8,0.8,1.6c0.3,0.8,0.5,1.4,0.6,1.9h1.4v-10.8h-1.4c-0.1,0.5-0.3,1.1-0.6,1.8&#10;&#9;&#9;&#9;c-0.3,0.7-0.6,1.2-0.8,1.5c-0.5,0.4-1,0.8-1.5,0.9c-0.5,0.2-1.2,0.2-1.8,0.2h-2.6c0.1,0.4-0.4,0.6-0.7,0.8&#10;&#9;&#9;&#9;c0.2-0.3,0.2-0.6,0.6-0.8h0v-9.2c-0.5,0.1-0.9,0.3-1.4,0.3c0.1-0.4,0.9-0.4,1.4-0.6v-0.5c-0.1,0-0.1,0-0.2,0c0.2-0.3,0-0.2,0-0.5&#10;&#9;&#9;&#9;c0.2,0,0.2-0.1,0.4-0.1c0.1,0.2,0.2,0.4,0.3,0.5h3.2c0.4,0,1,0,1.6,0c0.7,0,1.2,0.1,1.5,0.2c0.9,0.2,1.7,0.8,2.6,1.8&#10;&#9;&#9;&#9;c0.9,1,1.5,2,1.8,3h1.4v-6.6h-5.8c-0.6,0.1-0.7,0.1-0.6,0h-6.6c0,0.1-0.1,0.2-0.2,0.2c0-0.1,0-0.1,0-0.2h-9.8v1.4&#10;&#9;&#9;&#9;c0.3,0,0.7,0.1,1.3,0.2s1,0.3,1.3,0.4c0.5,0.2,0.8,0.5,1,0.8c0.1,0.3,0.2,0.6,0.2,1.1v14.3c0.1,0,0.2,0,0.3,0&#10;&#9;&#9;&#9;c-0.2,0.2-0.2,0.4,0,0.7c-0.1,0-0.2,0-0.3-0.1v3.4c0,0.5-0.1,0.8-0.2,1.1c-0.2,0.3-0.5,0.5-0.9,0.7c-0.2,0.1-0.7,0.2-1.2,0.3&#10;&#9;&#9;&#9;c-0.6,0.1-1,0.1-1.4,0.1v0.3c1.2,0,2.4-0.1,3.7-0.1C242.4,859.5,242.4,859.5,242.5,859.5z M242.9,853.4c-0.1-0.4,0.2-0.5,0.4-0.7&#10;&#9;&#9;&#9;C243.6,853,243.2,853.2,242.9,853.4z M245,857.5c0.1-0.4-0.8-0.6-0.4-0.9c0.1,0.1,0.3,0.2,0.5,0.2C245,857,245.3,857.4,245,857.5z&#10;&#9;&#9;&#9; M248.5,836.6c-0.6,0.2-1.4,0.8-2.2,0.7C246.9,837.1,248.2,836.4,248.5,836.6z M245.6,849.7c-0.2,0.3-0.3,0.7-0.8,0.8&#10;&#9;&#9;&#9;C244.8,850.4,245,849.7,245.6,849.7z M244.1,838.5c0.2,0,0.5,0,0.7,0c0,0.3-0.6,0.2-0.7,0.4C244.1,838.7,244.1,838.6,244.1,838.5z&#10;&#9;&#9;&#9; M243.9,851.6c0.1,0.3-0.2,0.4-0.1,0.7c-0.4,0-0.4,0.2-0.8,0.2C242.7,852.1,243.2,851.7,243.9,851.6z M242.8,853.7&#10;&#9;&#9;&#9;c0.2,0.2,0.1,0.5,0.3,0.7C242.3,854.4,242.6,853.9,242.8,853.7z"/>
		<path fill="#CCCCCC" d="M259.5,859.9c-0.1,0.1-0.4,0.2-0.4,0.4c-0.5,0.1-0.1-0.4-0.7-0.3c-3.7,0.2-8.3,0.3-12.6,0.6h17.1l0-0.7&#10;&#9;&#9;&#9;C261.6,860,260.4,859.8,259.5,859.9z"/>
		<path fill="#CCCCCC" d="M238.5,915.8C238.5,915.8,238.6,915.8,238.5,915.8C238.5,915.8,238.5,915.8,238.5,915.8&#10;&#9;&#9;&#9;c-9,3.8-18.8,6-29.1,6c-1.3,0-2.7,0-4-0.1c-0.2,0.4-0.2,0.9-0.4,1.3c-0.2-0.4,0.1-0.9,0.1-1.4c-2.2-0.1-4.4-0.3-6.5-0.7&#10;&#9;&#9;&#9;c0,0.1,0,0.2-0.1,0.3c-0.1-0.1-0.1-0.2-0.1-0.3c-7.1-1.1-13.8-3.1-20.1-6.1c0,0.2,0,0.4-0.4,0.5c0-0.2,0-0.4,0-0.6&#10;&#9;&#9;&#9;c0.1,0,0.1,0,0.2,0c-2.1-1-4.2-2.1-6.2-3.3c-0.3,0.5-0.5,0.9-0.8,1.4c5.3,3.1,11.1,5.7,17.2,7.4c0.2,0,0.3-0.1,0.5-0.2&#10;&#9;&#9;&#9;c0,0.2,0.1,0.2,0.2,0.3c2.9,0.8,5.9,1.5,9,2c0-0.1,0-0.3-0.1-0.5c0.4-0.1,0.3-0.4,0.5-0.6c0.2,0.4,0.1,0.8,0,1.1&#10;&#9;&#9;&#9;c1.1,0.2,2.3,0.3,3.4,0.4c0-0.3,0-0.6,0.4-0.8c0.1,0.2,0.1,0.5,0,0.8c0.8,0.1,1.6,0.1,2.4,0.2c0-0.1,0-0.1,0-0.2&#10;&#9;&#9;&#9;c0.1,0,0.3,0,0.4,0c0,0.1,0,0.1,0,0.2c1.4,0.1,2.9,0.1,4.3,0.1c3.8,0,7.5-0.3,11.2-0.8c-0.1-0.3-0.2-0.6,0-0.9&#10;&#9;&#9;&#9;c0,0.3,0.1,0.6,0.3,0.8c7.2-1.1,14.1-3.2,20.5-6.2c0,0,0-0.1,0-0.1c0,0,0.1,0,0.1,0c0.7-0.3,1.4-0.7,2.2-1.1&#10;&#9;&#9;&#9;c-0.8,0.1-1.6,0.2-2.2,0c0.8-0.2,2-0.4,3-0.5c0.1-0.1,0.3-0.2,0.4-0.2c-0.3,0-0.6,0-0.9-0.1c0.4,0,0.8,0,1.2-0.1&#10;&#9;&#9;&#9;c3.3-1.8,6.4-3.7,9.3-5.9c-1,0.1-2.1,0.2-3.2,0.3C247.3,911.4,243,913.8,238.5,915.8z M188.7,920c-0.3-0.2,0-0.5,0.5-0.5&#10;&#9;&#9;&#9;C189.3,919.8,189.1,920,188.7,920z M239.9,915.7c-0.3,0-0.5,0-0.8,0c0.1-0.2,0.3-0.4,0.8-0.3C239.9,915.5,239.9,915.6,239.9,915.7&#10;&#9;&#9;&#9;z"/>
		<path fill="#CCCCCC" d="M282.3,860.6c0.1,0,0.2-0.1,0.3-0.2c0.2,0.2,0,0.7-0.3,0.3c0.4,0.6-0.1,1.3-0.3,1.8c0-0.1,0-0.1-0.1-0.2&#10;&#9;&#9;&#9;c-0.1,0.5-0.2,1.1-0.4,1.6c0,0.2,0.1,0.7-0.1,0.5c0,0.2-0.1,0.3-0.1,0.5c0.1,0.2,0,0.4-0.1,0.5c-0.1,0.6-0.3,1.1-0.4,1.7&#10;&#9;&#9;&#9;c0.1-0.2,0.2-0.3,0.4-0.4c-0.5,0.6,0,1.8-0.5,2.3c0-0.5,0-1.2,0.1-1.6c-4.7,16.8-15.1,31.2-29.1,41c1.1-0.1,2.2-0.1,3.2-0.4&#10;&#9;&#9;&#9;c0.1,0,0.1,0,0.2,0c11.8-9,20.9-21.3,25.9-35.6c0-0.3-0.1-0.5,0-0.5c0,0,0,0.1,0.1,0.2c1.4-4,2.4-8.1,3.1-12.3c-0.5,0-1.1,0-1.7,0&#10;&#9;&#9;&#9;C282.4,860.1,282.3,860.3,282.3,860.6z M280.9,869.3c-0.1,0.2,0.3,0.8-0.3,0.7C280.8,869.8,280.4,869.2,280.9,869.3z M280.8,871.7&#10;&#9;&#9;&#9;c-0.1-0.3-0.4-1.3,0.1-1.4C280.7,870.9,281.4,871.4,280.8,871.7z"/>
		<path fill="#CCCCCC" d="M141.5,877.2c0,0-0.1,0-0.1,0c0-0.1,0-0.2,0-0.3c-0.1-0.2-0.1-0.3-0.2-0.5c0,0,0,0-0.1,0c0,0,0,0,0,0&#10;&#9;&#9;&#9;c-0.7-1.8-1.4-3.6-2-5.4c-0.1,0-0.2,0-0.4,0c0.1,0,0.2-0.1,0.3-0.1c-0.2-0.7-0.5-1.4-0.7-2.1c-0.5,0.1-1,0.2-1.6,0.2&#10;&#9;&#9;&#9;c0.2,0.8,0.5,1.7,0.8,2.5c0.3-0.1,0.5-0.1,0.7-0.1c-0.3,0-0.5,0.1-0.6,0.2c1.3,3.8,2.9,7.5,4.7,11.1c0.1,0,0.3,0,0.4,0&#10;&#9;&#9;&#9;c-0.1,0.1,0,0.3-0.2,0.4c1.6,3,3.4,5.9,5.4,8.7c0.3-0.6,0.5-1.1,0.8-1.7C145.9,886.1,143.5,881.7,141.5,877.2z M146.5,888.6&#10;&#9;&#9;&#9;c0.1-0.2,0.1-0.4,0.4-0.3c0,0.1,0,0.2,0,0.3C146.8,888.6,146.7,888.6,146.5,888.6z"/>
		<path fill="#CCCCCC" d="M166,907.6c-4.1-3-7.9-6.4-11.4-10.2c-0.2,0.1-0.4,0.1-0.5,0.2c-0.3-0.2-0.2-0.4,0.2-0.5&#10;&#9;&#9;&#9;c-1.9-2.1-3.6-4.2-5.2-6.5c-0.3,0.6-0.6,1.1-0.8,1.6c2.4,3.3,5,6.3,7.9,9.2c0.1,0,0.1,0,0.2,0c0,0.1,0,0.2,0,0.2&#10;&#9;&#9;&#9;c2.3,2.2,4.7,4.4,7.3,6.3C164.3,907.8,165.7,908,166,907.6z"/>
		<path fill="#CCCCCC" d="M168.8,909.6c0,0,0,0.1,0,0.1c-0.2,0.1-0.5,0.1-0.8,0.1c-0.1-0.3,0.2-0.3,0.4-0.4c0,0.1,0.1,0.1,0.2,0.1&#10;&#9;&#9;&#9;c-0.5-0.3-0.9-0.6-1.4-0.9c-0.1,0-0.2,0-0.4,0c-0.1-0.1,0-0.2,0.1-0.2c-0.1,0-0.1-0.1-0.2-0.1c-0.8,0-1.7,0.1-2.7,0.1&#10;&#9;&#9;&#9;c0.6,0.4,1.2,0.9,1.8,1.3c0.2-0.1,0.6-0.1,0.6,0.1c-0.1,0-0.2,0.1-0.3,0.1c1.5,1.1,3.1,2.1,4.7,3c0.2-0.5,0.5-1,0.8-1.4&#10;&#9;&#9;&#9;C170.6,910.8,169.7,910.2,168.8,909.6z"/>
		<path fill="#CCCCCC" d="M216.7,772.8c-0.3,0.2-0.6,0.4-1,0.6c-0.8,0.1-1.5,0.2-2.2,0.4c9.2,0.5,17.9,2.7,25.9,6.3&#10;&#9;&#9;&#9;c0.8-0.2,2-0.1,3.1-0.1c0.1,0,0.3,0,0.4,0c-7.7-3.8-16.1-6.4-25-7.4c-0.1,0.1-0.2,0.2-0.2,0.3&#10;&#9;&#9;&#9;C217.2,772.8,217.1,772.7,216.7,772.8z M226.1,774.6c-0.3,0-0.3,0.2-0.7,0.2C225.2,774.5,226,774.4,226.1,774.6z"/>
		<path fill="#CCCCCC" d="M244.3,782.4c0.5-0.3,1.1-0.6,1.8-0.5c-0.4,0.2-1,0.5-1.5,0.6c6.3,3.4,12.1,7.7,17.1,12.8&#10;&#9;&#9;&#9;c0.4-0.2,0.8-0.3,1.2-0.5c0,0.4-0.5,0.5-1,0.7c1.6,1.7,3.2,3.4,4.7,5.2c0.5-0.2,1-0.5,1.6-0.6c-1.9-2.3-3.9-4.5-6-6.6&#10;&#9;&#9;&#9;c-0.1,0-0.2,0-0.2,0c0.1,0,0.1,0,0.2-0.1c-5.2-5.1-11.2-9.4-17.8-12.9c-1.3,0-2.6-0.1-3.9-0.1C241.7,781.1,243,781.8,244.3,782.4z&#10;&#9;&#9;&#9;"/>
		<path fill="#CCCCCC" d="M282.5,859.2c0,0.1,0,0.2,0,0.2c0.5,0,1.1,0,1.6,0c0-0.1,0-0.3,0.1-0.4&#10;&#9;&#9;&#9;C283.9,859.3,283.1,859.3,282.5,859.2z"/>
		<path fill="#CCCCCC" d="M274.2,811.9c0.6-0.1,1.2-0.2,1.7-0.2c-2.2-4-4.7-7.8-7.6-11.4c-0.5,0.2-1,0.4-1.6,0.6&#10;&#9;&#9;&#9;C269.5,804.3,272,808,274.2,811.9z"/>
		<path fill="#CCCCCC" d="M142.6,812.3c0,0,0.1,0,0.1,0c-0.1,0.2,0.2,0.2,0.1,0.4c-0.2,0-0.3,0-0.4-0.1c-5.5,10.5-8.7,22.5-8.7,35.2&#10;&#9;&#9;&#9;c0,4.3,0.4,8.6,1.1,12.7c0.1,0.1,0.2,0.1,0.4,0.1c-0.1,0.1,0.2,0.5-0.1,0.5c-0.1,0-0.1-0.1-0.2-0.1c0.2,1.2,0.4,2.3,0.7,3.4&#10;&#9;&#9;&#9;c0,0,0,0,0,0.1c0.3,1.5,0.7,3,1.1,4.4c0-0.1,0-0.1,0-0.2c0.5-0.1,1-0.1,1.6-0.1c-0.6-2-1.1-4.1-1.5-6.2c-0.2-0.1-0.4-0.3-0.5-0.5&#10;&#9;&#9;&#9;c0.3,0.1,0.3,0,0.4-0.1c-0.9-4.5-1.3-9.2-1.3-14c0-1.1,0-2.1,0.1-3.2c0,0-0.1,0-0.1,0.1c0.1-0.2-0.1-0.6,0.1-0.7&#10;&#9;&#9;&#9;c0.9-17.8,8.1-34,19.5-46.3c-0.1-0.2-0.1-0.4,0.3-0.4c0,0,0,0,0.1,0.1c13.5-14.5,32.8-23.6,54.1-23.6c1.2,0,2.4,0,3.5,0.1&#10;&#9;&#9;&#9;c1.4-0.4,2.8-0.9,4.2-1.3c-2.6-0.3-5.2-0.4-7.8-0.4C180.5,772.1,155.3,788.4,142.6,812.3z M173,781.8c0,0.4-0.2,0.6-0.8,0.6&#10;&#9;&#9;&#9;C172.3,782.1,172.3,781.8,173,781.8z M168.9,784.4c-0.3,0.5-0.6,1.1-1.4,1.4C167.9,785.3,168.1,784.7,168.9,784.4z M167,786.4&#10;&#9;&#9;&#9;c-0.2,0.5-0.4,1-1.2,1.1C166.1,787.1,166.5,786.7,167,786.4z"/>
		<path fill="#CCCCCC" d="M275.5,812.2c-0.4,0.1-0.7,0.1-1.1,0.2c1.7,3.1,3.1,6.2,4.4,9.5c0.6-0.1,1.1-0.2,1.6-0.4&#10;&#9;&#9;&#9;c-1.2-3.2-2.6-6.2-4.1-9.2c-0.1,0-0.1,0-0.2,0.1C275.6,812.4,275.9,812.1,275.5,812.2z"/>
		<path fill="#CCCCCC" d="M283.7,840.9c-0.2,0-0.4,0-0.5,0c0.2,2.2,0.3,4.5,0.3,6.8c0,1.2,0,2.4-0.1,3.7c0.3,0.8,0.7,1.5,0.9,2.4&#10;&#9;&#9;&#9;c-0.5-0.5-0.7-0.9-0.9-1.4c-0.1,2.2-0.4,4.4-0.7,6.6c0.5-0.1,1.2,0,1.6,0c0.2-1.1,0.3-2.3,0.4-3.5c0-0.1-0.1-0.3-0.1-0.5&#10;&#9;&#9;&#9;c0,0,0.1,0,0.1,0c0-0.1,0-0.2,0-0.3c0,0.1-0.1,0.2-0.5,0.2c0.3-0.3-0.3-0.7,0.1-1.1c0,0.2,0.4,0.5,0.4,0.8&#10;&#9;&#9;&#9;c0.1-0.6,0.1-1.2,0.1-1.8c-0.1,0-0.3,0-0.4,0c-0.6-0.5,0.4-0.6,0.4,0c0.1-1.7,0.2-3.4,0.2-5.1c0-1.7-0.1-3.4-0.2-5.1&#10;&#9;&#9;&#9;c-0.4-0.1-0.8-0.4-0.4-0.6c0.1,0.2,0.3,0.3,0.4,0.5c0-0.7-0.1-1.3-0.2-2c-0.4,0.1-0.8,0.1-1.3,0.2&#10;&#9;&#9;&#9;C283.5,840.7,283.6,840.8,283.7,840.9z"/>
		<path fill="#CCCCCC" d="M283.1,840.5c0.6-0.1,1.1-0.2,1.6-0.3c-0.6-6.4-2.1-12.5-4.2-18.3c-0.5,0.1-1.1,0.2-1.6,0.3&#10;&#9;&#9;&#9;C281,828,282.5,834.1,283.1,840.5z"/>
		<path fill="#CCCCCC" d="M171.2,864.9c0.3,0.1,0.4,0.2,0.4,0.4c0.6,0,1.2-0.1,1.8-0.2c-0.2,0.4-0.8,0.7-1.4,0.9c0,0,0,0.1,0.1,0.1&#10;&#9;&#9;&#9;c0.7,0.1,1.2-0.1,1.6-0.3c0.1,0-0.2-0.1-0.1-0.2c0.4-0.2,0.8-0.6,1.1-1h-2.9C171.5,864.6,171.3,864.7,171.2,864.9z"/>
		<path fill="#CCCCCC" d="M175,865.8c-0.1,0.1-0.1,0.2-0.2,0.3h1.2C175.9,865.9,175.4,865.9,175,865.8z"/>
		<path fill="#CCCCCC" d="M175.2,865.5c1,0.1,1-0.5,1.5-0.7c0.7,0.6,1.7,0.1,2.6,0.2c0.1-0.1,0.2-0.3,0.3-0.4h-4.3&#10;&#9;&#9;&#9;C175.2,864.8,175.1,865.2,175.2,865.5z"/>
		<path fill="#CCCCCC" d="M252.9,797.2c0.3,0.3,0.7,0.6,1,0.8c0.3,0.3,0.7,0.6,1,0.9c0.3,0.3,0.6,0.6,0.9,0.9c0.3,0.3,0.7,0.6,1,1&#10;&#9;&#9;&#9;c0.3,0.3,0.6,0.6,0.9,0.9c0.3,0.3,0.6,0.7,0.9,1c0.1,0.1,0.2,0.2,0.2,0.3c0.2-0.3,1-0.5,1.6-0.5c-1.5-1.6-3-3.2-4.6-4.7&#10;&#9;&#9;&#9;c-0.1,0-0.2,0-0.2,0c0,0,0.1-0.1,0.1-0.1c-0.5-0.4-0.9-0.9-1.4-1.3c-0.6,0.2-1.2,0.4-1.7,0.7C252.7,797.1,252.8,797.1,252.9,797.2&#10;&#9;&#9;&#9;z M258.7,802.3c-0.2-0.1-0.5-0.5-0.1-0.7C258.6,801.8,258.9,802.3,258.7,802.3z M258.1,801.6c0.1-0.4-0.6-0.7-0.1-1.1&#10;&#9;&#9;&#9;C258,800.8,258.8,801.3,258.1,801.6z M257.9,799.9c-0.1,0.1,0.2,0.5-0.1,0.5C257.6,800.4,257.4,799.9,257.9,799.9z"/>
		<path fill="#CCCCCC" d="M179,865.5c-0.6,0.2-0.9,0-1.8,0c-0.3,0.2-0.4,0.5-0.8,0.7h2.7C179.2,865.9,179.4,865.6,179,865.5z"/>
		<path fill="#CCCCCC" d="M277.3,840.7c-0.5,0.1-1.3,0-1.2-0.2c0.4,0,0.8,0,1.1,0c-0.3-3.2-0.9-6.4-1.7-9.6h0l-0.3-1l-0.2-0.6h0&#10;&#9;&#9;&#9;c-0.6-2.1-1.3-4.1-2-6c-0.6,0-1.1,0-1.7,0c0.2,0.4,0.3,0.8,0.5,1.2c0.2,0.4,0.3,0.9,0.5,1.3c0.2,0.4,0.3,0.9,0.5,1.3&#10;&#9;&#9;&#9;c0.1,0.4,0.3,0.9,0.4,1.3c0.1,0.3,0.2,0.6,0.2,0.9h-17.1c-0.1-0.2-0.2-0.4-0.3-0.7c-0.1-0.3-0.2-0.6-0.4-0.9&#10;&#9;&#9;&#9;c-0.1-0.3-0.3-0.6-0.4-0.9c-0.1-0.3-0.3-0.6-0.4-0.9c-0.1,0-0.1,0-0.2,0.1c0-0.1,0.1-0.1,0.2-0.1c-0.1-0.3-0.3-0.5-0.4-0.8&#10;&#9;&#9;&#9;c-0.1-0.3-0.3-0.6-0.4-0.8c-0.1-0.3-0.3-0.6-0.5-0.8c-0.2-0.3-0.3-0.6-0.5-0.8c-0.2-0.3-0.3-0.5-0.5-0.8c-0.1-0.1-0.2-0.3-0.2-0.4&#10;&#9;&#9;&#9;c-0.5,0.1-1,0.3-1.5,0.3c0.4-0.2,0.9-0.4,1.4-0.5c0-0.1-0.1-0.2-0.1-0.2c-0.2-0.3-0.3-0.5-0.5-0.8c-0.1-0.2-0.3-0.4-0.4-0.6&#10;&#9;&#9;&#9;c-0.1,0-0.1,0-0.2,0c0-0.1,0-0.2,0-0.3c-0.2-0.2-0.3-0.5-0.5-0.7c-0.2-0.3-0.4-0.5-0.6-0.8c-0.1-0.1-0.1-0.1-0.2-0.2&#10;&#9;&#9;&#9;c-0.1,0-0.2,0-0.3-0.1c0.1,0,0.1,0,0.2,0c-0.1-0.1-0.2-0.3-0.3-0.4c-0.2-0.3-0.4-0.5-0.6-0.8c-0.2-0.2-0.4-0.5-0.6-0.7&#10;&#9;&#9;&#9;c-0.2-0.3-0.4-0.5-0.6-0.8c-0.2-0.2-0.4-0.4-0.6-0.7c-0.2-0.2-0.4-0.5-0.7-0.7c-0.2-0.2-0.4-0.4-0.6-0.6c-0.2-0.2-0.5-0.5-0.7-0.7&#10;&#9;&#9;&#9;c-0.2-0.2-0.4-0.4-0.6-0.6c-0.2-0.2-0.5-0.5-0.7-0.7c-0.2-0.2-0.4-0.4-0.6-0.6c-0.2-0.2-0.5-0.4-0.8-0.7c-0.2-0.2-0.4-0.4-0.7-0.6&#10;&#9;&#9;&#9;c-0.3-0.2-0.5-0.4-0.8-0.6c-0.2-0.2-0.5-0.4-0.7-0.5c-0.1-0.1-0.3-0.2-0.4-0.3c-0.4,0.3-1.1,0.5-1.7,0.7c-0.1-0.2-0.3-0.2-0.3-0.4&#10;&#9;&#9;&#9;c0.6-0.2,1.1-0.4,1.6-0.6c-0.2-0.2-0.5-0.3-0.7-0.5c-0.3-0.2-0.5-0.4-0.8-0.6c-0.2-0.1-0.4-0.3-0.6-0.4c-0.1,0.1-0.3,0.1-0.4,0&#10;&#9;&#9;&#9;c0.1,0,0.2-0.1,0.2-0.1c-0.2-0.1-0.5-0.3-0.7-0.4c-0.1-0.1-0.2-0.1-0.2-0.1c-0.6,0.3-1.2,0.5-1.9,0.8c0.1,0.1,0.2,0.1,0.3,0.2&#10;&#9;&#9;&#9;c0.3,0.2,0.5,0.3,0.8,0.5c0.2,0.2,0.5,0.3,0.7,0.5c0.3,0.2,0.5,0.3,0.8,0.5c0.2,0.2,0.5,0.3,0.7,0.5c0.3,0.2,0.5,0.4,0.8,0.5&#10;&#9;&#9;&#9;c0.2,0.2,0.5,0.3,0.7,0.5c0.2,0.2,0.5,0.4,0.7,0.6c0.2,0.2,0.5,0.4,0.7,0.5c0.2,0.2,0.5,0.4,0.7,0.6c0.2,0.2,0.4,0.4,0.7,0.6&#10;&#9;&#9;&#9;c0.2,0.2,0.5,0.4,0.7,0.6c0.2,0.2,0.4,0.4,0.6,0.6c0.2,0.2,0.3,0.3,0.5,0.5c-0.1-0.5-0.1-1,0.1-1.4c0,0.6,0.2,1.2,0.4,1.9&#10;&#9;&#9;&#9;c0.1,0.1,0.2,0.2,0.3,0.3c0.2,0.2,0.4,0.5,0.7,0.7c0.2,0.2,0.4,0.4,0.6,0.6c0.2,0.2,0.4,0.5,0.6,0.7c0.2,0.2,0.4,0.4,0.6,0.7&#10;&#9;&#9;&#9;c0.2,0.2,0.4,0.5,0.6,0.7c0.2,0.2,0.4,0.5,0.5,0.7c0,0,0,0,0,0c0.3-0.1,0.6-0.2,1-0.2c-0.2,0.2-0.5,0.3-0.8,0.5&#10;&#9;&#9;&#9;c0.1,0.1,0.2,0.3,0.3,0.4c0.2,0.2,0.3,0.5,0.5,0.7c0.2,0.3,0.4,0.5,0.6,0.8c0.2,0.2,0.3,0.5,0.5,0.7c0.2,0.3,0.4,0.5,0.5,0.8&#10;&#9;&#9;&#9;c0.2,0.2,0.3,0.5,0.5,0.7c0.2,0.3,0.3,0.6,0.5,0.8c0.1,0.2,0.3,0.5,0.4,0.7c0.2,0.3,0.3,0.6,0.5,0.9c0.1,0.3,0.3,0.5,0.4,0.8&#10;&#9;&#9;&#9;c0.1,0.3,0.3,0.6,0.4,0.9c0.1,0.3,0.3,0.5,0.4,0.8c0.1,0.3,0.3,0.6,0.4,0.9c0.1,0.3,0.2,0.5,0.3,0.8c0,0.1,0.1,0.2,0.1,0.3h-25&#10;&#9;&#9;&#9;c-0.5,0.5-1,1.1-1.5,1.6h27.1h1.7h4.9c0.1,0,0.2-0.1,0.3,0c0,0,0,0,0,0H274c0.1,0.3,0.1,0.6,0.2,0.9c0.1,0.3,0.2,0.6,0.2,0.9&#10;&#9;&#9;&#9;c0,0.1,0.1,0.3,0.1,0.4c0,0,0.1,0,0.1,0.1c0,0,0,0-0.1,0c0.1,0.2,0.1,0.5,0.2,0.7c0.1,0.3,0.1,0.6,0.2,0.9c0,0,0.1,0,0.1,0&#10;&#9;&#9;&#9;c0,0-0.1,0.1-0.1,0.1c0.1,0.4,0.1,0.7,0.2,1.1c0.1,0.3,0.1,0.6,0.2,0.9c0.1,0.4,0.1,0.8,0.2,1.2c0,0.3,0.1,0.6,0.1,0.9&#10;&#9;&#9;&#9;c0.1,0.4,0.1,0.8,0.1,1.3c0,0.3,0.1,0.6,0.1,0.9c0,0.4,0.1,0.9,0.1,1.3c0,0.3,0,0.6,0.1,0.8c0,0.5,0.1,1,0.1,1.5&#10;&#9;&#9;&#9;c0,0.2,0,0.5,0,0.7c0,0.7,0,1.4,0,2.2c0,0.7,0,1.4,0,2.2c0,0.2,0,0.5,0,0.7c0,0.5,0,1-0.1,1.5c0,0.3,0,0.6-0.1,0.8&#10;&#9;&#9;&#9;c0,0.4-0.1,0.9-0.1,1.3c0,0.3-0.1,0.6-0.1,0.9c0,0.4-0.1,0.8-0.1,1.3c0,0.3-0.1,0.6-0.1,0.9c-0.1,0.4-0.1,0.8-0.2,1.2&#10;&#9;&#9;&#9;c0,0.2-0.1,0.5-0.1,0.7c0.5,0,1.1,0,1.6-0.1c0.6-3.8,1-7.6,1-11.4C277.7,845.4,277.6,843.1,277.3,840.7z M243.3,811.4&#10;&#9;&#9;&#9;c0.1-0.2-0.2-0.6,0.3-0.6C243.7,811.1,243.9,811.5,243.3,811.4z M261.5,830.5c-0.1-0.2-0.6-0.2-0.5-0.5c0.4,0,0.4-0.2,0.8-0.2&#10;&#9;&#9;&#9;c0,0.1,0.1,0.1,0.3,0.2C262.1,830.2,261.8,830.4,261.5,830.5z"/>
		<path fill="#CCCCCC" d="M236.1,910.5c-0.2-0.6-2-0.3-2.9-0.5c-0.3,0.1-0.6,0.2-1,0.4c-0.4,0.2-0.9,0.3-1.3,0.5&#10;&#9;&#9;&#9;c-0.4,0.1-0.8,0.3-1.3,0.4c-0.4,0.1-0.9,0.3-1.3,0.4c-0.4,0.1-0.9,0.2-1.3,0.4c-0.4,0.1-0.9,0.2-1.3,0.4c-0.5,0.1-0.9,0.2-1.4,0.3&#10;&#9;&#9;&#9;c-0.4,0.1-0.8,0.2-1.3,0.3c-0.5,0.1-0.9,0.2-1.4,0.3c-0.4,0.1-0.8,0.2-1.3,0.2c-0.5,0.1-1,0.1-1.5,0.2c-0.4,0.1-0.8,0.1-1.2,0.2&#10;&#9;&#9;&#9;c-0.5,0.1-1.1,0.1-1.6,0.2c-0.4,0-0.8,0.1-1.1,0.1c-0.6,0.1-1.2,0.1-1.8,0.1c-0.3,0-0.6,0-0.9,0.1c-0.9,0-1.9,0.1-2.8,0.1&#10;&#9;&#9;&#9;c-0.5,0-1.1,0-1.6,0c-0.2,0.5-0.4,1.1-0.6,1.6c0.4,0,0.7,0,1.1,0c0.2-0.1,0.4-0.2,0.4-0.1c0,0-0.1,0-0.1,0.1c0.3,0,0.5,0,0.8,0&#10;&#9;&#9;&#9;c8,0,15.8-1.4,23.1-4.1c0.1-0.8,0.7-1.1,0.7-1.9c0.5,0.3,0.3,1.5-0.5,1.9c1.8-0.6,3.5-1.4,5.2-2.2c-0.5,0-1.1,0-1.6,0.1&#10;&#9;&#9;&#9;C236.2,910,236.4,910.4,236.1,910.5z M208.6,915.7c-0.2-0.1-0.2-0.4,0-0.5c0.1,0,0.3,0,0.4,0C209,915.5,208.9,915.6,208.6,915.7z&#10;&#9;&#9;&#9; M211.6,915.3c0-0.3,0.3-0.5,0.4-0.7C211.9,914.9,212.1,915.3,211.6,915.3z"/>
		<path fill="#CCCCCC" d="M206.6,914.4c-0.3,0-0.6,0-0.9-0.1c-0.6,0-1.2-0.1-1.8-0.1c-0.4,0-0.8-0.1-1.1-0.1&#10;&#9;&#9;&#9;c-0.5-0.1-1.1-0.1-1.6-0.2c-0.2,0-0.5-0.1-0.7-0.1c0,0,0,0-0.1,0c0,0,0,0,0,0c-0.1,0-0.3,0-0.4-0.1c-0.5-0.1-1-0.1-1.5-0.2&#10;&#9;&#9;&#9;c-0.4-0.1-0.8-0.2-1.3-0.2c-0.5-0.1-1-0.2-1.4-0.3c-0.4-0.1-0.9-0.2-1.3-0.3c-0.5-0.1-0.9-0.2-1.4-0.3c-0.4-0.1-0.9-0.2-1.3-0.4&#10;&#9;&#9;&#9;c-0.4-0.1-0.9-0.2-1.3-0.4c-0.4-0.1-0.9-0.3-1.3-0.4c-0.4-0.1-0.9-0.3-1.3-0.4c-0.4-0.1-0.9-0.3-1.3-0.5c-0.4-0.2-0.8-0.3-1.2-0.5&#10;&#9;&#9;&#9;c-0.4-0.2-0.9-0.3-1.3-0.5c-0.4-0.2-0.8-0.3-1.2-0.5c-0.4-0.2-0.8-0.4-1.3-0.6c-0.4-0.2-0.8-0.4-1.2-0.5c-0.4-0.2-0.8-0.4-1.2-0.6&#10;&#9;&#9;&#9;c0,0-0.1,0-0.1-0.1c-0.7,0.1-1.6,0-2.4,0.2c0.3-0.3,1.4-0.2,1.1-0.8c0.1,0,0.1,0,0.1,0c-0.4-0.2-0.7-0.4-1.1-0.6&#10;&#9;&#9;&#9;c-0.4-0.2-0.7-0.4-1.1-0.6c-0.4-0.2-0.8-0.5-1.2-0.7c-0.4-0.2-0.7-0.4-1.1-0.7c-0.4-0.3-0.8-0.5-1.2-0.8c-0.3-0.2-0.7-0.5-1-0.7&#10;&#9;&#9;&#9;c-0.4-0.3-0.8-0.5-1.1-0.8c-0.3-0.2-0.7-0.5-1-0.7c-0.4-0.3-0.7-0.6-1.1-0.9c-0.3-0.3-0.7-0.5-1-0.8c-0.4-0.3-0.7-0.6-1.1-0.9&#10;&#9;&#9;&#9;c-0.1-0.1-0.2-0.1-0.3-0.2c-0.1,0.5-0.2,1-0.5,1.4c-0.1-0.5-0.1-1.2,0-1.9c-0.1,0-0.1-0.1-0.2-0.1c-0.4-0.3-0.7-0.6-1-1&#10;&#9;&#9;&#9;c-0.3-0.3-0.6-0.6-0.9-0.9c-0.3-0.3-0.7-0.7-1-1c-0.3-0.3-0.6-0.6-0.9-0.9c-0.3-0.3-0.6-0.7-1-1c-0.3-0.3-0.6-0.6-0.9-0.9&#10;&#9;&#9;&#9;c-0.3-0.3-0.6-0.7-0.9-1.1c-0.3-0.3-0.6-0.6-0.8-1c-0.3-0.4-0.6-0.7-0.9-1.1c-0.2-0.3-0.5-0.6-0.7-0.9c-0.4,0.1-0.7,0.1-0.9,0.2&#10;&#9;&#9;&#9;c0.1-0.3,0.4-0.4,0.7-0.6c-0.2-0.3-0.4-0.6-0.6-0.8c-0.3-0.4-0.5-0.7-0.8-1.1c-0.3-0.4-0.5-0.8-0.8-1.2c-0.2-0.4-0.5-0.7-0.7-1.1&#10;&#9;&#9;&#9;c-0.2-0.4-0.5-0.8-0.7-1.2c-0.2-0.4-0.5-0.8-0.7-1.1c-0.2-0.4-0.4-0.8-0.7-1.2c-0.2-0.4-0.4-0.8-0.6-1.2c-0.2-0.4-0.4-0.8-0.6-1.2&#10;&#9;&#9;&#9;c-0.2-0.4-0.4-0.8-0.6-1.2c-0.2-0.4-0.4-0.8-0.6-1.2c-0.2-0.4-0.4-0.8-0.5-1.3c-0.2-0.4-0.3-0.8-0.5-1.3c-0.2-0.4-0.3-0.9-0.5-1.3&#10;&#9;&#9;&#9;c-0.2-0.4-0.3-0.9-0.5-1.3c-0.1-0.3-0.2-0.5-0.3-0.8c-0.5,0.2-1,0.3-1.5,0.4c1.2,3.5,2.6,6.8,4.2,10c0.2-0.2,0.5-0.3,0.6-0.4&#10;&#9;&#9;&#9;c0,0.2-0.1,0.5-0.4,0.8c5.7,10.6,14,19.5,24,25.8c0.1-0.3,0.5-0.4,0.8-0.6c0.2,0.3-0.2,0.6-0.4,0.8c1.2,0.8,2.5,1.5,3.8,2.2&#10;&#9;&#9;&#9;c0,0,0,0,0,0c0,0,0,0,0,0c6.9,3.7,14.5,6.2,22.5,7.3c0.1-0.5,0-1.1,0.6-1.2c0.3,0.4,0,0.9-0.4,1.3c2.3,0.3,4.6,0.5,6.9,0.6&#10;&#9;&#9;&#9;c0.2-0.5,0.3-1.1,0.6-1.6C207.2,914.4,206.9,914.4,206.6,914.4z M147.7,875.1c-0.5,0.2-0.8-0.1-0.8-0.5c0.3,0,0.4-0.1,0.8-0.1&#10;&#9;&#9;&#9;C147.9,874.7,147.9,875,147.7,875.1z M176.3,906.2c-0.3,0.1-0.2,0.4-0.7,0.3c0-0.4,0.5-0.6,1.1-0.7c0,0.1,0.4,0.7-0.1,0.7&#10;&#9;&#9;&#9;C176.1,906.6,176.6,906.1,176.3,906.2z M198.8,915c-0.3-0.2-0.5-0.4-0.8-0.6c0.4,0,0.6-0.1,1.1-0.1&#10;&#9;&#9;&#9;C199.3,914.5,199.3,915,198.8,915z"/>
		<path fill="#CCCCCC" d="M272.9,868.3c-0.1,0.4-0.3,0.9-0.5,1.3c-0.1,0.4-0.3,0.9-0.5,1.3c-0.2,0.4-0.3,0.9-0.5,1.3&#10;&#9;&#9;&#9;c-0.2,0.4-0.3,0.8-0.5,1.3c-0.2,0.4-0.4,0.8-0.5,1.3c-0.2,0.4-0.4,0.8-0.6,1.2c-0.2,0.4-0.4,0.8-0.6,1.2c-0.2,0.4-0.4,0.8-0.6,1.2&#10;&#9;&#9;&#9;c-0.2,0.4-0.4,0.8-0.6,1.2c-0.2,0.4-0.4,0.8-0.7,1.2c-0.2,0.4-0.4,0.8-0.7,1.1c-0.2,0.4-0.5,0.8-0.7,1.2c-0.2,0.4-0.5,0.7-0.7,1.1&#10;&#9;&#9;&#9;c-0.3,0.4-0.5,0.8-0.8,1.2c-0.2,0.4-0.5,0.7-0.8,1.1c-0.3,0.4-0.5,0.8-0.8,1.1c-0.3,0.3-0.5,0.7-0.8,1c-0.3,0.4-0.6,0.7-0.9,1.1&#10;&#9;&#9;&#9;c-0.3,0.3-0.5,0.7-0.8,1c-0.3,0.4-0.6,0.7-0.9,1.1c-0.3,0.3-0.6,0.6-0.9,0.9c-0.3,0.3-0.6,0.7-1,1c-0.3,0.3-0.6,0.6-0.9,0.9&#10;&#9;&#9;&#9;c-0.3,0.3-0.7,0.7-1,1c-0.3,0.3-0.6,0.6-0.9,0.9c-0.3,0.3-0.7,0.6-1,1c-0.3,0.3-0.6,0.5-0.9,0.8c-0.4,0.3-0.7,0.6-1.1,0.9&#10;&#9;&#9;&#9;c-0.3,0.3-0.7,0.5-1,0.8c-0.4,0.3-0.7,0.6-1.1,0.9c-0.3,0.3-0.7,0.5-1,0.7c-0.4,0.3-0.8,0.6-1.1,0.8c-0.3,0.2-0.7,0.5-1,0.7&#10;&#9;&#9;&#9;c-0.4,0.3-0.8,0.5-1.2,0.8c-0.4,0.2-0.7,0.4-1.1,0.7c-0.4,0.2-0.8,0.5-1.2,0.7c-0.4,0.2-0.7,0.4-1.1,0.6c-0.4,0.2-0.8,0.5-1.2,0.7&#10;&#9;&#9;&#9;c-0.4,0.2-0.8,0.4-1.1,0.6c-0.4,0.2-0.8,0.4-1.2,0.6c-0.4,0.2-0.8,0.4-1.2,0.5c-0.4,0.2-0.8,0.4-1.3,0.6c-0.4,0.2-0.8,0.3-1.2,0.5&#10;&#9;&#9;&#9;c-0.2,0.1-0.4,0.2-0.6,0.2c1.2-0.1,2.8-0.1,4.3-0.1c17.6-8.3,31.4-23.8,36.8-43.4h0l0.2-0.6l0.3-1h0c0-0.1,0-0.2,0.1-0.4&#10;&#9;&#9;&#9;c-0.2,0.2-0.5,0.5-0.7,0.7c0,0.4,0,0.8,0,1.1c-0.1-0.3-0.1-0.6-0.2-0.9c-0.4,0.4-0.9,0.8-1.3,1.2c-0.1,0.2-0.1,0.5-0.2,0.7&#10;&#9;&#9;&#9;C273.1,867.4,273,867.9,272.9,868.3z M252.7,899.5c0-0.1,0-0.3,0-0.4C253.2,899.1,253.2,899.6,252.7,899.5z M257.3,894.6&#10;&#9;&#9;&#9;c-0.2-0.3,0.9-0.3,0.7,0C258,894.8,257.4,894.6,257.3,894.6z M258.5,893.8c0.1-0.3,0.2-0.5,0.7-0.6&#10;&#9;&#9;&#9;C259.3,893.5,258.8,893.6,258.5,893.8z"/>
		<path fill="#CCCCCC" d="M157.6,805.7c0.3-0.3,0.6-0.7,0.8-1c0.3-0.4,0.6-0.7,0.9-1c0.3-0.3,0.6-0.6,0.9-1c0.3-0.3,0.6-0.7,0.9-1&#10;&#9;&#9;&#9;c0.3-0.3,0.6-0.6,0.9-0.9c0.3-0.3,0.6-0.7,1-1c0.3-0.3,0.6-0.6,0.9-0.9c0.3-0.3,0.7-0.6,1-0.9c0.3-0.3,0.6-0.6,1-0.8&#10;&#9;&#9;&#9;c0.3-0.3,0.7-0.6,1.1-0.9c0.3-0.3,0.7-0.5,1-0.8c0.4-0.3,0.7-0.6,1.1-0.9c0.3-0.3,0.7-0.5,1-0.8c0.4-0.3,0.7-0.5,1.1-0.8&#10;&#9;&#9;&#9;c0.4-0.2,0.7-0.5,1.1-0.7c0.4-0.3,0.8-0.5,1.1-0.8c0.4-0.2,0.7-0.5,1.1-0.7c0.4-0.2,0.8-0.5,1.2-0.7c0.4-0.2,0.8-0.4,1.1-0.6&#10;&#9;&#9;&#9;c0.4-0.2,0.8-0.5,1.2-0.7c0.4-0.2,0.8-0.4,1.2-0.6c0.4-0.2,0.8-0.4,1.2-0.6c0.4-0.2,0.8-0.4,1.2-0.6c0.4-0.2,0.8-0.4,1.2-0.6&#10;&#9;&#9;&#9;c0.4-0.2,0.8-0.3,1.2-0.5c0.4-0.2,0.8-0.3,1.2-0.5c0.4-0.2,0.8-0.3,1.3-0.5c0.4-0.2,0.8-0.3,1.3-0.5c0.4-0.1,0.9-0.3,1.3-0.4&#10;&#9;&#9;&#9;c0.4-0.1,0.8-0.3,1.3-0.4c0.4-0.1,0.9-0.2,1.3-0.4c0.4-0.1,0.8-0.2,1.3-0.3c0.5-0.1,0.9-0.2,1.4-0.3c0.4-0.1,0.8-0.2,1.3-0.3&#10;&#9;&#9;&#9;c0.5-0.1,1-0.2,1.4-0.3c0.4-0.1,0.8-0.2,1.2-0.2c0.5-0.1,1-0.2,1.5-0.2c0.4-0.1,0.8-0.1,1.2-0.2c0.5-0.1,1.1-0.1,1.6-0.2&#10;&#9;&#9;&#9;c0.4,0,0.8-0.1,1.1-0.1c0.6-0.1,1.2-0.1,1.8-0.1c0.3,0,0.6,0,1-0.1c0.9,0,1.9-0.1,2.8-0.1s1.9,0,2.8,0.1c0.3,0,0.6,0,1,0.1&#10;&#9;&#9;&#9;c0.6,0,1.2,0.1,1.8,0.1c0.4,0,0.8,0.1,1.1,0.1c0.5,0.1,1.1,0.1,1.6,0.2c0.4,0.1,0.8,0.1,1.2,0.2c0.5,0.1,1,0.1,1.5,0.2&#10;&#9;&#9;&#9;c0.4,0.1,0.8,0.2,1.2,0.2c0.5,0.1,1,0.2,1.4,0.3c0.4,0.1,0.8,0.2,1.3,0.3c0.5,0.1,0.9,0.2,1.4,0.3c0.4,0.1,0.8,0.2,1.3,0.3&#10;&#9;&#9;&#9;c0.4,0.1,0.9,0.2,1.3,0.4c0.4,0.1,0.8,0.3,1.3,0.4c0.4,0.1,0.9,0.3,1.3,0.4c0.4,0.1,0.8,0.3,1.3,0.5c0.4,0.2,0.9,0.3,1.3,0.5&#10;&#9;&#9;&#9;c0.4,0.2,0.8,0.3,1.2,0.5c0.4,0.2,0.8,0.3,1.2,0.5c0.4,0.2,0.8,0.4,1.2,0.6c0.4,0.2,0.8,0.4,1.2,0.6c0.4,0.2,0.8,0.4,1.2,0.6&#10;&#9;&#9;&#9;c0.4,0.2,0.8,0.4,1.2,0.6c0.4,0.2,0.8,0.4,1.2,0.7c0.4,0.2,0.8,0.4,1.1,0.6c0.4,0.2,0.8,0.5,1.2,0.7c0.4,0.2,0.7,0.4,1.1,0.7&#10;&#9;&#9;&#9;c0.4,0.2,0.8,0.5,1.1,0.8c0.4,0.2,0.7,0.5,1.1,0.7c0.4,0.3,0.7,0.5,1.1,0.8c0.3,0.3,0.7,0.5,1,0.8c0.4,0.3,0.7,0.6,1.1,0.9&#10;&#9;&#9;&#9;c0.3,0.3,0.7,0.5,1,0.8c0.2,0.2,0.4,0.3,0.6,0.5c0.5-0.2,1.1-0.5,1.6-0.7c-12.1-10.4-27.8-16.6-44.6-16.6&#10;&#9;&#9;&#9;c-20.8,0-40,9.5-52.7,24.8c0.1,0.7,0.2,1.4,0.4,2.1C157.3,806.1,157.4,805.9,157.6,805.7z M176.1,788.6c0.1,0.2-0.5,0.5-0.7,0.2&#10;&#9;&#9;&#9;C175.6,788.7,175.7,788.6,176.1,788.6z"/>
		<path fill="#CCCCCC" d="M146,868.3c-0.1-0.4-0.3-0.9-0.4-1.3c-0.1-0.3-0.2-0.6-0.2-0.9h12.5c0.4-0.1,0.7-0.3,0.8-0.6&#10;&#9;&#9;&#9;c0,0.3-0.2,0.4-0.3,0.6h1.9c0.3-0.1,0.6-0.2,0.6-0.6c0.2,0,0.5,0,0.7,0c0.1,0.2,0.1,0.5,0.7,0.4c-0.1-0.3,0.3-0.7,0.7-0.4&#10;&#9;&#9;&#9;c-0.4,0.2-0.1,0.4-0.1,0.8c-0.1,0-0.1,0-0.1,0c0.1,0.1,0.1,0.3,0.2,0.4c0.1,0.3,0.2,0.6,0.4,0.9c0.1,0.3,0.3,0.6,0.4,0.9&#10;&#9;&#9;&#9;c0.1,0.3,0.3,0.6,0.4,0.8c0.1,0.3,0.3,0.6,0.4,0.9c0.1,0.3,0.3,0.6,0.4,0.8c0.1,0.1,0.1,0.2,0.2,0.3c0.6-0.1,1.2-0.2,1.7-0.2&#10;&#9;&#9;&#9;c-0.1-0.2-0.2-0.4-0.4-0.6c-0.1-0.3-0.3-0.5-0.4-0.8c-0.1-0.3-0.3-0.6-0.4-0.9c-0.1-0.3-0.3-0.5-0.4-0.8c-0.1-0.1-0.1-0.3-0.2-0.4&#10;&#9;&#9;&#9;c-0.4,0-0.6-0.2-1-0.3c0-0.4-0.2-0.7-1-0.6c0.1-0.4,0.6-0.6,1.3-0.7c0,0,0,0,0,0h0.1c0.4-0.1,0.9-0.1,1.2-0.1&#10;&#9;&#9;&#9;c-0.1,0-0.2,0.1-0.3,0.1h4.3c0,0,0,0,0,0c0.2,0,0.4,0,0.5,0c0.1-0.1,0.3-0.3,0.1-0.6c0.4,0,0.3,0.3,0.5,0.4&#10;&#9;&#9;&#9;c0.2-0.2,0.3-0.6,0.4-0.9c-0.3-0.1-0.4-0.2-0.5-0.4H170c0.1,0.3,0.1,0.6,0,0.8c-0.2-0.3-0.3-0.5-0.4-0.8h-6h-1.7h-1.4&#10;&#9;&#9;&#9;c0,0,0.1,0.1,0.1,0.2c-0.8-0.1-0.7,0.3-1.4,0.5c-0.1-0.4,0.5-0.4,0.6-0.6h-14.9c-0.1-0.3-0.1-0.6-0.2-0.9&#10;&#9;&#9;&#9;c-0.1-0.3-0.2-0.6-0.2-0.9c-0.1-0.4-0.2-0.8-0.3-1.2c-0.1-0.3-0.1-0.6-0.2-0.9c0-0.1-0.1-0.3-0.1-0.4c-0.1,0.2-0.2,0.3-0.3,0.4&#10;&#9;&#9;&#9;c0-0.3,0.1-0.6,0.3-0.8c0-0.1,0-0.2-0.1-0.4c-0.1-0.3-0.1-0.6-0.2-0.9c-0.1-0.4-0.1-0.8-0.2-1.2c0-0.3-0.1-0.6-0.1-0.9&#10;&#9;&#9;&#9;c-0.1-0.4-0.1-0.8-0.1-1.3c0-0.3-0.1-0.6-0.1-0.9c0-0.4-0.1-0.9-0.1-1.3c0-0.3,0-0.6-0.1-0.8c0-0.5-0.1-1-0.1-1.4&#10;&#9;&#9;&#9;c0-0.2,0-0.5,0-0.7c0-0.7,0-1.4,0-2.2c0-0.7,0-1.4,0-2.2c0-0.2,0-0.5,0-0.7c0-0.5,0-1,0.1-1.5c0-0.3,0-0.6,0.1-0.8&#10;&#9;&#9;&#9;c0-0.4,0.1-0.9,0.1-1.3c0-0.3,0.1-0.6,0.1-0.9c0-0.4,0.1-0.8,0.1-1.3c0-0.3,0.1-0.6,0.1-0.9c0.1-0.4,0.1-0.8,0.2-1.2&#10;&#9;&#9;&#9;c0.1-0.3,0.1-0.6,0.2-0.9c0.1-0.4,0.1-0.8,0.2-1.2c0.1-0.3,0.1-0.6,0.2-0.9c0.1-0.4,0.2-0.8,0.3-1.2c0.1-0.3,0.2-0.6,0.2-0.9&#10;&#9;&#9;&#9;c0.1-0.3,0.1-0.6,0.2-0.9h17h0.6c0-0.2-0.1-0.5,0.1-0.6c0.3,0.1,0.2,0.4,0.1,0.6h0.9h8.8c0.2-0.6,0.3-1.2,0.8-1.6&#10;&#9;&#9;&#9;c-0.1,0.6-0.2,1.2-0.7,1.6h18.5c0-0.2,0-0.5,0.1-0.6c0.2,0.2,0.3,0.4,0.3,0.6h5.3c0,0,0-0.1,0-0.1c0.1-0.1,0.3-0.3,0.5-0.3&#10;&#9;&#9;&#9;c0.1,0.1,0.1,0.3,0.1,0.4h2.1c1.1-0.8,2.8-1.4,4.6-1.6h-6.2c0,0.2,0,0.4-0.3,0.4c-0.3,0-0.3-0.2-0.3-0.4h-32.9&#10;&#9;&#9;&#9;c0-0.1,0.1-0.2,0.1-0.3c0.1-0.3,0.2-0.5,0.3-0.8c0.1-0.3,0.3-0.6,0.4-0.9c0.1-0.3,0.2-0.5,0.4-0.8c0.1-0.3,0.3-0.6,0.4-0.9&#10;&#9;&#9;&#9;c0.1-0.3,0.3-0.5,0.4-0.8c0.2-0.3,0.3-0.6,0.5-0.9c0.1-0.3,0.3-0.5,0.4-0.7c0.2-0.3,0.3-0.6,0.5-0.8c0.2-0.2,0.3-0.5,0.5-0.7&#10;&#9;&#9;&#9;c0.2-0.3,0.3-0.5,0.5-0.8c0.2-0.2,0.3-0.5,0.5-0.7c0.2-0.3,0.4-0.5,0.6-0.8c0.2-0.2,0.3-0.5,0.5-0.7c0.2-0.3,0.4-0.5,0.6-0.8&#10;&#9;&#9;&#9;c0.2-0.2,0.4-0.5,0.5-0.7c0.2-0.2,0.4-0.5,0.6-0.7c0.1-0.1,0.2-0.3,0.3-0.4c0,0-0.1,0-0.1,0c0.1,0,0.1-0.1,0.2-0.1&#10;&#9;&#9;&#9;c0.1-0.1,0.1-0.1,0.2-0.2c0.2-0.2,0.4-0.5,0.6-0.7c0.2-0.2,0.4-0.4,0.6-0.6c0.2-0.2,0.4-0.5,0.7-0.7c0.2-0.2,0.4-0.4,0.6-0.6&#10;&#9;&#9;&#9;c0.2-0.2,0.4-0.4,0.7-0.7c0.2-0.2,0.4-0.4,0.6-0.6c0.2-0.2,0.4-0.4,0.6-0.5c-0.1,0-0.1,0-0.2,0c0-0.3,0.2-0.5,0.8-0.5&#10;&#9;&#9;&#9;c0.1-0.1,0.1-0.1,0.2-0.2c0.2-0.2,0.5-0.4,0.7-0.6c0.2-0.2,0.4-0.4,0.7-0.5c0.2-0.2,0.5-0.4,0.7-0.6c0.2-0.2,0.5-0.4,0.7-0.5&#10;&#9;&#9;&#9;c0.3-0.2,0.5-0.4,0.8-0.5c0.2-0.2,0.5-0.3,0.7-0.5c0.3-0.2,0.5-0.3,0.8-0.5c0.2-0.2,0.5-0.3,0.7-0.5c0.3-0.2,0.5-0.3,0.8-0.5&#10;&#9;&#9;&#9;c0.2-0.2,0.5-0.3,0.7-0.4c0.3-0.2,0.5-0.3,0.8-0.5c0.3-0.1,0.5-0.3,0.8-0.4c0.3-0.1,0.6-0.3,0.8-0.4c0.3-0.1,0.5-0.3,0.8-0.4&#10;&#9;&#9;&#9;c0.3-0.1,0.6-0.3,0.9-0.4c0.3-0.1,0.5-0.2,0.8-0.4c0.3-0.1,0.6-0.2,0.9-0.4c0.3-0.1,0.5-0.2,0.8-0.3c0.3-0.1,0.6-0.2,0.9-0.3&#10;&#9;&#9;&#9;c0.3-0.1,0.5-0.2,0.8-0.3c0.3-0.1,0.6-0.2,0.9-0.3c0.3-0.1,0.5-0.2,0.8-0.3c0.3-0.1,0.6-0.2,0.9-0.3c0.3-0.1,0.5-0.2,0.8-0.2&#10;&#9;&#9;&#9;c0.3-0.1,0.6-0.2,0.9-0.2c0.3-0.1,0.5-0.1,0.8-0.2c0.3-0.1,0.6-0.1,1-0.2c0.3-0.1,0.5-0.1,0.8-0.2c0.3-0.1,0.7-0.1,1-0.2&#10;&#9;&#9;&#9;c0.3,0,0.5-0.1,0.8-0.1c0.3-0.1,0.7-0.1,1-0.1c0.3,0,0.5-0.1,0.8-0.1c0.4,0,0.7-0.1,1.1-0.1c0.2,0,0.5-0.1,0.7-0.1&#10;&#9;&#9;&#9;c0.4,0,0.8-0.1,1.2-0.1c0.2,0,0.4,0,0.6,0c0.6,0,1.2,0,1.9,0c0.6,0,1.2,0,1.9,0c0.2,0,0.4,0,0.6,0c0.4,0,0.8,0,1.2,0.1&#10;&#9;&#9;&#9;c0.2,0,0.5,0,0.7,0.1c0.4,0,0.7,0.1,1.1,0.1c0.3,0,0.5,0.1,0.8,0.1c0.3,0,0.7,0.1,1,0.1c0.3,0,0.5,0.1,0.8,0.1&#10;&#9;&#9;&#9;c0.3,0.1,0.7,0.1,1,0.2c0.3,0.1,0.5,0.1,0.8,0.2c0.3,0.1,0.6,0.1,1,0.2c0.3,0.1,0.5,0.1,0.8,0.2c0.3,0.1,0.6,0.2,0.9,0.2&#10;&#9;&#9;&#9;c0.3,0.1,0.5,0.2,0.8,0.2c0.3,0.1,0.6,0.2,0.9,0.3c0.3,0.1,0.5,0.2,0.8,0.3c0.3,0.1,0.6,0.2,0.9,0.3c0.3,0.1,0.5,0.2,0.8,0.3&#10;&#9;&#9;&#9;c0.3,0.1,0.6,0.2,0.9,0.3c0.3,0.1,0.5,0.2,0.8,0.3c0.3,0.1,0.6,0.2,0.9,0.4c0.3,0.1,0.5,0.2,0.8,0.4c0.3,0.1,0.6,0.3,0.9,0.4&#10;&#9;&#9;&#9;c0.3,0.1,0.5,0.3,0.8,0.4c0.3,0.1,0.6,0.3,0.8,0.4c0.3,0.1,0.5,0.3,0.8,0.4c0.3,0.2,0.5,0.3,0.8,0.5c0,0,0,0,0,0&#10;&#9;&#9;&#9;c0.6-0.2,1.3-0.5,1.9-0.7c-0.1,0-0.1-0.1-0.2-0.1c-0.3-0.2-0.6-0.3-0.9-0.5c-0.3-0.1-0.5-0.3-0.8-0.4c-0.3-0.2-0.6-0.3-0.9-0.5&#10;&#9;&#9;&#9;c-0.3-0.1-0.5-0.3-0.8-0.4c-0.3-0.1-0.6-0.3-0.9-0.4c-0.3-0.1-0.5-0.3-0.8-0.4c-0.3-0.1-0.6-0.3-0.9-0.4c-0.3-0.1-0.6-0.2-0.8-0.4&#10;&#9;&#9;&#9;c-0.3-0.1-0.6-0.3-0.9-0.4c-0.3-0.1-0.6-0.2-0.9-0.3c-0.3-0.1-0.6-0.2-0.9-0.3c-0.3-0.1-0.6-0.2-0.9-0.3c-0.3-0.1-0.6-0.2-0.9-0.3&#10;&#9;&#9;&#9;c-0.3-0.1-0.6-0.2-0.9-0.3c-0.3-0.1-0.6-0.2-0.9-0.3c-0.3-0.1-0.6-0.2-0.9-0.2c-0.3-0.1-0.6-0.2-0.9-0.2c-0.3-0.1-0.6-0.1-1-0.2&#10;&#9;&#9;&#9;c-0.3-0.1-0.6-0.1-0.9-0.2c-0.3-0.1-0.7-0.1-1-0.2c-0.3-0.1-0.6-0.1-0.9-0.2c-0.3-0.1-0.7-0.1-1.1-0.1c-0.3,0-0.6-0.1-0.8-0.1&#10;&#9;&#9;&#9;c-0.4,0-0.8-0.1-1.1-0.1c-0.3,0-0.5-0.1-0.8-0.1c-0.4,0-0.9-0.1-1.3-0.1c-0.2,0-0.4,0-0.6,0c-0.6,0-1.3,0-1.9,0s-1.3,0-1.9,0&#10;&#9;&#9;&#9;c-0.2,0-0.4,0-0.6,0c-0.4,0-0.9,0-1.3,0.1c-0.3,0-0.5,0.1-0.8,0.1c-0.4,0-0.8,0.1-1.1,0.1c-0.3,0-0.6,0.1-0.8,0.1&#10;&#9;&#9;&#9;c-0.4,0-0.7,0.1-1.1,0.1c-0.3,0-0.6,0.1-0.9,0.2c-0.3,0.1-0.7,0.1-1,0.2c-0.3,0.1-0.6,0.1-0.9,0.2c-0.3,0.1-0.6,0.1-1,0.2&#10;&#9;&#9;&#9;c-0.3,0.1-0.6,0.2-0.9,0.2c-0.3,0.1-0.6,0.2-0.9,0.2c-0.3,0.1-0.6,0.2-0.9,0.3c-0.3,0.1-0.6,0.2-0.9,0.3c-0.3,0.1-0.6,0.2-0.9,0.3&#10;&#9;&#9;&#9;c-0.3,0.1-0.6,0.2-0.9,0.3c-0.3,0.1-0.6,0.2-0.9,0.3c-0.3,0.1-0.6,0.2-0.9,0.3c-0.3,0.1-0.6,0.3-0.9,0.4c-0.3,0.1-0.6,0.2-0.8,0.4&#10;&#9;&#9;&#9;c-0.3,0.1-0.6,0.3-0.9,0.4c-0.3,0.1-0.5,0.2-0.8,0.4c-0.3,0.1-0.6,0.3-0.9,0.4c-0.3,0.1-0.5,0.3-0.8,0.4c-0.3,0.2-0.6,0.3-0.9,0.5&#10;&#9;&#9;&#9;c-0.3,0.1-0.5,0.3-0.8,0.4c-0.1,0.1-0.3,0.2-0.4,0.3c0,0.2,0,0.3,0.1,0.6c-0.2,0-0.2,0.1-0.4,0.1c0-0.2,0-0.3,0-0.4c0,0,0,0-0.1,0&#10;&#9;&#9;&#9;c-0.3,0.2-0.5,0.3-0.8,0.5c-0.3,0.2-0.6,0.4-0.8,0.5c-0.2,0.2-0.5,0.3-0.7,0.5c-0.3,0.2-0.5,0.4-0.8,0.6c-0.2,0.2-0.5,0.3-0.7,0.5&#10;&#9;&#9;&#9;c-0.3,0.2-0.5,0.4-0.8,0.6c-0.2,0.2-0.5,0.4-0.7,0.5c-0.3,0.2-0.5,0.4-0.8,0.6c-0.2,0.2-0.4,0.4-0.7,0.6c-0.3,0.2-0.5,0.4-0.8,0.7&#10;&#9;&#9;&#9;c-0.2,0.2-0.4,0.4-0.6,0.6c-0.2,0.2-0.5,0.5-0.7,0.7c-0.2,0.2-0.4,0.4-0.6,0.6c-0.2,0.2-0.5,0.5-0.7,0.7c-0.2,0.2-0.4,0.4-0.6,0.6&#10;&#9;&#9;&#9;c-0.2,0.2-0.4,0.5-0.7,0.7c-0.2,0.2-0.4,0.4-0.6,0.7c-0.2,0.3-0.4,0.5-0.6,0.8c-0.2,0.2-0.4,0.5-0.6,0.7c-0.2,0.3-0.4,0.5-0.6,0.8&#10;&#9;&#9;&#9;c-0.1,0.1-0.2,0.3-0.3,0.4c0.2-0.1,0.4-0.1,0.6-0.2c-0.2,0.2-0.5,0.3-0.8,0.5c0,0,0,0,0,0c-0.2,0.3-0.4,0.5-0.6,0.8&#10;&#9;&#9;&#9;c-0.2,0.2-0.4,0.5-0.5,0.7c-0.2,0.3-0.4,0.5-0.5,0.8c-0.2,0.3-0.3,0.5-0.5,0.8c-0.2,0.3-0.3,0.6-0.5,0.8c-0.2,0.3-0.3,0.5-0.5,0.8&#10;&#9;&#9;&#9;c-0.2,0.3-0.3,0.6-0.5,0.8c-0.2,0.3-0.3,0.6-0.5,0.8c-0.1,0.3-0.3,0.6-0.4,0.8c-0.1,0.3-0.3,0.6-0.4,0.9c-0.1,0.3-0.3,0.6-0.4,0.9&#10;&#9;&#9;&#9;c-0.1,0.3-0.3,0.6-0.4,0.9c-0.1,0.3-0.2,0.6-0.4,0.9c-0.1,0.2-0.2,0.4-0.3,0.7h-1.8c0,0.5,0,1,0,1.5c-0.2,0-0.2,0.1-0.4,0.1&#10;&#9;&#9;&#9;c0-0.5-0.1-1-0.1-1.6h-14.8c0.1-0.3,0.2-0.6,0.2-0.9c0.1-0.4,0.3-0.9,0.4-1.3c0.1-0.4,0.3-0.9,0.5-1.3c0.1-0.4,0.3-0.9,0.5-1.3&#10;&#9;&#9;&#9;c0.1-0.4,0.3-0.7,0.4-1.1c-0.3,0.1-0.6,0.1-0.9,0.2c0.1-0.3,0.6-0.3,1-0.5c0,0,0,0,0,0c0.2-0.4,0.3-0.8,0.5-1.3&#10;&#9;&#9;&#9;c0.2-0.4,0.4-0.8,0.5-1.3c0.2-0.4,0.4-0.8,0.6-1.2c0.1-0.2,0.2-0.3,0.3-0.5c-0.2-0.2-0.6-0.5-0.3-0.7c0.1,0.1,0.3,0.2,0.4,0.4&#10;&#9;&#9;&#9;c0.1-0.1,0.1-0.3,0.2-0.4c0.2-0.4,0.4-0.8,0.6-1.2c0.2-0.4,0.4-0.8,0.6-1.2c0.2-0.4,0.4-0.8,0.7-1.2c0.2-0.4,0.5-0.8,0.7-1.2&#10;&#9;&#9;&#9;c0.2-0.4,0.5-0.8,0.7-1.2c0.2-0.4,0.5-0.7,0.7-1.1c0.3-0.4,0.5-0.8,0.8-1.1c0.2-0.4,0.5-0.7,0.8-1.1c0.3-0.4,0.5-0.7,0.8-1.1&#10;&#9;&#9;&#9;c0.2-0.3,0.5-0.6,0.7-1c-0.2-0.7-0.3-1.4-0.4-2.1c-5.7,7.1-10.1,15.4-12.7,24.5h0l-0.2,0.6l-0.3,1h0c-1.4,5.5-2.1,11.2-2.1,16.8&#10;&#9;&#9;&#9;c0,5.7,0.7,11.3,2.1,16.8h0l0.3,1l0.2,0.6h0c0.3,1,0.6,1.9,0.9,2.9c0.5-0.2,1-0.3,1.5-0.4C146,868.5,146,868.4,146,868.3z&#10;&#9;&#9;&#9; M169.2,865c-0.6,0.3-1.5,0.3-1.8,0.8c0.1-0.3-0.4-0.2-0.3-0.4C167.7,865.3,168.4,864.7,169.2,865z M165,864.8&#10;&#9;&#9;&#9;c-0.2,0.1-0.6,0.3-0.7,0C164.4,864.7,164.9,864.6,165,864.8z M201.1,829.3c-0.1,0.2-0.1,0.4-0.4,0.5&#10;&#9;&#9;&#9;C200.4,829.6,200.9,829.5,201.1,829.3z M199.2,829.3c0.1,0.6-0.3,1.3-1.2,1.1C198.8,830.3,198.5,829.5,199.2,829.3z M226.5,800.7&#10;&#9;&#9;&#9;c-0.1,0.3,0.4,0.2,0.3,0.6c-0.3,0-0.4-0.1-0.7-0.2C226.1,800.9,226.3,800.8,226.5,800.7z M177.5,810.1c0.1,0.3-0.6,0.2-0.7,0.4&#10;&#9;&#9;&#9;c0.1-0.3-0.4-0.2-0.3-0.4C176.8,810,177.2,809.9,177.5,810.1z M175.4,811.4c0.6,0.1,0.8-0.3,1.1-0.1c0,0.4-0.9,0.2-1.1,0.4&#10;&#9;&#9;&#9;C175.4,811.6,175.4,811.5,175.4,811.4z M170.3,816.8c1.1,0.2,1-0.7,1.8-0.5c-0.4,0.4-1.1,0.7-1.9,0.9c0,0.1,0,0.1-0.1,0.1&#10;&#9;&#9;&#9;C169.9,817,170.2,816.9,170.3,816.8z M142.8,861.7c-0.1-0.3,0.4-0.7,0.5-0.3C143,861.3,143,861.6,142.8,861.7z"/>
		<path fill="#CCCCCC" d="M225.5,829.3c0.1,0.1,0.1,0.4,0.1,0.5c-0.4,0.1-0.4-0.3-0.2-0.5h-1.5c0,0.1,0,0.1,0,0.2&#10;&#9;&#9;&#9;c-0.4,0-0.9,0.2-0.9-0.2h-1.1c0.1,0,0.3,0,0.4,0c-0.9,0.3-2.7,0.2-3.8,0.2c0.2-0.1,0.5-0.2,0.7-0.2h-6.7c0.4,0.2,0.5,0.5,1.2,0.5&#10;&#9;&#9;&#9;c0.5-0.3,1.9-0.2,2.4-0.5c0,0.1,0,0.2,0.1,0.2c-0.4,0.4-1.3,0.5-2.3,0.5c0,0.1,0,0.3-0.1,0.3c-0.8,0-1,0.1-1.6,0&#10;&#9;&#9;&#9;c0.1,0.1,0.2,0.1,0,0.2c-0.8,0.1-1.4,0.2-2.1,0.3h2.5c-0.1-0.1-0.1-0.1-0.1-0.2c0.3,0,0.5,0.1,0.6,0.2h14.7c0.5-0.5,1-1.1,1.5-1.6&#10;&#9;&#9;&#9;H225.5z M217.5,829.6c-0.2-0.3,0.3-0.2,0.7-0.2C218.3,829.6,217.9,829.6,217.5,829.6z"/>
		<path fill="#CCCCCC" d="M275,859.9c0,0.2-0.1,0.5-0.1,0.7c-0.1,0.3-0.1,0.6-0.2,0.9c-0.1,0.3-0.1,0.6-0.2,0.9&#10;&#9;&#9;&#9;c0.2,0.6,0.3,1.2,0.4,1.7c0.4-0.3,0.7-0.6,1-0.9c0.3-1.2,0.5-2.3,0.7-3.5C276.1,859.8,275.5,859.8,275,859.9z"/>
		<path fill="#CCCCCC" d="M258.9,803c0.2,0.2,0.4,0.4,0.6,0.7c0.3,0.3,0.6,0.7,0.9,1c0.3,0.3,0.6,0.7,0.8,1c0.3,0.4,0.6,0.7,0.9,1.1&#10;&#9;&#9;&#9;c0.3,0.3,0.5,0.7,0.8,1c0.3,0.4,0.5,0.7,0.8,1.1c0.3,0.4,0.5,0.7,0.8,1.1c0.3,0.4,0.5,0.8,0.8,1.1c0.2,0.4,0.5,0.7,0.7,1.1&#10;&#9;&#9;&#9;c0.2,0.3,0.3,0.5,0.5,0.8c0.6-0.1,1.2-0.1,1.7-0.2c-2.2-3.6-4.7-7-7.4-10.2C260.2,802.8,259.6,803,258.9,803z"/>
		<path fill="#CCCCCC" d="M268,815.8c0.2,0.4,0.4,0.8,0.6,1.2c0.2,0.4,0.4,0.8,0.6,1.2c0.2,0.4,0.4,0.8,0.6,1.2&#10;&#9;&#9;&#9;c0.2,0.4,0.4,0.8,0.6,1.2c0.2,0.4,0.4,0.8,0.5,1.3c0.1,0.3,0.3,0.7,0.4,1c0.5,0,1,0,1.5,0c0.1,0,0.2,0,0.3,0&#10;&#9;&#9;&#9;c-0.4-1.1-0.9-2.2-1.4-3.2c-0.3,0.3-0.9,0.3-1.4,0.5c0.3-0.3,0.5-0.6,1.3-0.6c-1-2.2-2-4.2-3.2-6.3c-0.6,0.1-1.2,0.2-1.7,0.2&#10;&#9;&#9;&#9;c0.2,0.4,0.4,0.7,0.6,1.1C267.5,815,267.8,815.4,268,815.8z M272.4,821.9c0,0.2,0,0.3,0,0.5c-0.3,0-0.3-0.1-0.5-0.1&#10;&#9;&#9;&#9;C271.8,822.1,271.9,821.8,272.4,821.9z"/>
		<path fill="#CCCCCC" d="M274,864.5h-5.7c0,0.2,0.1,0.5,0.1,0.7c0-0.1-0.2-0.4-0.3-0.7h-11h-1.7H233c-0.1,0.3,0.2,0.9-0.1,1&#10;&#9;&#9;&#9;c-0.2-0.1,0-1,0.1-1h-2.3c-0.2,0.3-0.6,0.5-1.1,0.6c0-0.2,0.1-0.4,0.2-0.6h-13.7c-0.2,0.6-0.4,1.3-1.2,1.5&#10;&#9;&#9;&#9;c0.2-0.4-0.5-0.2-0.4-0.5c0.3-0.3,0.4-0.7,0.8-1.1h-5.6c-1.1,0.3-2.6,0.4-3.6,0.4c0.5-0.2,1-0.3,1.6-0.4h-4.8&#10;&#9;&#9;&#9;c-0.1,0.2-0.2,0.4-0.4,0.6c-0.1-0.1-0.3-0.3-0.3-0.6h-4c0,0.4,0.6,0.7-0.3,0.7c0-0.4,0.1-0.5-0.1-0.7h-5.6&#10;&#9;&#9;&#9;c-0.1,0.3-0.6,0.6-0.8,0.8c0-0.4,0.3-0.6,0.6-0.8h-0.5c0,0.4-0.1,0.8-0.3,1.1c0,0.2-0.1,0.4-0.2,0.6h2.7c-0.1,0-0.1,0-0.1-0.1&#10;&#9;&#9;&#9;c0.3-0.1,0.4-0.2,0.8-0.2c0.1,0.1,0.2,0.2,0.3,0.3h2.1c0.5,0,1-0.1,1.4-0.1c0.2-0.1,0-0.5,0.4-0.5c0,0.1,0,0.2,0.1,0.3&#10;&#9;&#9;&#9;c0,0,0,0,0-0.1c0.2,0,0.3,0.1,0.4,0.1c2.2-0.4,4.2-0.7,6.6-1c0.1-0.1,0.3-0.2,0.6-0.3c0,0.1-0.1,0.3-0.2,0.4c0,0.1,0,0.2,0,0.3&#10;&#9;&#9;&#9;c-0.1,0-0.2,0-0.2,0c-0.3,0.2-0.6,0.4-0.8,0.2c0.1,0,0.1-0.1,0.2-0.2c-0.6,0.1-1.3,0.3-2,0.3c-0.9,0-1.7,0.1-1.9,0.6&#10;&#9;&#9;&#9;c-0.4,0.1-0.2-0.3-0.5-0.2c-0.4,0.1-0.9,0.1-1.3,0.2c0.1,0,0.1,0.1,0.2,0.1c0,0,0,0,0,0l4.7,0c0.1-0.1,0.2-0.1,0.4-0.2&#10;&#9;&#9;&#9;c0,0.1-0.1,0.1-0.2,0.2H220c0,0,0,0,0,0c0,0,0,0,0,0h5.2c-0.1-0.5-0.3-1.2,0.1-1.6c-0.1,0.6,0.1,1.1,0.1,1.6h6.8c0,0,0,0,0,0&#10;&#9;&#9;&#9;c0.2,0,0.2-0.1,0.4-0.1c0,0,0,0.1,0,0.1h15.5c0-0.1,0.1-0.1,0.2-0.2c0,0,0.1,0.1,0.1,0.2h0.6c-0.1-0.3-0.1-0.6,0.1-0.8&#10;&#9;&#9;&#9;c0.2,0.3,0.3,0.5,0.4,0.8h5c0,0.1-0.1,0.2-0.1,0.3c-0.1,0.3-0.2,0.5-0.3,0.8c-0.1,0.3-0.3,0.6-0.4,0.9c-0.1,0.3-0.2,0.5-0.4,0.8&#10;&#9;&#9;&#9;c-0.1,0.3-0.3,0.6-0.4,0.9c-0.1,0.3-0.3,0.5-0.4,0.8c-0.2,0.3-0.3,0.6-0.5,0.9c-0.1,0.3-0.3,0.5-0.4,0.7c-0.2,0.3-0.3,0.6-0.5,0.8&#10;&#9;&#9;&#9;c-0.2,0.2-0.3,0.5-0.5,0.7c-0.2,0.3-0.3,0.5-0.5,0.8c-0.2,0.2-0.3,0.5-0.5,0.7c-0.2,0.3-0.4,0.5-0.6,0.8c-0.2,0.2-0.3,0.5-0.5,0.7&#10;&#9;&#9;&#9;c-0.2,0.3-0.4,0.5-0.6,0.8c-0.2,0.2-0.4,0.5-0.5,0.7c-0.2,0.2-0.4,0.5-0.6,0.7c-0.2,0.2-0.4,0.4-0.6,0.7c-0.2,0.2-0.4,0.5-0.6,0.7&#10;&#9;&#9;&#9;c-0.2,0.2-0.4,0.4-0.6,0.6c-0.2,0.2-0.4,0.5-0.7,0.7c-0.2,0.2-0.4,0.4-0.6,0.6c-0.2,0.2-0.5,0.4-0.7,0.7c-0.2,0.2-0.4,0.4-0.6,0.6&#10;&#9;&#9;&#9;c-0.2,0.2-0.5,0.4-0.7,0.6c-0.2,0.2-0.4,0.4-0.6,0.6c-0.2,0.2-0.5,0.4-0.7,0.6c-0.2,0.2-0.4,0.4-0.7,0.5c-0.2,0.2-0.5,0.4-0.8,0.6&#10;&#9;&#9;&#9;c-0.2,0.2-0.5,0.3-0.7,0.5c-0.3,0.2-0.5,0.4-0.8,0.6c-0.2,0.2-0.5,0.3-0.7,0.5c-0.3,0.2-0.5,0.4-0.8,0.5c-0.2,0.2-0.5,0.3-0.7,0.5&#10;&#9;&#9;&#9;c-0.3,0.2-0.5,0.3-0.8,0.5c-0.2,0.1-0.5,0.3-0.7,0.4c-0.3,0.2-0.6,0.3-0.8,0.5c-0.2,0.1-0.5,0.3-0.7,0.4c-0.3,0.2-0.6,0.3-0.9,0.4&#10;&#9;&#9;&#9;c-0.3,0.1-0.5,0.3-0.8,0.4c-0.3,0.1-0.6,0.3-0.9,0.4c-0.3,0.1-0.5,0.2-0.8,0.4c-0.3,0.1-0.6,0.3-0.9,0.4c-0.3,0.1-0.5,0.2-0.8,0.3&#10;&#9;&#9;&#9;c-0.3,0.1-0.6,0.2-0.9,0.3c-0.3,0.1-0.5,0.2-0.8,0.3c-0.3,0.1-0.6,0.2-0.9,0.3c-0.3,0.1-0.5,0.2-0.8,0.3c-0.3,0.1-0.6,0.2-0.9,0.3&#10;&#9;&#9;&#9;c-0.3,0.1-0.5,0.2-0.8,0.2c-0.3,0.1-0.6,0.2-1,0.2c-0.3,0.1-0.5,0.1-0.8,0.2c-0.3,0.1-0.7,0.1-1,0.2c-0.3,0.1-0.5,0.1-0.8,0.2&#10;&#9;&#9;&#9;c-0.3,0.1-0.7,0.1-1,0.2c-0.3,0-0.5,0.1-0.8,0.1c-0.3,0.1-0.7,0.1-1,0.1c-0.3,0-0.5,0.1-0.8,0.1c-0.4,0-0.7,0.1-1.1,0.1&#10;&#9;&#9;&#9;c-0.2,0-0.5,0.1-0.7,0.1c-0.4,0-0.8,0.1-1.2,0.1c-0.2,0-0.4,0-0.6,0c-0.6,0-1.2,0-1.8,0c0,0.6-0.4,0.9-0.9,1.1&#10;&#9;&#9;&#9;c0-0.1,0.1-0.4-0.3-0.3c0.3,0.4-0.4,0.5-0.9,0.8c0,0,0,0,0.1,0c0.6,0,1.3,0,1.9,0s1.3,0,1.9,0c0.2,0,0.4,0,0.7,0&#10;&#9;&#9;&#9;c0.4,0,0.8,0,1.2-0.1c0.3,0,0.5-0.1,0.8-0.1c0.4,0,0.7-0.1,1.1-0.1c0.3,0,0.6-0.1,0.9-0.1c0.3,0,0.7-0.1,1-0.1&#10;&#9;&#9;&#9;c0.3,0,0.6-0.1,0.9-0.2c0.3-0.1,0.7-0.1,1-0.2c0.3-0.1,0.6-0.1,0.9-0.2c0.3-0.1,0.6-0.1,1-0.2c0.3-0.1,0.6-0.2,0.9-0.2&#10;&#9;&#9;&#9;c0.3-0.1,0.6-0.2,0.9-0.2c0.3-0.1,0.6-0.2,0.9-0.3c0.3-0.1,0.6-0.2,0.9-0.3c0.3-0.1,0.6-0.2,0.9-0.3c0.3-0.1,0.6-0.2,0.9-0.3&#10;&#9;&#9;&#9;c0.3-0.1,0.6-0.2,0.9-0.3c0.3-0.1,0.6-0.2,0.8-0.3c0.3-0.1,0.6-0.3,0.9-0.4c0.3-0.1,0.5-0.2,0.8-0.3c0.3-0.1,0.6-0.3,0.9-0.4&#10;&#9;&#9;&#9;c0.3-0.1,0.5-0.2,0.8-0.4c0.3-0.1,0.6-0.3,0.9-0.5c0.3-0.1,0.5-0.3,0.8-0.4c0.3-0.2,0.6-0.3,0.9-0.5c0.3-0.1,0.5-0.3,0.8-0.4&#10;&#9;&#9;&#9;c0.3-0.2,0.6-0.3,0.9-0.5c0.2-0.2,0.5-0.3,0.7-0.5c0.3-0.2,0.6-0.4,0.8-0.5c0.2-0.2,0.5-0.3,0.7-0.5c0.3-0.2,0.5-0.4,0.8-0.6&#10;&#9;&#9;&#9;c0.2-0.2,0.5-0.3,0.7-0.5c0.3-0.2,0.5-0.4,0.8-0.6c0.2-0.2,0.5-0.4,0.7-0.5c0.3-0.2,0.5-0.4,0.8-0.6c0.2-0.2,0.5-0.4,0.7-0.6&#10;&#9;&#9;&#9;c0.2-0.2,0.5-0.4,0.7-0.7c0.2-0.2,0.4-0.4,0.7-0.6c0.2-0.2,0.5-0.5,0.7-0.7c0.2-0.2,0.4-0.4,0.6-0.6c0.2-0.2,0.5-0.5,0.7-0.7&#10;&#9;&#9;&#9;c0.2-0.2,0.4-0.4,0.6-0.7c0.2-0.2,0.4-0.5,0.7-0.7c0.1-0.1,0.3-0.3,0.4-0.4c0.1-0.4,0.2-0.9,0.2-1.3c0.2,0.2,0.3,0.4,0.3,0.7&#10;&#9;&#9;&#9;c0.1-0.1,0.2-0.3,0.3-0.4c0.2-0.2,0.4-0.5,0.6-0.7c0.2-0.2,0.4-0.5,0.6-0.8c0.2-0.2,0.4-0.5,0.6-0.7c0.2-0.3,0.4-0.5,0.6-0.8&#10;&#9;&#9;&#9;c0.2-0.3,0.4-0.5,0.5-0.8c0.2-0.3,0.4-0.5,0.5-0.8c0.2-0.3,0.3-0.5,0.5-0.8c0.2-0.3,0.3-0.5,0.5-0.8c0.2-0.3,0.3-0.5,0.5-0.8&#10;&#9;&#9;&#9;c0.2-0.3,0.3-0.5,0.5-0.8c0.2-0.3,0.3-0.6,0.5-0.9c0.1-0.3,0.3-0.6,0.4-0.8c0.1-0.3,0.3-0.6,0.4-0.9c0.1-0.3,0.3-0.6,0.4-0.8&#10;&#9;&#9;&#9;c0.1-0.3,0.3-0.6,0.4-0.9c0.1-0.3,0.2-0.6,0.4-0.9c0.1-0.2,0.2-0.4,0.3-0.7H273c0.5-0.6,1.1-1.1,1.6-1.7c-0.1-0.4-0.2-0.9-0.3-1.3&#10;&#9;&#9;&#9;c0,0.2-0.1,0.3-0.1,0.5C274.1,864,274,864.3,274,864.5z M248.5,865.7c-0.1-0.3-0.7-0.3-0.5-0.7C248.6,865,248.8,865.5,248.5,865.7&#10;&#9;&#9;&#9;z M227.3,893.5c0.1,0.2,0.3,0.5,0.3,0.8C227.2,894.3,226.8,893.5,227.3,893.5z M247.7,879c0.1-0.2,0.1-0.5,0.4-0.6&#10;&#9;&#9;&#9;c0.2,0.1,0.2,0.3,0.1,0.5C248,878.9,247.9,879,247.7,879z"/>
		<path fill="#CCCCCC" d="M206.9,896.5c-0.4,0-0.8,0-1.2-0.1c-0.2,0-0.5,0-0.7-0.1c-0.4,0-0.7-0.1-1.1-0.1c0,0.1,0,0.2-0.1,0.2&#10;&#9;&#9;&#9;c-0.5,0-0.2,0.5-0.8,0.4c-0.3-0.1-0.2-0.4-0.4-0.6c0-0.1,0.1-0.2,0.3-0.2c-0.3,0-0.6-0.1-0.9-0.1c-0.3,0-0.5-0.1-0.8-0.1&#10;&#9;&#9;&#9;c-0.3-0.1-0.7-0.1-1-0.2c-0.3-0.1-0.5-0.1-0.8-0.2c-0.3-0.1-0.7-0.1-1-0.2c-0.3-0.1-0.5-0.1-0.8-0.2c-0.3-0.1-0.6-0.2-1-0.2&#10;&#9;&#9;&#9;c-0.3-0.1-0.5-0.2-0.8-0.2c-0.3-0.1-0.6-0.2-0.9-0.3c-0.3-0.1-0.5-0.2-0.8-0.3c-0.3-0.1-0.6-0.2-0.9-0.3c-0.3-0.1-0.5-0.2-0.8-0.3&#10;&#9;&#9;&#9;c-0.3-0.1-0.6-0.2-0.9-0.3c-0.3-0.1-0.5-0.2-0.8-0.3c-0.3-0.1-0.6-0.2-0.9-0.4c-0.3-0.1-0.5-0.2-0.8-0.4c-0.3-0.1-0.6-0.3-0.9-0.4&#10;&#9;&#9;&#9;c-0.3-0.1-0.5-0.3-0.8-0.4c0,0-0.1,0-0.1,0c-0.4,0.4-0.8,0.8-1.2,1.2c0.1,0.1,0.2,0.1,0.3,0.2c0.3,0.2,0.6,0.3,0.9,0.5&#10;&#9;&#9;&#9;c0.3,0.1,0.5,0.2,0.8,0.4c0.3,0.1,0.6,0.3,0.9,0.4c0.3,0.1,0.5,0.2,0.8,0.3c0.3,0.1,0.6,0.3,0.9,0.4c0.3,0.1,0.6,0.2,0.8,0.3&#10;&#9;&#9;&#9;c0.3,0.1,0.6,0.2,0.9,0.3c0.3,0.1,0.6,0.2,0.9,0.3c0.3,0.1,0.6,0.2,0.9,0.3c0.3,0.1,0.6,0.2,0.9,0.3c0.3,0.1,0.6,0.2,0.9,0.3&#10;&#9;&#9;&#9;c0.3,0.1,0.6,0.2,0.9,0.2c0.3,0.1,0.6,0.2,0.9,0.2c0.3,0.1,0.6,0.1,1,0.2c0.3,0.1,0.6,0.1,0.9,0.2c0.3,0.1,0.7,0.1,1,0.2&#10;&#9;&#9;&#9;c0.3,0.1,0.6,0.1,0.9,0.2c0.2,0,0.3,0,0.5,0.1c0.1-0.1,0.2-0.3,0.6-0.2c0,0.1,0,0.2,0,0.3c0.3,0,0.5,0.1,0.8,0.1&#10;&#9;&#9;&#9;c0.2,0,0.4,0,0.6,0.1c0,0,0,0,0-0.1c0.1,0,0.3,0,0.4,0c0,0,0,0.1,0,0.1c0,0,0.1,0,0.1,0c0.3,0,0.5,0.1,0.8,0.1&#10;&#9;&#9;&#9;c0.3,0,0.7,0,1.1,0.1c0.3-0.5,0.5-1.1,0.8-1.6C207.3,896.5,207.1,896.5,206.9,896.5z M191.7,894.9c0-0.3,0.6-0.3,0.7-0.5&#10;&#9;&#9;&#9;C192.4,894.7,192.1,894.8,191.7,894.9z"/>
		<path fill="#CCCCCC" d="M199.1,866.1C199,866.2,199,866.2,199.1,866.1L199.1,866.1C199.1,866.2,199.1,866.2,199.1,866.1z"/>
		<path fill="#CCCCCC" d="M209.3,896.5c-0.1,0-0.1,0-0.2,0c0,0,0,0.1,0.1,0.1C209.2,896.6,209.2,896.6,209.3,896.5z"/>
		<path fill="#CCCCCC" d="M186.7,891.4c0.1-0.2-0.3-0.2-0.3-0.3c0.2,0,0.2-0.1,0.4-0.1c-0.1,0-0.2-0.1-0.2-0.1&#10;&#9;&#9;&#9;c-0.2-0.1-0.5-0.3-0.7-0.4c-0.3-0.2-0.6-0.3-0.8-0.5c-0.2-0.1-0.5-0.3-0.7-0.4c-0.3-0.2-0.5-0.3-0.8-0.5c-0.2-0.2-0.5-0.3-0.7-0.5&#10;&#9;&#9;&#9;c-0.3-0.2-0.5-0.3-0.8-0.5c-0.2-0.2-0.5-0.3-0.7-0.5c-0.1-0.1-0.3-0.2-0.4-0.3c-0.1,0.6-0.2,1.2-0.4,1.7c0.2,0.1,0.3,0.2,0.5,0.4&#10;&#9;&#9;&#9;c0.2,0.2,0.5,0.3,0.7,0.5c0.1,0,0.1,0.1,0.2,0.1c0,0,0.1-0.1,0.1-0.1c0-0.4-0.2-0.9,0.4-1c0.5,0.3-0.3,0.4-0.3,0.7&#10;&#9;&#9;&#9;c0.4,0.1,0.4,0.4,0.2,0.7c0.1,0.1,0.2,0.1,0.2,0.2c0.2,0.2,0.5,0.3,0.7,0.5c0.3,0.2,0.6,0.4,0.9,0.5c0.2,0.1,0.5,0.3,0.8,0.4&#10;&#9;&#9;&#9;c0.3,0.2,0.6,0.3,0.8,0.5c0.1-0.2,0.2-0.3,0.2-0.5C186.3,891.7,186.6,891.6,186.7,891.4z M186.2,890.8c0.1,0.3,0,0.6-0.5,0.6&#10;&#9;&#9;&#9;C185.6,891.1,185.7,890.8,186.2,890.8z"/>
		<path fill="#CCCCCC" d="M210.6,830c-0.3-0.2-0.6-0.5-0.1-0.7c0.1,0.2,0.6,0.5,1.1,0.3c0,0.5,1.1,0.3,1.2,0.1&#10;&#9;&#9;&#9;c-0.2-0.2-0.9,0-1.1-0.2c0-0.1,0-0.2,0.1-0.3h-7c0,0,0,0.1,0,0.1c-0.4,0-1,0-1.1,0.4c-1.1,0-2.2,0.5-3,1.1h8.3&#10;&#9;&#9;&#9;c0.4-0.1,0.7-0.1,1.1-0.2C210,830.3,210.4,830.4,210.6,830z"/>
		<path fill="#CCCCCC" d="M179.8,886.4c-0.3-0.2-0.5-0.4-0.8-0.6c-0.2-0.2-0.4-0.4-0.7-0.5c-0.2-0.2-0.5-0.4-0.7-0.6&#10;&#9;&#9;&#9;c-0.2-0.2-0.4-0.4-0.6-0.6c-0.2-0.2-0.5-0.4-0.7-0.6c-0.2-0.2-0.4-0.4-0.6-0.6c-0.2-0.2-0.5-0.4-0.7-0.7c-0.2-0.2-0.4-0.4-0.6-0.6&#10;&#9;&#9;&#9;c-0.2-0.2-0.4-0.5-0.7-0.7c-0.2-0.2-0.4-0.4-0.6-0.6c-0.2-0.2-0.4-0.5-0.6-0.7c-0.2-0.2-0.4-0.4-0.6-0.7c-0.2-0.2-0.4-0.5-0.6-0.7&#10;&#9;&#9;&#9;c-0.2-0.2-0.4-0.4-0.5-0.7c-0.2-0.3-0.4-0.5-0.6-0.8c-0.2-0.2-0.3-0.5-0.5-0.7c-0.2-0.2-0.3-0.4-0.5-0.7c-0.1,0-0.1,0-0.2,0&#10;&#9;&#9;&#9;c-0.1,0.2-0.2,0.5-0.7,0.5c-0.2-0.1-0.3-0.3-0.3-0.6c0.2-0.1,0.6-0.1,1-0.1c-0.1-0.2-0.3-0.4-0.4-0.6c-0.2-0.3-0.4-0.5-0.5-0.8&#10;&#9;&#9;&#9;c-0.2-0.2-0.3-0.5-0.5-0.7c-0.2-0.3-0.3-0.6-0.5-0.8c-0.1-0.2-0.3-0.5-0.4-0.7c0,0,0-0.1,0-0.1c-0.5,0.2-1,0.3-1.6,0.4&#10;&#9;&#9;&#9;c0,0.1,0.1,0.1,0.1,0.2c0.2,0.3,0.3,0.6,0.5,0.8c0,0,0,0,0,0c0.1-0.2,0.5-0.3,0.7-0.3c-0.3,0.1-0.3,0.4-0.5,0.5&#10;&#9;&#9;&#9;c0.1,0.2,0.2,0.4,0.4,0.6c0.2,0.3,0.3,0.5,0.5,0.8c0.2,0.3,0.3,0.5,0.5,0.8c0.2,0.3,0.3,0.5,0.5,0.8c0.2,0.3,0.4,0.5,0.5,0.8&#10;&#9;&#9;&#9;c0.2,0.3,0.4,0.5,0.6,0.8c0.2,0.3,0.4,0.5,0.6,0.7c0.1,0.1,0.2,0.3,0.3,0.4c0.1-0.3,0.2-0.7,0.3-1c0.1,0,0.3,0,0.4,0&#10;&#9;&#9;&#9;c-0.1,0.5-0.2,1-0.3,1.5c0.1,0.2,0.3,0.3,0.4,0.5c0.2,0.2,0.4,0.5,0.6,0.7c0.2,0.2,0.4,0.5,0.6,0.7c0.2,0.2,0.4,0.5,0.7,0.7&#10;&#9;&#9;&#9;c0.2,0.2,0.4,0.4,0.6,0.7c0.2,0.2,0.5,0.5,0.7,0.7c0,0,0,0,0,0c0.3,0,0.6,0,0.8,0.1c-0.1,0.1-0.3,0.2-0.4,0.2&#10;&#9;&#9;&#9;c0.1,0.1,0.2,0.2,0.3,0.3c0.2,0.2,0.5,0.5,0.7,0.7c0.2,0.2,0.4,0.4,0.7,0.6c0.2,0.2,0.5,0.4,0.7,0.7c0.2,0.2,0.5,0.4,0.7,0.6&#10;&#9;&#9;&#9;c0.3,0.2,0.5,0.4,0.8,0.6c0.2,0.2,0.5,0.4,0.7,0.5c0.3,0.2,0.5,0.4,0.8,0.6c0.2,0.1,0.3,0.2,0.5,0.3c0.1-0.6,0.2-1.2,0.5-1.6&#10;&#9;&#9;&#9;C180.2,886.8,180,886.6,179.8,886.4z"/>
		<path fill="#CCCCCC" d="M208.3,896.5c-0.1,0-0.3,0-0.4,0c-0.1,0.2-0.2,0.4-0.3,0.6C207.9,896.9,208.1,896.7,208.3,896.5z"/>
		<path fill="#CCCCCC" d="M223.4,829.3L223.4,829.3C223.4,829.3,223.4,829.3,223.4,829.3z"/>
		<path fill="#CCCCCC" d="M188.5,866c0.3-0.5,0.1-1,0.3-1.5h-5.9c-1,0.2-2,0.5-2.9,0.8c-0.2,0.3-0.3,0.5-0.4,0.8H190&#10;&#9;&#9;&#9;c0-0.3,0.1-0.7,0.4-0.8c0.1,0.4-0.1,0.6-0.3,0.8h0.3c0.1-0.2,0.3-0.3,0.5-0.4c0-0.5,0.2-0.8,0.3-1.2h-1.3&#10;&#9;&#9;&#9;c-0.1,0.5-0.3,1.1-0.5,1.5C189,866,188.7,866,188.5,866z"/>
		<path fill="#CCCCCC" d="M207.4,897.4c-0.1,0.2-0.2,0.4-0.3,0.7c0,0,0.1,0,0.1,0C207.3,897.9,207.5,897.7,207.4,897.4z"/>
		<path fill="#CCCCCC" d="M180.3,864.8c0.1-0.1,0.3-0.2,0.5-0.2h-0.5C180.3,864.6,180.3,864.7,180.3,864.8z"/>
		<path fill="#CCCCCC" d="M206.6,791.5l-0.2,1.4l2.7-1.4C208.2,791.4,207.4,791.4,206.6,791.5z"/>
		<path fill="#CCCCCC" d="M209.4,783.7l-1.5,3l-3.3,0.5l2.4,2.4l-0.3,1.5c1.1,0,2.4-0.1,2.7,0.2l3,1.6l-0.3-1.5&#10;&#9;&#9;&#9;c-0.9,0.2-1.8,0.2-2.1-0.3c0.2,0,0.4,0,0.4-0.1c-0.2-0.2-0.4-0.4-0.4-0.7c0.2,0,0.4,0,0.5,0c0.2,0.3,0.1,0.4,0,0.7&#10;&#9;&#9;&#9;c0.5,0.2,1.1,0.1,1.4-0.1l-0.2-1.3l2.4-2.4l-3.3-0.5L209.4,783.7z"/>
		<path fill="#CCCCCC" d="M211.9,910.9l0.5,0.3l0-0.3C212.2,910.9,212,910.9,211.9,910.9z"/>
		<path fill="#CCCCCC" d="M209.6,909.8l1.3,0.7c0.1-0.1,0.1-0.2,0.2-0.2c0.2,0,0.1,0.2,0.1,0.4l0.3,0.2c0.2,0,0.5-0.1,0.7-0.1&#10;&#9;&#9;&#9;l-0.3-1.9c-0.2,0.5-0.5,0.9-0.7,1.3c-0.2-0.7,0.8-1.4,0.3-2.2c0.2,0,0.2-0.1,0.4-0.1l2.3-2.3l-3.3-0.5l-1.5-3l-1.5,3l-3.3,0.5&#10;&#9;&#9;&#9;l2.4,2.4l-0.5,3.1c0.1,0,0.3,0,0.4,0l2.5-1.3l0,0c0.1-0.1,0.1-0.3,0.2-0.3C209.7,909.5,209.7,909.6,209.6,909.8z M210.7,907.1&#10;&#9;&#9;&#9;c0,0.1,0,0.3,0,0.4C210.3,907.6,210.3,906.9,210.7,907.1z"/>
		<path d="M 229.8000030517578 788.2999877929688 L 228.3000030517578 791.2999877929688 L 224.89999389648438 791.7999877929688 L 227.3000030517578 794.0999755859375 L 226.8000030517578 797.4000244140625 L 229.8000030517578 795.9000244140625 L 232.8000030517578 797.4000244140625 L 232.1999969482422 794.0999755859375 L 234.60000610351562 791.7999877929688 L 231.3000030517578 791.2999877929688 Z" fill="#CCCCCC"/>
		<path fill="#CCCCCC" d="M229.8,897.4l-0.4,0.9c0.1,0.1,0.2-0.1,0.4-0.2c0,0.3-0.2,0.5-0.4,0.7c0,0-0.1-0.1-0.2-0.1l-0.9,1.9&#10;&#9;&#9;&#9;l-3.3,0.5l2.4,2.4l-0.3,1.6c0.1,0,0.1,0,0.2,0c-0.1,0.4,0.5,0.3,0.4,0.6c-0.3,0-0.3,0.1-0.5,0.1c0.1-0.2,0-0.3-0.1-0.4l-0.3,1.5&#10;&#9;&#9;&#9;l3-1.6l3,1.6l-0.6-3.3l2.4-2.4l-3.3-0.5L229.8,897.4z M232.3,901.8c0.6,0.3-0.1,0.8-0.7,0.8C231.6,902.1,231.9,901.9,232.3,901.8z&#10;&#9;&#9;&#9; M231.4,902.9c-0.1-0.2-0.5-0.5-0.1-0.7C231.3,902.4,231.8,902.7,231.4,902.9z"/>
		<path fill="#CCCCCC" d="M243.5,800.5l-3.3,0.5l1.3,1.3c0.5,0,0.8-0.2,0.9-0.5c1.3-0.6,2.6-1.3,3.8-2l-1.2-2.4L243.5,800.5z&#10;&#9;&#9;&#9; M241.7,801.8c-0.2,0-0.2-0.6,0-0.7C241.7,801.3,242.3,801.8,241.7,801.8z"/>
		<path fill="#CCCCCC" d="M242,806.6L242,806.6L242,806.6C242.1,806.6,242.1,806.6,242,806.6z"/>
		<path fill="#CCCCCC" d="M242.1,802.8l0.5,0.5l-0.1,0.7c0,0.1,0,0.2,0,0.2l-0.4,2.2c0.4-0.4,0.1-1.2,0.4-1.6&#10;&#9;&#9;&#9;c0.2,0.4-0.1,1.1,0.8,1.1c0,0,0,0.1-0.1,0.1l0.4-0.2c0,0,0,0,0,0c0.2-0.1,0.3-0.2,0.4-0.2l1-0.5l0.4,0.2c0.5-0.3,1.6-0.5,2.2-0.4&#10;&#9;&#9;&#9;c-0.7,0.2-1.3,0.4-2,0.5l2.4,1.3l-0.6-3.3l2.4-2.4l-3.3-0.5l-0.1-0.2c-1,0.6-2,1.1-2.9,1.5C242.7,802,242,802.1,242.1,802.8z"/>
		<path fill="#CCCCCC" d="M243.9,891.9c0.4-0.2,0.6,0.1,1.1,0.1c0.5-0.4,0.9-0.7,1.3-1.1l-1.3-2.6l-1.5,3l-3.3,0.5l2.4,2.4l-0.1,0.7&#10;&#9;&#9;&#9;c0.8-0.9,1.6-1.7,2.2-2.6C244.4,892.1,244.1,892,243.9,891.9z"/>
		<path fill="#CCCCCC" d="M246.2,892.9c0-0.2,0.1-0.5-0.3-0.5c-1.2,1.3-2.5,2.4-3.7,3.7l-0.2,1.3l3-1.6l3,1.6l-0.6-3.3l2.4-2.4&#10;&#9;&#9;&#9;l-2.8-0.4c-0.1,0.2-0.2,0.4-0.3,0.5C246.6,892.2,247.1,892.8,246.2,892.9z M246,896.1c0-0.5-0.3-1,0.3-1.5&#10;&#9;&#9;&#9;C246.5,895.1,246.5,895.8,246,896.1z M246.2,894.2c0-0.3,0-0.6,0-0.9C246.7,893.3,246.6,894.2,246.2,894.2z"/>
		<path fill="#CCCCCC" d="M255.7,820.7l1.3-0.7c-0.4,0.1-0.8,0.2-1.2,0.2L255.7,820.7z"/>
		<path fill="#CCCCCC" d="M261.6,820.7l-0.2-1.3c-0.4,0.2-0.8,0.4-1.2,0.5L261.6,820.7z"/>
		<path d="M 259.8999938964844 814 L 259.8999938964844 814 L 259.8999938964844 814 Z" fill="#CCCCCC"/>
		<path fill="#CCCCCC" d="M259.9,814.3c0,0-0.1,0-0.2,0c0,0-0.1,0-0.1,0c-0.5,0.1-1.1,0.2-1.2,0c0.3-0.2,1.2-0.1,1.5-0.3l-1.2-2.5&#10;&#9;&#9;&#9;l-0.7,1.5c0.3-0.1,0.6-0.2,0.9-0.3c0.3,0.2-0.2,0.2-0.1,0.4c-0.4,0.1-0.7,0.2-1,0.3l-0.5,1.1l-2.8,0.4c-0.1,0.1-0.3,0.1-0.4,0.2&#10;&#9;&#9;&#9;l2.3,2.2l-0.5,2.8c0.8-0.3,1.6-0.6,2.5-0.9l0.4-0.2l0.1,0.1c0.6-0.2,1.1-0.3,1.7-0.4c-0.5,0.1-1,0.3-1.4,0.5l0.9,0.5&#10;&#9;&#9;&#9;c0.6-0.3,1-0.7,1.4-0.8l-0.1-0.5c-0.1,0-0.3,0.1-0.4,0.1c0.1-0.1,0.3-0.1,0.4-0.2l-0.2-1.1l2.4-2.4l-3.3-0.5l-0.2-0.3&#10;&#9;&#9;&#9;C260,814.2,259.9,814.2,259.9,814.3C259.9,814.3,259.9,814.3,259.9,814.3z M257.2,815c0.5-0.1,1-0.6,1.5-0.4&#10;&#9;&#9;&#9;C258.2,814.7,257.4,815.3,257.2,815z"/>
		<path fill="#CCCCCC" d="M258.6,872.4l-1.5,3l-3.3,0.5l2.4,2.4l-0.6,3.3l3-1.6l0.1,0.1c0.2,0,0.2-0.1,0.3,0.1c0,0,0,0-0.1,0&#10;&#9;&#9;&#9;l2.6,1.4l-0.6-3.3l0,0c-0.1,0.1-0.3,0.2-0.4,0.2c0.4-1.1,1.6-1.8,2.4-2.6l-3-0.4L258.6,872.4z"/>
		<path fill="#CCCCCC" d="M190.3,900.5l-1.5-3l-1.5,3l-3.3,0.5l2.4,2.4l-0.4,2.5c0.3,0,0.5,0,0.8,0c-0.2,0.2-0.5,0.3-0.8,0.4&#10;&#9;&#9;&#9;l-0.1,0.5l3-1.6l0.6,0.3c0.2,0,0.4,0,0.5,0.1c-0.1,0-0.2,0-0.2,0.1l2.2,1.1l-0.2-1.3c-0.1,0-0.3-0.1-0.3-0.2&#10;&#9;&#9;&#9;c0.1,0,0.2-0.1,0.3-0.1l-0.3-1.8l2.4-2.4L190.3,900.5z"/>
		<path fill="#CCCCCC" d="M175.9,894.1l2.4-2.4l-1.5-0.2c-0.1,0-0.1,0.1-0.2,0.1c0,0,0-0.1,0-0.1l-1.7-0.2l-1-2&#10;&#9;&#9;&#9;c-0.1-0.1-0.2-0.1-0.2-0.3c0,0,0.1,0,0.1,0l-0.4-0.8l-1.5,3l-3.3,0.5l2.4,2.4l-0.6,3.3l3-1.6l3,1.6L175.9,894.1z M171.8,896&#10;&#9;&#9;&#9;c-0.2-0.1-0.1-0.5,0.4-0.5C172.4,895.7,172.3,896.1,171.8,896z M174.5,892.1c0-0.2,0.1-0.4,0.4-0.5&#10;&#9;&#9;&#9;C175.2,891.8,174.7,892,174.5,892.1z M175,893.5c0.1-0.5,0.5-1.5,1.6-1.6C176.2,892.5,175.7,893,175,893.5z"/>
		<path fill="#CCCCCC" d="M159.9,872.4L159.9,872.4C159.9,872.4,159.9,872.4,159.9,872.4L159.9,872.4z"/>
		<path fill="#CCCCCC" d="M162.4,881.2c-0.1-0.3-0.2-0.5,0-0.7c0.1,0,0.2,0,0.3,0l-0.4-2.2l1.7-1.6c-0.2,0-0.3-0.1-0.2-0.3&#10;&#9;&#9;&#9;c0.4-0.1,0.6-0.3,0.8-0.5l-0.8-0.1c0,0,0,0.1,0,0.1c-0.8-0.1-0.6,0.6-1.4,0.7c0.2-0.3,0.4-0.6,0.6-0.9l-1.7-0.2l-1.4-2.8&#10;&#9;&#9;&#9;c-0.1,0-0.1,0-0.2,0l-0.2,0.4c0,0.1,0,0.2-0.1,0.3l-1.1,2.1l-2.4,0.3c0,0.1,0,0.1,0,0.2c-0.2,0-0.3-0.1-0.3-0.1l-0.7,0.1l2.4,2.4&#10;&#9;&#9;&#9;l-0.3,1.5c0.1,0,0.1-0.1,0.2-0.1c-0.1,0.1-0.2,0.2-0.2,0.4l-0.1,0.4c0,0.4,0,0.7-0.1,1.1l2.9-1.5l3,1.6l-0.1-0.8&#10;&#9;&#9;&#9;C162.7,881,162.5,881.1,162.4,881.2z M160.8,874.7c0.3,0.3,0,0.5-0.5,0.6C160.2,875,160.4,874.8,160.8,874.7z M158.6,877.8&#10;&#9;&#9;&#9;c-0.4,0-0.3-0.3-0.4-0.5c0.1,0,0.3,0,0.4,0C158.6,877.5,158.6,877.7,158.6,877.8z M161.6,880.2c-0.5-0.3-1.4-0.3-1.2-1.1&#10;&#9;&#9;&#9;c-0.7,0-1.2-0.7-1.6-1.1c0.2,0,0.1-0.3,0.5-0.2c-0.1,0.5,1.1,0.6,0.7,1c0.6,0,0.4,0.5,1.1,0.4C161,879.6,161.8,879.9,161.6,880.2z&#10;&#9;&#9;&#9; M162.1,877.1c-0.3,0.2-1.1,0.1-1.4,0.2c0,0.1,0.1,0.7-0.1,0.5c-0.2-0.4,0.3-0.8-0.1-1c0.2-0.3,0.1-0.7,0.1-1.1&#10;&#9;&#9;&#9;c0-0.1,0.2-0.2,0.1,0c0.2,0.6,0,1,0.1,1.3c0.4-0.2,0.1-0.3,0.1-0.7c0.4,0.1,0.2-0.3,0.5-0.2c0.3,0.1,0.9,0,0.8,0.4&#10;&#9;&#9;&#9;c-0.2,0.2-0.5-0.2-0.7,0.1C162,876.6,162.3,876.7,162.1,877.1z"/>
		<path d="M 188.8000030517578 788.2999877929688 L 187.3000030517578 791.2999877929688 L 183.89999389648438 791.7999877929688 L 186.39999389648438 794.0999755859375 L 185.8000030517578 797.4000244140625 L 188.8000030517578 795.9000244140625 L 191.8000030517578 797.4000244140625 L 191.1999969482422 794.0999755859375 L 193.60000610351562 791.7999877929688 L 190.3000030517578 791.2999877929688 Z" fill="#CCCCCC"/>
		<path d="M 173.5 797.4000244140625 L 172 800.5 L 168.6999969482422 801 L 171.10000610351562 803.2999877929688 L 170.5 806.5999755859375 L 173.5 805.0999755859375 L 176.5 806.5999755859375 L 175.89999389648438 803.2999877929688 L 178.39999389648438 801 L 175 800.5 Z" fill="#CCCCCC"/>
		<path fill="#CCCCCC" d="M157.5,817.4l-0.6,3.3l2-1c0-0.1,0.1-0.3,0.3-0.3c0,0,0,0.1,0,0.1l0.7-0.4l1.5,0.8&#10;&#9;&#9;&#9;c-0.3-2.3-0.5-4.8-0.8-6.9l-0.8-1.5l-1.5,3c0.2,0.4,0.3,0.8-0.2,1.2c-0.1,0-0.2,0-0.3,0c0-0.1,0-0.2,0-0.2c0.1-0.3,0.1-0.5,0-0.8&#10;&#9;&#9;&#9;l-2.9,0.4L157.5,817.4z M158.6,815.9c0.3,0.9,0.3,1.9,0.4,2.9c-0.1,0-0.3,0-0.4,0C158.7,817.8,157.6,816.4,158.6,815.9z"/>
		<path fill="#CCCCCC" d="M161.3,817.9c0.3,0.5,0.4,1.2,0.4,2c0.3-0.1,0.7-0.2,1-0.2l-0.4-2.3l2.4-2.4l-3.3-0.5&#10;&#9;&#9;&#9;c0.1,1.1,0.1,2.2,0.2,3.3C161.6,817.8,161.3,817.8,161.3,817.9z"/>
		<path fill="#CCCCCC" d="M162.8,819.9c-0.3,0.1-0.6,0.1-0.9,0.2l1,0.5L162.8,819.9z"/>
	</g></svg>