<?xml version="1.0" encoding="UTF-8"?>
<svg xmlns="http://www.w3.org/2000/svg" xmlns:xlink="http://www.w3.org/1999/xlink" width="3002" height="3002" viewBox="0 0 3002 3002">
<path fill-rule="nonzero" fill="rgb(83.201599%, 83.201599%, 83.201599%)" fill-opacity="1" d="M 1501 1 C 1915.210938 1 2290.21875 168.890625 2561.660156 440.339844 C 2833.109375 711.78125 3001 1086.789062 3001 1501 C 3001 1915.210938 2833.109375 2290.21875 2561.660156 2561.664062 C 2290.21875 2833.109375 1915.210938 3001 1501 3001 C 1086.789062 3001 711.78125 2833.109375 440.335938 2561.664062 C 168.890625 2290.21875 1 1915.210938 1 1501 C 1 1086.789062 168.890625 711.78125 440.335938 440.339844 C 711.78125 168.890625 1086.789062 1 1501 1 "/>
<path fill-rule="nonzero" fill="rgb(62.693787%, 62.693787%, 62.693787%)" fill-opacity="1" d="M 2254.089844 1554.960938 C 2254.488281 1538.921875 2243.820312 1524.148438 2227.621094 1520.039062 C 2112.929688 1490.839844 1999.449219 1479.5 1891.191406 1484.859375 C 1708.109375 1493.929688 1540.269531 1550.910156 1406.671875 1650.171875 C 1272.261719 1750.039062 1172.691406 1892.269531 1127.140625 2071.183594 C 1105.589844 2155.808594 1096.199219 2248.75 1101.011719 2349.367188 C 1100.871094 2365.214844 1111.550781 2379.695312 1127.601562 2383.707031 C 1179.109375 2396.664062 1234.609375 2401.183594 1292.351562 2398.339844 C 1481.421875 2389.023438 1695.960938 2299.839844 1873.71875 2169.523438 C 2052.429688 2038.519531 2195.300781 1864.96875 2239.878906 1687.738281 C 2250.96875 1643.660156 2256 1599.21875 2254.089844 1554.960938 "/>
<path fill-rule="nonzero" fill="rgb(54.101562%, 54.101562%, 54.101562%)" fill-opacity="1" d="M 1273.769531 2188.765625 C 1265.578125 2206.277344 1273.148438 2227.132812 1290.660156 2235.316406 C 1308.179688 2243.503906 1329.03125 2235.941406 1337.21875 2218.425781 C 1390.101562 2105.613281 1480.78125 1995.398438 1607.199219 1901.101562 C 1723.921875 1814.039062 1870.75 1740.851562 2046.03125 1691.96875 C 2064.691406 1686.820312 2075.640625 1667.511719 2070.480469 1648.851562 C 2065.328125 1630.191406 2046.019531 1619.238281 2027.359375 1624.398438 C 1842.960938 1675.820312 1688.300781 1752.960938 1565.171875 1844.800781 C 1429.441406 1946.039062 1331.511719 2065.578125 1273.769531 2188.765625 "/>
<path fill-rule="nonzero" fill="rgb(62.693787%, 62.693787%, 62.693787%)" fill-opacity="1" d="M 1296.859375 1415.300781 C 1304.570312 1430.398438 1321.761719 1437.511719 1337.488281 1433.078125 C 1398.691406 1508.929688 1571.421875 1665.46875 1882.449219 1530.808594 C 1886.5 1542.128906 1896.25 1551.070312 1908.898438 1553.488281 C 1927.941406 1557.128906 1946.328125 1544.640625 1949.96875 1525.609375 C 1986.988281 1335.640625 1980.519531 1122.851562 1928.988281 941.429688 C 1881.390625 773.839844 1795.101562 631.96875 1668.660156 556.628906 C 1654.5 548.171875 1636.769531 550.851562 1625.691406 562.109375 C 1465.261719 707.191406 1342.53125 835.148438 1279.179688 968.328125 C 1213.308594 1106.851562 1211.300781 1248.46875 1296.859375 1415.300781 "/>
<path fill-rule="nonzero" fill="rgb(54.101562%, 54.101562%, 54.101562%)" fill-opacity="1" d="M 1565.320312 1510.910156 C 1570.398438 1529.640625 1589.710938 1540.699219 1608.441406 1535.621094 C 1627.171875 1530.539062 1638.230469 1511.230469 1633.148438 1492.5 C 1606.609375 1394.910156 1594.660156 1284.730469 1600.949219 1165.328125 C 1606.859375 1053.28125 1628.828125 932.921875 1669.828125 806.96875 C 1675.808594 788.539062 1665.738281 768.738281 1647.308594 762.75 C 1628.878906 756.761719 1609.070312 766.839844 1603.089844 785.269531 C 1560.171875 917.109375 1537.148438 1043.589844 1530.921875 1161.75 C 1524.199219 1289.109375 1536.96875 1406.691406 1565.320312 1510.910156 "/>
<path fill-rule="nonzero" fill="rgb(62.693787%, 62.693787%, 62.693787%)" fill-opacity="1" d="M 1145.679688 2114.957031 C 1163.269531 2123.066406 1184.121094 2115.378906 1192.230469 2097.785156 C 1200.109375 2080.707031 1193.078125 2060.546875 1176.558594 2051.964844 C 1220.929688 1819.480469 1422.269531 1683.070312 1503.398438 1636.699219 C 1515.261719 1650.949219 1536.359375 1653.578125 1551.390625 1642.359375 C 1566.929688 1630.761719 1570.128906 1608.738281 1558.53125 1593.199219 C 1528.320312 1552.769531 1495.328125 1513.539062 1460.191406 1476.21875 C 1425.371094 1439.25 1388.621094 1404.421875 1350.550781 1372.449219 C 1260.441406 1296.769531 1162.179688 1236.480469 1063.191406 1200.558594 C 970.839844 1167.058594 877.707031 1154.699219 789.554688 1170.558594 C 773.714844 1172.398438 760.640625 1184.929688 758.757812 1201.449219 C 733.601562 1419.03125 749.566406 1613.800781 815.957031 1772.679688 C 878.808594 1923.101562 986.179688 2040.855469 1145.679688 2114.957031 "/>
<path fill-rule="nonzero" fill="rgb(54.101562%, 54.101562%, 54.101562%)" fill-opacity="1" d="M 1148.960938 1792.871094 C 1163.371094 1805.75 1185.511719 1804.53125 1198.390625 1790.121094 C 1211.28125 1775.710938 1210.050781 1753.570312 1195.640625 1740.691406 C 1111.828125 1665.46875 1041.539062 1597.941406 997.34375 1535.710938 C 957.757812 1479.960938 940.089844 1429.5 954.691406 1382.578125 C 960.449219 1364.070312 950.125 1344.390625 931.617188 1338.628906 C 913.113281 1332.871094 893.433594 1343.199219 887.675781 1361.699219 C 865.605469 1432.640625 887.894531 1502.699219 940.207031 1576.359375 C 987.925781 1643.550781 1061.550781 1714.421875 1148.960938 1792.871094 "/>
</svg>
