<?xml version="1.0" encoding="UTF-8"?>
<svg xmlns="http://www.w3.org/2000/svg" xmlns:xlink="http://www.w3.org/1999/xlink" width="3000" height="3000" viewBox="0 0 3000 3000">
<path fill-rule="nonzero" fill="rgb(0%, 0%, 0%)" fill-opacity="1" d="M 2320.140625 506.789062 L 1999.539062 545.019531 C 2013.078125 573.628906 2019.910156 605.261719 2019.230469 637.460938 L 2039.230469 640.148438 C 2058.449219 642.738281 2072.121094 660.671875 2069.53125 679.878906 L 2068.679688 686.25 C 2066.089844 705.460938 2048.160156 719.128906 2028.949219 716.539062 L 2008.058594 713.71875 L 2007.46875 718.089844 C 2001.320312 763.78125 1979.820312 803.691406 1948.878906 833.339844 L 2353.320312 785.109375 Z M 1977.230469 547.679688 L 1629.25 589.171875 C 1628.941406 590.648438 1628.640625 592.140625 1628.371094 593.640625 C 1629.488281 594.410156 1630.648438 595.210938 1630.648438 595.210938 C 1630.648438 595.210938 1632.75 598.75 1632.75 598.75 C 1632.75 598.75 1633.320312 601.351562 1633.320312 601.351562 C 1633.320312 601.351562 1633.308594 603.519531 1633.210938 604.109375 L 1632.519531 608.140625 L 1630.191406 609.96875 C 1630.148438 610.019531 1630.160156 610.019531 1630.109375 610.078125 C 1629.460938 610.949219 1628.5 612.28125 1627.539062 613.621094 C 1626.628906 614.890625 1625.71875 616.140625 1624.960938 617.179688 C 1624.648438 618.070312 1624.179688 618.871094 1624.039062 619.871094 L 1623.179688 626.230469 C 1622.121094 634.128906 1627.339844 640.980469 1635.25 642.050781 L 2031.78125 695.46875 C 2039.691406 696.539062 2046.539062 691.308594 2047.601562 683.410156 L 2048.460938 677.050781 C 2049.519531 669.140625 2044.300781 662.289062 2036.398438 661.230469 L 1997.148438 655.941406 L 1997.851562 645.988281 C 2000.269531 611.589844 1992.941406 577.589844 1977.230469 547.679688 Z M 1606.578125 591.871094 L 528.53125 720.421875 L 561.722656 998.75 L 1714.261719 861.320312 C 1648.28125 822.730469 1608.191406 747.21875 1618.589844 666.769531 L 1619.628906 658.761719 C 1607.550781 651.800781 1600.148438 637.96875 1602.121094 623.390625 L 1602.96875 617.03125 C 1603.199219 615.371094 1604.101562 614.011719 1604.550781 612.441406 C 1604.558594 611.761719 1604.570312 611.011719 1604.640625 610.621094 L 1604.5 611.679688 L 1605.519531 598.621094 L 1605.558594 598.289062 C 1605.871094 596.140625 1606.210938 594 1606.578125 591.871094 Z M 1638.839844 680.128906 C 1633.429688 759.121094 1681.558594 830.679688 1754.121094 856.558594 L 1909.03125 838.089844 C 1947.03125 813.070312 1975.089844 773.359375 1984.449219 725.75 L 1638.839844 680.128906 "/>
<path fill-rule="nonzero" fill="rgb(0%, 0%, 0%)" fill-opacity="1" d="M 1585.328125 917.601562 C 1596.910156 935.078125 1603.738281 956.011719 1603.738281 978.519531 L 1603.738281 1103.859375 C 1603.738281 1164.839844 1554.210938 1214.371094 1493.230469 1214.371094 L 1476.511719 1214.371094 C 1487.808594 1251.238281 1522.011719 1277.898438 1562.671875 1277.898438 L 1586.429688 1277.898438 C 1636.351562 1277.898438 1676.550781 1237.699219 1676.550781 1187.78125 L 1676.550781 1007.71875 C 1676.550781 957.789062 1636.351562 917.601562 1586.429688 917.601562 Z M 1549.488281 918.550781 C 1505.859375 924.898438 1472.550781 962.269531 1472.550781 1007.71875 L 1472.550781 1186.019531 L 1493.230469 1186.019531 C 1539 1186.019531 1575.398438 1149.621094 1575.398438 1103.859375 L 1575.398438 978.519531 C 1575.398438 954.691406 1565.449219 933.519531 1549.488281 918.550781 "/>
<path fill-rule="nonzero" fill="rgb(0%, 0%, 0%)" fill-opacity="1" d="M 1899.148438 917.601562 C 1849.230469 917.601562 1809.03125 957.789062 1809.03125 1007.71875 L 1809.03125 1187.78125 C 1809.03125 1237.699219 1849.230469 1277.898438 1899.148438 1277.898438 L 1922.910156 1277.898438 C 1963.570312 1277.898438 1997.769531 1251.238281 2009.070312 1214.371094 L 2002.28125 1214.371094 C 1941.300781 1214.371094 1891.769531 1164.839844 1891.769531 1103.859375 L 1891.769531 978.519531 C 1891.769531 956 1898.648438 935.078125 1910.230469 917.601562 Z M 1944.378906 920.160156 C 1929.390625 935.019531 1920.121094 955.519531 1920.121094 978.519531 L 1920.121094 1103.859375 C 1920.121094 1149.621094 1956.519531 1186.019531 2002.28125 1186.019531 L 2013.03125 1186.019531 L 2013.03125 1007.71875 C 2013.03125 965.199219 1983.871094 929.738281 1944.378906 920.160156 "/>
<path fill-rule="nonzero" fill="rgb(0%, 0%, 0%)" fill-opacity="1" d="M 1612.929688 896.730469 C 1593.398438 896.730469 1574.730469 900.230469 1557.46875 906.609375 C 1577.191406 924.230469 1589.570312 949.871094 1589.570312 978.519531 L 1589.570312 1103.859375 C 1589.570312 1157.230469 1546.601562 1200.199219 1493.230469 1200.199219 L 1453.890625 1200.199219 L 1453.890625 1347.871094 L 1738.691406 1347.871094 L 1739.089844 1088.390625 C 1739.128906 1086.878906 1740.058594 1085.53125 1741.460938 1084.960938 L 1661.71875 896.730469 Z M 1825.320312 896.730469 L 1744.421875 1084.898438 C 1745.828125 1085.5 1746.738281 1086.878906 1746.75 1088.410156 L 1746.351562 1347.871094 L 2030.058594 1347.871094 L 2030.058594 1200.199219 L 2002.289062 1200.199219 C 1948.910156 1200.199219 1905.941406 1157.230469 1905.941406 1103.859375 L 1905.941406 978.519531 C 1905.941406 950.578125 1917.730469 925.511719 1936.609375 907.941406 C 1917.558594 900.730469 1895.699219 896.730469 1871.019531 896.730469 Z M 1453.890625 1396.578125 L 1453.890625 1439.289062 L 1738.550781 1439.289062 L 1738.621094 1396.578125 Z M 1746.28125 1396.578125 L 1746.210938 1439.289062 L 2030.058594 1439.289062 L 2030.058594 1396.578125 Z M 1453.890625 1488 L 1453.890625 1545.738281 C 1453.890625 1633.839844 1524.820312 1704.769531 1612.929688 1704.769531 L 1738.148438 1704.769531 L 1738.480469 1488 Z M 1746.140625 1488 L 1745.808594 1704.769531 L 1871.019531 1704.769531 C 1959.128906 1704.769531 2030.058594 1633.839844 2030.058594 1545.738281 L 2030.058594 1488 L 1746.140625 1488 "/>
<path fill-rule="nonzero" fill="rgb(0%, 0%, 0%)" fill-opacity="1" d="M 1949.730469 935.230469 C 1943.28125 935.46875 1936.871094 936.449219 1930.640625 938.140625 C 1923.941406 950.019531 1920.121094 963.761719 1920.121094 978.519531 L 1920.121094 1103.859375 C 1920.121094 1149.621094 1956.519531 1186.019531 2002.28125 1186.019531 L 2044.230469 1186.019531 L 2044.230469 1362.039062 L 2044.121094 1361.921875 L 2043.691406 1382.199219 L 2044.230469 1382.410156 L 2044.230469 1431.660156 L 2126.800781 1615.121094 C 2146.078125 1657.949219 2196.429688 1677.050781 2239.25 1657.769531 C 2282.078125 1638.5 2301.179688 1588.148438 2281.898438 1545.320312 L 2029.851562 985.328125 C 2015.730469 953.960938 1984.109375 934.191406 1949.730469 935.230469 Z M 1893.539062 958.96875 C 1867.578125 983.828125 1860.058594 1022.328125 1874.75 1055.140625 L 1891.769531 1092.949219 L 1891.769531 978.519531 C 1891.769531 971.839844 1892.390625 965.320312 1893.539062 958.96875 Z M 1936.699219 1192.761719 L 2000.128906 1333.691406 L 2015.878906 1333.691406 L 2015.878906 1214.371094 L 2002.28125 1214.371094 C 1977.738281 1214.371094 1955.050781 1206.328125 1936.699219 1192.761719 "/>
<path fill-rule="nonzero" fill="rgb(0%, 0%, 0%)" fill-opacity="1" d="M 1608.851562 1539.679688 C 1553.800781 1539.351562 1506.539062 1578.769531 1496.980469 1632.980469 C 1523.328125 1668.058594 1565.300781 1690.601562 1612.929688 1690.601562 L 1720.640625 1690.601562 L 1720.910156 1653.421875 C 1721.378906 1591.070312 1671.199219 1540.140625 1608.851562 1539.679688 Z M 1881.078125 1539.679688 C 1818.71875 1539.210938 1767.789062 1589.390625 1767.328125 1651.738281 L 1767.039062 1690.601562 L 1871.019531 1690.601562 C 1920.808594 1690.601562 1964.398438 1665.960938 1990.441406 1628.128906 C 1979.039062 1576.769531 1933.679688 1540.078125 1881.078125 1539.679688 Z M 1993.019531 1668.699219 C 1961.730469 1699.761719 1918.628906 1718.941406 1871.019531 1718.941406 L 1766.828125 1718.941406 L 1761.351562 2453.886719 C 1760.890625 2516.238281 1811.058594 2567.160156 1873.410156 2567.625 C 1935.769531 2568.089844 1986.691406 2517.921875 1987.160156 2455.570312 Z M 1494.949219 1672.539062 L 1489.128906 2453.886719 C 1488.660156 2516.238281 1538.828125 2567.160156 1601.191406 2567.625 C 1663.539062 2568.09375 1714.46875 2517.921875 1714.929688 2455.570312 L 1720.421875 1718.941406 L 1612.929688 1718.941406 C 1567.320312 1718.941406 1525.871094 1701.320312 1494.949219 1672.539062 "/>
<path fill-rule="nonzero" fill="rgb(0%, 0%, 0%)" fill-opacity="1" d="M 1109.691406 941.570312 C 1098.679688 943.429688 1088.140625 947.441406 1078.679688 953.371094 C 1038.878906 978.320312 1026.839844 1030.800781 1051.789062 1070.601562 L 1230.328125 1355.441406 C 1262.359375 1406.511719 1335.890625 1408.980469 1371.261719 1360.160156 L 1554.808594 1106.730469 C 1561.890625 1007.128906 1592.769531 959.800781 1554.730469 932.25 C 1516.691406 904.699219 1444.621094 968.929688 1417.070312 1006.96875 L 1307.480469 1158.28125 L 1195.898438 980.269531 C 1177.628906 951.128906 1143.609375 935.851562 1109.691406 941.570312 "/>
<path fill-rule="nonzero" fill="rgb(0%, 0%, 0%)" fill-opacity="1" d="M 1629.128906 668.128906 C 1616.03125 769.539062 1687.460938 862.429688 1788.828125 875.808594 C 1890.199219 889.191406 1983.289062 818.011719 1996.941406 716.671875 L 1629.128906 668.128906 "/>
<path fill-rule="nonzero" fill="rgb(0%, 0%, 0%)" fill-opacity="1" d="M 1808.628906 432.371094 C 1804.210938 432.371094 1799.800781 432.519531 1795.390625 432.820312 C 1703.660156 439.058594 1628.851562 508.71875 1616.089844 599.769531 L 1615.101562 612.5 C 1615.011719 613.03125 1622.820312 601.78125 1622.730469 602.308594 C 1617.851562 606.140625 1614.410156 611.789062 1613.511719 618.449219 L 1612.648438 624.808594 C 1610.828125 638.371094 1620.269531 650.761719 1633.828125 652.578125 L 2030.371094 706 C 2043.929688 707.828125 2056.308594 698.378906 2058.140625 684.820312 L 2059 678.460938 C 2060.820312 664.898438 2051.378906 652.519531 2037.820312 650.691406 L 2008.460938 646.738281 C 2012.359375 591.210938 1992.261719 536.671875 1953.269531 496.941406 C 1922.539062 462.691406 1880.648438 440.449219 1835.058594 434.179688 C 1826.300781 432.980469 1817.46875 432.371094 1808.628906 432.371094 "/>
<path fill-rule="nonzero" fill="rgb(0%, 0%, 0%)" fill-opacity="1" d="M 2390.320312 1374.800781 C 2388.511719 1374.761719 2386.660156 1375.25 2385.019531 1376.308594 L 2333.671875 1409.5 C 2329.289062 1412.328125 2328.039062 1418.140625 2330.878906 1422.519531 L 2364.640625 1474.769531 L 2164.398438 1604.179688 C 2160.019531 1607.019531 2158.769531 1612.820312 2161.601562 1617.210938 L 2171.941406 1633.210938 C 2174.769531 1637.589844 2180.578125 1638.839844 2184.960938 1636.011719 L 2385.210938 1506.589844 L 2416.960938 1555.71875 C 2419.789062 1560.101562 2425.601562 1561.351562 2429.980469 1558.519531 L 2481.328125 1525.328125 C 2485.710938 1522.5 2486.960938 1516.691406 2484.128906 1512.308594 L 2398.039062 1379.109375 C 2396.269531 1376.371094 2393.339844 1374.859375 2390.320312 1374.800781 "/>
<path fill="none" stroke-width="212.599" stroke-linecap="round" stroke-linejoin="round" stroke="rgb(0%, 0%, 0%)" stroke-opacity="1" stroke-miterlimit="10" d="M 6127.539062 23154.101562 L 8786.171875 23480.703125 " transform="matrix(0.1, 0, 0, -0.1, 0, 3000)"/>
<path fill="none" stroke-width="212.599" stroke-linecap="round" stroke-linejoin="round" stroke="rgb(0%, 0%, 0%)" stroke-opacity="1" stroke-miterlimit="10" d="M 6472.578125 23500.585938 L 8327.460938 23741.09375 " transform="matrix(0.1, 0, 0, -0.1, 0, 3000)"/>
<path fill="none" stroke-width="212.599" stroke-linecap="round" stroke-linejoin="round" stroke="rgb(0%, 0%, 0%)" stroke-opacity="1" stroke-miterlimit="10" d="M 20947.890625 21529.6875 L 23071.015625 21826.289062 " transform="matrix(0.1, 0, 0, -0.1, 0, 3000)"/>
<path fill="none" stroke-width="212.599" stroke-linecap="round" stroke-linejoin="round" stroke="rgb(0%, 0%, 0%)" stroke-opacity="1" stroke-miterlimit="10" d="M 21405.703125 21257.890625 L 22070.703125 21351.09375 " transform="matrix(0.1, 0, 0, -0.1, 0, 3000)"/>
<path fill="none" stroke-width="212.599" stroke-linecap="round" stroke-linejoin="round" stroke="rgb(0%, 0%, 0%)" stroke-opacity="1" stroke-miterlimit="10" d="M 22395.117188 21417.695312 L 22928.710938 21486.40625 " transform="matrix(0.1, 0, 0, -0.1, 0, 3000)"/>
<path fill="none" stroke-width="212.599" stroke-linecap="round" stroke-linejoin="round" stroke="rgb(0%, 0%, 0%)" stroke-opacity="1" stroke-miterlimit="10" d="M 10659.101562 18608.59375 L 11446.796875 17360.507812 " transform="matrix(0.1, 0, 0, -0.1, 0, 3000)"/>
<path fill="none" stroke-width="212.599" stroke-linecap="round" stroke-linejoin="round" stroke="rgb(0%, 0%, 0%)" stroke-opacity="1" stroke-miterlimit="10" d="M 10481.210938 18274.804688 L 10706.09375 17936.71875 " transform="matrix(0.1, 0, 0, -0.1, 0, 3000)"/>
<path fill="none" stroke-width="212.599" stroke-linecap="round" stroke-linejoin="round" stroke="rgb(0%, 0%, 0%)" stroke-opacity="1" stroke-miterlimit="10" d="M 10879.492188 17690.78125 L 11140.117188 17279.882812 " transform="matrix(0.1, 0, 0, -0.1, 0, 3000)"/>
</svg>
